<?xml version="1.0" encoding="UTF-8"?>
<svg xmlns="http://www.w3.org/2000/svg" version="1.1" viewBox="0 0 592.67 78.81">
  <!-- Generator: Adobe Illustrator 30.1.0, SVG Export Plug-In . SVG Version: 2.1.1 Build 136)  -->
  <defs>
    <style>
      .st0 {
        fill: #f1f2f2;
      }

      .st1 {
        fill: #30bba5;
      }

      .st2 {
        display: none;
      }
    </style>
  </defs>
  <g id="Layer_1">
    <g>
      <path class="st0" d="M17.25,77.19H2.16c-1.44,0-2.16-.72-2.16-2.16V3.61C0,2.17.72,1.46,2.16,1.46h47.6c1.44,0,2.16.72,2.16,2.16v13.21c0,1.44-.72,2.16-2.16,2.16h-30.35v16.12h22.59c1.44,0,2.16.72,2.16,2.16v12.13c0,1.44-.72,2.16-2.16,2.16h-22.59v23.5c0,1.44-.72,2.16-2.16,2.16v-.03Z"/>
      <path class="st0" d="M110.34,77.19h-46.47c-1.44,0-2.16-.72-2.16-2.16V3.61c0-1.44.72-2.16,2.16-2.16h15.09c1.44,0,2.16.72,2.16,2.16v55.04h29.22c1.44,0,2.16.72,2.16,2.16v14.23c0,1.44-.72,2.16-2.16,2.16h0Z"/>
      <path class="st0" d="M134.3,73.25c-6.02-3.52-10.76-8.28-14.23-14.28-3.47-6-5.2-12.6-5.2-19.78s1.73-13.78,5.2-19.78c3.47-6,8.2-10.74,14.2-14.2C140.27,1.74,146.94.01,154.27.01s13.94,1.74,19.94,5.23c6,3.49,10.74,8.22,14.2,14.2,3.47,5.98,5.2,12.57,5.2,19.76s-1.73,13.74-5.2,19.76c-3.47,6.02-8.21,10.79-14.23,14.31-6.02,3.52-12.66,5.28-19.92,5.28s-13.95-1.76-19.97-5.28v-.02ZM164.03,57.22c3.02-1.81,5.43-4.31,7.22-7.49,1.8-3.18,2.7-6.67,2.7-10.48s-.91-7.29-2.72-10.46c-1.81-3.16-4.23-5.65-7.25-7.47-3.02-1.81-6.25-2.72-9.7-2.72s-6.74.91-9.76,2.72c-3.02,1.81-5.44,4.3-7.25,7.47-1.81,3.16-2.72,6.65-2.72,10.46s.91,7.3,2.72,10.46,4.24,5.66,7.28,7.49,6.28,2.75,9.73,2.75,6.74-.91,9.76-2.72h0Z"/>
      <path class="st0" d="M218.5,74.79c-4.9-2.68-8.64-6.39-11.21-11.13s-3.85-10.13-3.85-16.17V3.61c0-1.44.72-2.16,2.16-2.16h15.09c1.44,0,2.16.72,2.16,2.16v41.13c0,3.23.53,6.06,1.59,8.46,1.06,2.41,2.59,4.27,4.58,5.58,1.99,1.31,4.32,1.97,6.98,1.97s5.05-.65,7.06-1.97c2.01-1.31,3.56-3.17,4.64-5.58,1.08-2.41,1.62-5.23,1.62-8.46V3.61c0-1.44.72-2.16,2.16-2.16h15.09c1.44,0,2.16.72,2.16,2.16v43.88c0,6.04-1.29,11.43-3.88,16.17-2.59,4.74-6.34,8.45-11.27,11.13-4.92,2.68-10.78,4.02-17.57,4.02s-12.59-1.34-17.49-4.02h-.02Z"/>
      <path class="st0" d="M444.22,77.19h-15.09c-1.44,0-2.16-.72-2.16-2.16V3.61c0-1.44.72-2.16,2.16-2.16h15.09c1.44,0,2.16.72,2.16,2.16v71.42c0,1.44-.72,2.16-2.16,2.16Z"/>
      <path class="st0" d="M470.61,75.14c-5.12-2.23-9.59-5.48-13.4-9.76-.43-.5-.65-.99-.65-1.46,0-.54.27-1.08.81-1.62l9.54-9.06c.47-.47.95-.7,1.46-.7.58,0,1.1.27,1.56.81,2.3,2.37,4.87,4.16,7.71,5.36s5.79,1.81,8.84,1.81,5.34-.52,6.85-1.56,2.26-2.46,2.26-4.26c0-1.22-.33-2.28-1-3.18s-1.94-1.8-3.83-2.69-4.64-1.89-8.27-2.96c-6-1.76-11.35-4.57-16.04-8.44s-7.03-9.08-7.03-15.66c0-3.92.99-7.53,2.97-10.83,1.98-3.31,4.99-5.96,9.06-7.95C475.51,1,480.51,0,486.44,0,491.43,0,496.21.9,500.78,2.7c4.56,1.8,8.62,4.22,12.18,7.28.54.47.81.99.81,1.56,0,.5-.22,1.01-.65,1.51l-8.73,9.81c-.47.58-.99.86-1.56.86-.47,0-.95-.2-1.46-.59-2.01-1.58-4.29-2.92-6.85-4.02-2.55-1.1-5.07-1.64-7.55-1.64-5.07,0-7.6,1.49-7.6,4.47,0,1.26.41,2.32,1.24,3.18s1.93,1.6,3.32,2.21c1.38.61,3.51,1.42,6.39,2.43.39.11.99.31,1.78.59,5.1,1.8,9.33,3.72,12.67,5.77s5.93,4.56,7.76,7.52,2.75,6.53,2.75,10.7c0,4.82-1.17,9.05-3.5,12.69-2.34,3.65-5.64,6.47-9.92,8.46s-9.24,2.99-14.88,2.99-11.24-1.11-16.36-3.34h-.01Z"/>
      <path class="st0" d="M543.46,77.19h-15.09c-1.44,0-2.16-.72-2.16-2.16V3.61c0-1.44.72-2.16,2.16-2.16h15.09c1.44,0,2.16.72,2.16,2.16v24.69h27.65V3.61c0-1.44.72-2.16,2.16-2.16h15.09c1.44,0,2.16.72,2.16,2.16v71.42c0,1.44-.72,2.16-2.16,2.16h-15.09c-1.44,0-2.16-.72-2.16-2.16v-28.19h-27.65v28.19c0,1.44-.72,2.16-2.16,2.16Z"/>
    </g>
    <path class="st1" d="M339.92,1.44h-30.57c-5.21,0-9.83,1.09-13.85,3.26-4.02,2.17-7.16,5.21-9.41,9.11s-3.37,8.36-3.37,13.4.99,8.94,2.97,12.37c1.98,3.43,4.74,6.23,8.3,8.38l-13.37,26.68c-.22.43-.32.81-.32,1.13,0,.43.17.77.51,1.02.34.25.8.38,1.37.38h17.25c1.19,0,2.03-.54,2.53-1.62l10.57-22.59c.54.04,1.31.05,2.32.05h7.82v21.99c0,1.44.72,2.16,2.16,2.16h15.09c1.44,0,2.16-.72,2.16-2.16V3.6c0-1.44-.72-2.16-2.16-2.16ZM331.71,29.33c-5.18-1.08-16.81,7.58-22.71,5.14s-9.07-9.52-11.69-15.23c2.56,1.04,6.14.36,9.61-.75,3.47-1.11,7.01-2.63,10.41-3.34,4.43-.92,8.47-.33,11.33,1.62,2.85,1.95,4.73,4.16,4.85,8.18-7.03-3.69-17.56-4.02-27.24-1.22,8.8-1.07,18.65.67,25.44,5.59Z"/>
    <path class="st1" d="M414.4,74.66l-13.37-26.68c3.56-2.16,6.32-4.95,8.3-8.38,1.98-3.43,2.97-7.55,2.97-12.37s-1.12-9.5-3.37-13.4c-2.25-3.9-5.38-6.93-9.41-9.11-4.03-2.17-8.64-3.26-13.85-3.26h-30.56c-1.44,0-2.16.72-2.16,2.16v-.02s-.01,71.42-.01,71.42c0,1.44.72,2.16,2.16,2.16h15.09c1.44,0,2.16-.72,2.16-2.16v-21.99h7.82c1.01,0,1.78-.02,2.32-.05l10.57,22.59c.5,1.08,1.35,1.62,2.53,1.62h17.25c.57,0,1.03-.13,1.37-.38.34-.25.51-.59.51-1.02,0-.32-.11-.7-.32-1.13ZM387.28,34.48c-5.89,2.44-17.53-6.22-22.71-5.14,6.79-4.92,16.65-6.66,25.44-5.59-9.69-2.81-20.21-2.47-27.24,1.22.11-4.02,2-6.24,4.85-8.18,2.86-1.95,6.9-2.53,11.33-1.62,3.4.71,6.94,2.23,10.41,3.34,3.47,1.11,7.05,1.79,9.61.75-2.62,5.71-5.8,12.8-11.69,15.23Z"/>
  </g>
  <g id="Layer_1_copy" class="st2">
    <g>
      <path class="st0" d="M17.25,77.19H2.16c-1.44,0-2.16-.72-2.16-2.16V3.61C0,2.17.72,1.46,2.16,1.46h47.6c1.44,0,2.16.72,2.16,2.16v13.21c0,1.44-.72,2.16-2.16,2.16h-30.35v16.12h22.59c1.44,0,2.16.72,2.16,2.16v12.13c0,1.44-.72,2.16-2.16,2.16h-22.59v23.5c0,1.44-.72,2.16-2.16,2.16v-.03Z"/>
      <path class="st0" d="M110.34,77.19h-46.47c-1.44,0-2.16-.72-2.16-2.16V3.61c0-1.44.72-2.16,2.16-2.16h15.09c1.44,0,2.16.72,2.16,2.16v55.04h29.22c1.44,0,2.16.72,2.16,2.16v14.23c0,1.44-.72,2.16-2.16,2.16h0Z"/>
      <path class="st0" d="M134.3,73.25c-6.02-3.52-10.76-8.28-14.23-14.28-3.47-6-5.2-12.6-5.2-19.78s1.73-13.78,5.2-19.78c3.47-6,8.2-10.74,14.2-14.2C140.27,1.74,146.94.01,154.27.01s13.94,1.74,19.94,5.23c6,3.49,10.74,8.22,14.2,14.2,3.47,5.98,5.2,12.57,5.2,19.76s-1.73,13.74-5.2,19.76c-3.47,6.02-8.21,10.79-14.23,14.31-6.02,3.52-12.66,5.28-19.92,5.28s-13.95-1.76-19.97-5.28v-.02ZM164.03,57.22c3.02-1.81,5.43-4.31,7.22-7.49,1.8-3.18,2.7-6.67,2.7-10.48s-.91-7.29-2.72-10.46c-1.81-3.16-4.23-5.65-7.25-7.47-3.02-1.81-6.25-2.72-9.7-2.72s-6.74.91-9.76,2.72c-3.02,1.81-5.44,4.3-7.25,7.47-1.81,3.16-2.72,6.65-2.72,10.46s.91,7.3,2.72,10.46,4.24,5.66,7.28,7.49,6.28,2.75,9.73,2.75,6.74-.91,9.76-2.72h0Z"/>
      <path class="st0" d="M218.5,74.79c-4.9-2.68-8.64-6.39-11.21-11.13s-3.85-10.13-3.85-16.17V3.61c0-1.44.72-2.16,2.16-2.16h15.09c1.44,0,2.16.72,2.16,2.16v41.13c0,3.23.53,6.06,1.59,8.46,1.06,2.41,2.59,4.27,4.58,5.58,1.99,1.31,4.32,1.97,6.98,1.97s5.05-.65,7.06-1.97c2.01-1.31,3.56-3.17,4.64-5.58,1.08-2.41,1.62-5.23,1.62-8.46V3.61c0-1.44.72-2.16,2.16-2.16h15.09c1.44,0,2.16.72,2.16,2.16v43.88c0,6.04-1.29,11.43-3.88,16.17-2.59,4.74-6.34,8.45-11.27,11.13-4.92,2.68-10.78,4.02-17.57,4.02s-12.59-1.34-17.49-4.02h-.02Z"/>
      <path class="st0" d="M444.22,77.19h-15.09c-1.44,0-2.16-.72-2.16-2.16V3.61c0-1.44.72-2.16,2.16-2.16h15.09c1.44,0,2.16.72,2.16,2.16v71.42c0,1.44-.72,2.16-2.16,2.16Z"/>
      <path class="st0" d="M470.61,75.14c-5.12-2.23-9.59-5.48-13.4-9.76-.43-.5-.65-.99-.65-1.46,0-.54.27-1.08.81-1.62l9.54-9.06c.47-.47.95-.7,1.46-.7.58,0,1.1.27,1.56.81,2.3,2.37,4.87,4.16,7.71,5.36s5.79,1.81,8.84,1.81,5.34-.52,6.85-1.56,2.26-2.46,2.26-4.26c0-1.22-.33-2.28-1-3.18s-1.94-1.8-3.83-2.69-4.64-1.89-8.27-2.96c-6-1.76-11.35-4.57-16.04-8.44s-7.03-9.08-7.03-15.66c0-3.92.99-7.53,2.97-10.83,1.98-3.31,4.99-5.96,9.06-7.95C475.51,1,480.51,0,486.44,0,491.43,0,496.21.9,500.78,2.7c4.56,1.8,8.62,4.22,12.18,7.28.54.47.81.99.81,1.56,0,.5-.22,1.01-.65,1.51l-8.73,9.81c-.47.58-.99.86-1.56.86-.47,0-.95-.2-1.46-.59-2.01-1.58-4.29-2.92-6.85-4.02-2.55-1.1-5.07-1.64-7.55-1.64-5.07,0-7.6,1.49-7.6,4.47,0,1.26.41,2.32,1.24,3.18s1.93,1.6,3.32,2.21c1.38.61,3.51,1.42,6.39,2.43.39.11.99.31,1.78.59,5.1,1.8,9.33,3.72,12.67,5.77s5.93,4.56,7.76,7.52,2.75,6.53,2.75,10.7c0,4.82-1.17,9.05-3.5,12.69-2.34,3.65-5.64,6.47-9.92,8.46s-9.24,2.99-14.88,2.99-11.24-1.11-16.36-3.34h-.01Z"/>
      <path class="st0" d="M543.46,77.19h-15.09c-1.44,0-2.16-.72-2.16-2.16V3.61c0-1.44.72-2.16,2.16-2.16h15.09c1.44,0,2.16.72,2.16,2.16v24.69h27.65V3.61c0-1.44.72-2.16,2.16-2.16h15.09c1.44,0,2.16.72,2.16,2.16v71.42c0,1.44-.72,2.16-2.16,2.16h-15.09c-1.44,0-2.16-.72-2.16-2.16v-28.19h-27.65v28.19c0,1.44-.72,2.16-2.16,2.16Z"/>
    </g>
    <path class="st0" d="M339.92,1.44h-30.57c-5.21,0-9.83,1.09-13.85,3.26-4.02,2.17-7.16,5.21-9.41,9.11s-3.37,8.36-3.37,13.4.99,8.94,2.97,12.37c1.98,3.43,4.74,6.23,8.3,8.38l-13.37,26.68c-.22.43-.32.81-.32,1.13,0,.43.17.77.51,1.02.34.25.8.38,1.37.38h17.25c1.19,0,2.03-.54,2.53-1.62l10.57-22.59c.54.04,1.31.05,2.32.05h7.82v21.99c0,1.44.72,2.16,2.16,2.16h15.09c1.44,0,2.16-.72,2.16-2.16V3.6c0-1.44-.72-2.16-2.16-2.16ZM331.71,29.33c-5.18-1.08-16.81,7.58-22.71,5.14s-9.07-9.52-11.69-15.23c2.56,1.04,6.14.36,9.61-.75,3.47-1.11,7.01-2.63,10.41-3.34,4.43-.92,8.47-.33,11.33,1.62,2.85,1.95,4.73,4.16,4.85,8.18-7.03-3.69-17.56-4.02-27.24-1.22,8.8-1.07,18.65.67,25.44,5.59Z"/>
    <path class="st0" d="M414.4,74.66l-13.37-26.68c3.56-2.16,6.32-4.95,8.3-8.38,1.98-3.43,2.97-7.55,2.97-12.37s-1.12-9.5-3.37-13.4c-2.25-3.9-5.38-6.93-9.41-9.11-4.03-2.17-8.64-3.26-13.85-3.26h-30.56c-1.44,0-2.16.72-2.16,2.16v-.02s-.01,71.42-.01,71.42c0,1.44.72,2.16,2.16,2.16h15.09c1.44,0,2.16-.72,2.16-2.16v-21.99h7.82c1.01,0,1.78-.02,2.32-.05l10.57,22.59c.5,1.08,1.35,1.62,2.53,1.62h17.25c.57,0,1.03-.13,1.37-.38.34-.25.51-.59.51-1.02,0-.32-.11-.7-.32-1.13ZM387.28,34.48c-5.89,2.44-17.53-6.22-22.71-5.14,6.79-4.92,16.65-6.66,25.44-5.59-9.69-2.81-20.21-2.47-27.24,1.22.11-4.02,2-6.24,4.85-8.18,2.86-1.95,6.9-2.53,11.33-1.62,3.4.71,6.94,2.23,10.41,3.34,3.47,1.11,7.05,1.79,9.61.75-2.62,5.71-5.8,12.8-11.69,15.23Z"/>
  </g>
</svg>