<?xml version="1.0" encoding="UTF-8"?>
<svg id="Layer_1" xmlns="http://www.w3.org/2000/svg" version="1.1" viewBox="0 0 592.67 78.81">
  <!-- Generator: Adobe Illustrator 29.8.1, SVG Export Plug-In . SVG Version: 2.1.1 Build 2)  -->
  <defs>
    <style>
      .st0 {
        fill: #f1f2f2;
      }

      .st1 {
        fill: #30bba5;
      }
    </style>
  </defs>
  <g>
    <path class="st0" d="M17.25,77.19H2.16c-1.44,0-2.16-.72-2.16-2.16V3.61C0,2.17.72,1.46,2.16,1.46h47.6c1.44,0,2.16.72,2.16,2.16v13.21c0,1.44-.72,2.16-2.16,2.16h-30.35v16.12h22.59c1.44,0,2.16.72,2.16,2.16v12.13c0,1.44-.72,2.16-2.16,2.16h-22.59v23.5c0,1.44-.72,2.16-2.16,2.16Z"/>
    <path class="st0" d="M110.34,77.19h-46.47c-1.44,0-2.16-.72-2.16-2.16V3.61c0-1.44.72-2.16,2.16-2.16h15.09c1.44,0,2.16.72,2.16,2.16v55.04h29.22c1.44,0,2.16.72,2.16,2.16v14.23c0,1.44-.72,2.16-2.16,2.16Z"/>
    <path class="st0" d="M134.3,73.25c-6.02-3.52-10.76-8.28-14.23-14.28-3.47-6-5.2-12.6-5.2-19.78s1.73-13.78,5.2-19.78c3.47-6,8.2-10.74,14.2-14.2,6-3.47,12.67-5.2,20-5.2s13.94,1.74,19.94,5.23c6,3.49,10.74,8.22,14.2,14.2,3.47,5.98,5.2,12.57,5.2,19.76s-1.73,13.74-5.2,19.76c-3.47,6.02-8.21,10.79-14.23,14.31-6.02,3.52-12.66,5.28-19.92,5.28s-13.95-1.76-19.97-5.28ZM164.03,57.22c3.02-1.81,5.43-4.31,7.22-7.49,1.8-3.18,2.7-6.67,2.7-10.48s-.91-7.29-2.72-10.46c-1.81-3.16-4.23-5.65-7.25-7.47-3.02-1.81-6.25-2.72-9.7-2.72s-6.74.91-9.76,2.72c-3.02,1.81-5.44,4.3-7.25,7.47-1.81,3.16-2.72,6.65-2.72,10.46s.91,7.3,2.72,10.46c1.81,3.16,4.24,5.66,7.28,7.49,3.04,1.83,6.28,2.75,9.73,2.75s6.74-.91,9.76-2.72Z"/>
    <path class="st0" d="M218.5,74.79c-4.9-2.68-8.64-6.39-11.21-11.13-2.57-4.74-3.85-10.13-3.85-16.17V3.61c0-1.44.72-2.16,2.16-2.16h15.09c1.44,0,2.16.72,2.16,2.16v41.13c0,3.23.53,6.06,1.59,8.46,1.06,2.41,2.59,4.27,4.58,5.58,1.99,1.31,4.32,1.97,6.98,1.97s5.05-.65,7.06-1.97c2.01-1.31,3.56-3.17,4.64-5.58,1.08-2.41,1.62-5.23,1.62-8.46V3.61c0-1.44.72-2.16,2.16-2.16h15.09c1.44,0,2.16.72,2.16,2.16v43.88c0,6.04-1.29,11.43-3.88,16.17-2.59,4.74-6.34,8.45-11.27,11.13-4.92,2.68-10.78,4.02-17.57,4.02s-12.59-1.34-17.49-4.02Z"/>
    <path class="st0" d="M444.22,77.19h-15.09c-1.44,0-2.16-.72-2.16-2.16V3.61c0-1.44.72-2.16,2.16-2.16h15.09c1.44,0,2.16.72,2.16,2.16v71.42c0,1.44-.72,2.16-2.16,2.16Z"/>
    <path class="st0" d="M470.61,75.14c-5.12-2.23-9.59-5.48-13.4-9.76-.43-.5-.65-.99-.65-1.46,0-.54.27-1.08.81-1.62l9.54-9.06c.47-.47.95-.7,1.46-.7.58,0,1.1.27,1.56.81,2.3,2.37,4.87,4.16,7.71,5.36,2.84,1.2,5.79,1.81,8.84,1.81s5.34-.52,6.85-1.56c1.51-1.04,2.26-2.46,2.26-4.26,0-1.22-.33-2.28-1-3.18-.67-.9-1.94-1.8-3.83-2.69s-4.64-1.89-8.27-2.96c-6-1.76-11.35-4.57-16.04-8.44s-7.03-9.08-7.03-15.66c0-3.92.99-7.53,2.97-10.83,1.98-3.31,4.99-5.96,9.06-7.95,4.06-1.99,9.06-2.99,14.99-2.99,4.99,0,9.77.9,14.34,2.7,4.56,1.8,8.62,4.22,12.18,7.28.54.47.81.99.81,1.56,0,.5-.22,1.01-.65,1.51l-8.73,9.81c-.47.58-.99.86-1.56.86-.47,0-.95-.2-1.46-.59-2.01-1.58-4.29-2.92-6.85-4.02-2.55-1.1-5.07-1.64-7.55-1.64-5.07,0-7.6,1.49-7.6,4.47,0,1.26.41,2.32,1.24,3.18.83.86,1.93,1.6,3.32,2.21,1.38.61,3.51,1.42,6.39,2.43.39.11.99.31,1.78.59,5.1,1.8,9.33,3.72,12.67,5.77s5.93,4.56,7.76,7.52c1.83,2.96,2.75,6.53,2.75,10.7,0,4.82-1.17,9.05-3.5,12.69-2.34,3.65-5.64,6.47-9.92,8.46-4.28,1.99-9.24,2.99-14.88,2.99s-11.24-1.11-16.36-3.34Z"/>
    <path class="st0" d="M543.46,77.19h-15.09c-1.44,0-2.16-.72-2.16-2.16V3.61c0-1.44.72-2.16,2.16-2.16h15.09c1.44,0,2.16.72,2.16,2.16v24.69h27.65V3.61c0-1.44.72-2.16,2.16-2.16h15.09c1.44,0,2.16.72,2.16,2.16v71.42c0,1.44-.72,2.16-2.16,2.16h-15.09c-1.44,0-2.16-.72-2.16-2.16v-28.19h-27.65v28.19c0,1.44-.72,2.16-2.16,2.16Z"/>
  </g>
  <path class="st1" d="M339.91,1.44h-30.56c-5.21,0-9.83,1.09-13.85,3.26-4.02,2.17-7.16,5.21-9.41,9.11-2.25,3.9-3.37,8.36-3.37,13.4s.99,8.94,2.97,12.37c1.98,3.43,4.74,6.23,8.3,8.38l-13.37,26.68c-.22.43-.32.81-.32,1.13,0,.43.17.77.51,1.02.34.25.8.38,1.37.38h17.25c1.19,0,2.03-.54,2.53-1.62l10.57-22.59c.54.04,1.31.05,2.32.05h7.82v21.99c0,1.44.72,2.16,2.16,2.16h15.09c1.44,0,2.16-.72,2.16-2.16V3.6c0-1.44-.72-2.16-2.16-2.16ZM325.28,34.74c-3.2,1.32-7.27,1.06-11.42-.75-3.18-1.39-6.33-3.61-9.5-5.41-3.17-1.8-6.53-3.2-9.25-2.71,3.74-5.05,8.31-11.33,14.58-12.5,6.27-1.17,15.87,9.7,21.16,9.71-7.66,3.42-17.66,3.09-26.05.23,8.9,4.74,19.27,6.58,26.91,4.42-.94,3.91-3.24,5.69-6.43,7.01Z"/>
  <path class="st1" d="M352.94,3.6v71.42c0,1.44.72,2.16,2.16,2.16h15.09c1.44,0,2.16-.72,2.16-2.16v-21.99h7.82c1.01,0,1.78-.02,2.32-.05l10.57,22.59c.5,1.08,1.35,1.62,2.53,1.62h17.25c.57,0,1.03-.13,1.37-.38.34-.25.51-.59.51-1.02,0-.32-.11-.7-.32-1.13l-13.37-26.68c3.56-2.16,6.32-4.95,8.3-8.38,1.98-3.43,2.97-7.55,2.97-12.37,0-5.03-1.12-9.5-3.37-13.4-2.25-3.9-5.38-6.93-9.41-9.11-4.03-2.17-8.64-3.26-13.85-3.26h-30.56c-1.44,0-2.16.72-2.16,2.16ZM363.29,27.73c7.63,2.16,18,.32,26.91-4.42-8.4,2.86-18.39,3.2-26.05-.23,5.29-.01,14.9-10.87,21.16-9.71,6.27,1.17,10.84,7.45,14.58,12.5-2.71-.5-6.08.9-9.25,2.71-3.17,1.8-6.32,4.03-9.5,5.41-4.14,1.81-8.22,2.07-11.42.75s-5.49-3.1-6.43-7.01Z"/>
</svg>