<?xml version="1.0" encoding="UTF-8"?>
<svg id="Layer_1" xmlns="http://www.w3.org/2000/svg" version="1.1" viewBox="0 0 841.89 512.8">
  <!-- Generator: Adobe Illustrator 30.1.0, SVG Export Plug-In . SVG Version: 2.1.1 Build 136)  -->
  <defs>
    <style>
      .st0 {
        fill: #e6e7e8;
      }
    </style>
  </defs>
  <g>
    <path class="st0" d="M490.42,37.91l49.2,149.22,246.22,155.81L490.42,37.91ZM340.32,231.87l104.86-183.86-173.81,164.62,68.95,19.24ZM3.37,381.41l155.29-200.22,97.68,27.23L474.5,1.62c117.36,129.83,244.92,253.35,367.39,379.8H3.37ZM535.1,199.6l-55.59,71.14,300.57,83.86-244.98-155ZM465.22,266.74l60.18-76.98-53.12-161.01-118.03,207.04,110.97,30.96ZM456.98,277.33l-109.08-30.45-69.72,122.29h107.05l71.75-91.83ZM180.25,279.1l-21.68-75.42-116.93,150.83,138.6-75.42ZM206.11,369.17l-22.24-77.46c-47.44,25.81-94.91,51.62-142.36,77.46h164.6ZM196.5,283.54l24.6,85.62h40.95l71.95-126.17-73.14-20.41-64.36,60.96ZM171.83,197.75l20.51,71.31,53.49-50.67-74-20.64ZM786.04,369.17l-314.8-87.86-68.62,87.86h383.42Z"/>
    <polygon class="st0" points="262.06 236.69 210.97 286.71 229.25 350.34 259.69 350.34 316.41 251.86 262.06 236.69"/>
    <polygon class="st0" points="471.41 64.69 382.14 226.48 461.78 248.05 504.72 190.42 471.41 64.69"/>
    <polygon class="st0" points="479.52 298.67 435.91 354.51 682.3 354.6 479.52 298.67"/>
    <polygon class="st0" points="152.8 229.14 166 275.06 81.61 320.98 152.8 229.14"/>
  </g>
  <g>
    <path class="st0" d="M4.28,437.32h31.54c14.33,0,25.45,9.2,25.45,23.95s-11.12,24.06-25.45,24.06h-14.75v27.48H4.28v-75.48ZM21.07,450.36v21.92h12.3c6.31,0,11.23-4.06,11.23-11.01s-4.92-10.91-11.23-10.91h-12.3Z"/>
    <path class="st0" d="M115.58,437.32h16.79v75.48h-16.79v-75.48Z"/>
    <path class="st0" d="M191.81,437.32h11.76l35.82,45.87v-45.87h16.79v75.48h-12.3l-35.28-45.23v45.23h-16.79v-75.48Z"/>
    <path class="st0" d="M315.62,437.32h11.76l35.82,45.87v-45.87h16.79v75.48h-12.3l-35.28-45.23v45.23h-16.79v-75.48Z"/>
    <path class="st0" d="M463.7,437.32h15.18l29.62,75.48h-17.75l-5.02-13.69h-29.51l-5.03,13.69h-17.43l29.94-75.48ZM480.81,485.43l-9.73-26.94-9.84,26.94h19.57Z"/>
    <path class="st0" d="M553.51,474.95c0-22.03,17-38.81,39.56-38.81,11.97,0,21.17,4.06,28.23,10.8l-11.23,11.33c-3.96-4.28-9.62-6.84-17-6.84-13.15,0-22.35,9.41-22.35,23.52s9.2,23.74,22.35,23.74c7.7,0,13.26-2.57,17.43-6.84l11.33,11.33c-7.27,6.74-16.36,10.8-28.65,10.8-22.56,0-39.67-16.89-39.67-39.02Z"/>
    <path class="st0" d="M675.93,437.32h16.79v60.73h33.47v14.75h-50.25v-75.48Z"/>
    <path class="st0" d="M780.81,437.32h53.67v14.43h-36.89v15.5h33.68v14.01h-33.68v17h37.42v14.54h-54.21v-75.48Z"/>
  </g>
</svg>