<?xml version="1.0" encoding="UTF-8"?>
<svg id="Layer_1" xmlns="http://www.w3.org/2000/svg" version="1.1" viewBox="0 0 3286.21 1580.74">
  <!-- Generator: Adobe Illustrator 30.1.0, SVG Export Plug-In . SVG Version: 2.1.1 Build 136)  -->
  <defs>
    <style>
      .st0 {
        opacity: .17;
      }

      .st0, .st1 {
        fill: #113559;
      }

      .st1 {
        opacity: .21;
      }

      .st2 {
        fill: #fff;
        opacity: .06;
      }

      .st3 {
        fill: #ababab;
        opacity: .31;
      }
    </style>
  </defs>
  <polygon class="st3" points="1027.09 732.19 1557.99 -164.51 1712.12 -.29 1392.62 540.8 1839.51 1354.61 2858.55 -502.47 349.75 -502.23 1027.09 732.19"/>
  <polygon class="st2" points="2106.15 346.07 1575.24 1242.78 1421.11 1078.56 1740.62 537.46 1293.73 -276.34 274.69 1580.74 2783.48 1580.5 2106.15 346.07"/>
  <polygon class="st1" points="1334.25 1049.41 881.04 283.93 749.46 424.11 1022.21 886.03 640.72 1580.74 -229.19 -4.57 1912.46 -4.37 1334.25 1049.41"/>
  <polygon class="st0" points="483.38 699.61 862.27 1339.55 972.26 1222.36 744.24 836.2 1063.17 255.43 1790.41 1580.74 0 1580.57 483.38 699.61"/>
  <polygon class="st0" points="2951.62 995.6 2523.51 272.53 2399.23 404.94 2656.87 841.27 2296.51 1497.5 1474.78 0 3497.81 .19 2951.62 995.6"/>
</svg>