<?xml version="1.0" encoding="UTF-8"?>
<svg id="Layer_1" xmlns="http://www.w3.org/2000/svg" xmlns:xlink="http://www.w3.org/1999/xlink" version="1.1" viewBox="0 0 510.96 181.47">
  <!-- Generator: Adobe Illustrator 30.1.0, SVG Export Plug-In . SVG Version: 2.1.1 Build 136)  -->
  <defs>
    <style>
      .st0, .st1 {
        fill: none;
      }

      .st2 {
        clip-path: url(#clippath-1);
      }

      .st3, .st4, .st5 {
        fill: #fff;
      }

      .st4 {
        font-size: 6.66px;
      }

      .st4, .st5 {
        font-family: AvenirNext-Regular, 'Avenir Next';
      }

      .st5 {
        font-size: 9.49px;
      }

      .st1 {
        stroke: #71cbd7;
        stroke-miterlimit: 10;
      }

      .st6 {
        fill: aqua;
      }

      .st7 {
        fill: #eee;
      }

      .st8 {
        clip-path: url(#clippath);
      }
    </style>
    <clipPath id="clippath">
      <rect class="st0" x="0" y="0" width="510.96" height="128.93"/>
    </clipPath>
    <clipPath id="clippath-1">
      <rect class="st1" x="-7.52" y="-5.65" width="522.87" height="139.85"/>
    </clipPath>
    <clipPath id="clippath-2">
      <rect class="st0" x="440.09" y="7.23" width="70.87" height="75.32"/>
    </clipPath>
    <clipPath id="clippath-4">
      <rect class="st0" x="440.09" y="7.23" width="70.87" height="75.32"/>
    </clipPath>
  </defs>
  <text class="st5" transform="translate(485.64 99.43)"><tspan x="0" y="0">TM</tspan></text>
  <g>
    <g id="logo-cycling">
      <g>
        <path class="st3" d="M506.69,33.65c.1,2.3,1.08,5.03-1.22,5.84-.03.47-.34.66-.27,1.23-1.03,1.1-1.22,2.34-2.44,3.25-2.13,1.6-5.79.96-8.01,2.59.96,1.55,1.96,3.01,3.26,4.2,1.22,1.13,3.08,1.99,3.4,3.94-1.94,1.14-3.01-.75-4.35-1.08-.31-.08-.54.08-.81,0-1.94-.59-2.03-.66-4.21.13-1.21.45-2.5.35-2.72,1.63-.43.02-.45-.36-.95-.27.73,2.29-1.1,3.95-1.5,5.98-.42.16-.89.28-1.08.68.09.54.3.97.27,1.63,3.63,3.36,6.5,6.54,5.98,13.45-.58,7.65-7.32,13.94-15.34,14.25-1.78.06-3.73-.73-5.7-.67-.53,0-1.24.4-1.9.27-2-.42-2.02-4.02-4.07-4.75-.74-2.97-3.1-4.32-4.21-6.93,1.1-2.11.64-5.78,1.77-7.88-.84-.5-1.2-2.18.27-2.3-1.94-2.05-6.16-5.84-2.71-9.64.5-.56,1.14-.68,1.76-1.37-.25-2.42-.52-4.82-2.17-5.84-3.36,2.35-7.1,4.16-11.95,3.53-2.08-.28-4.01-.9-6.38-.28-2.22-2.12-3.95-4.73-6.38-6.65-.17-3.47-1.87-6.13-1.77-9.5.06-1.96.83-4.03,1.49-5.7,1.89-4.77,6.25-8.61,11.68-9.64,8.01-1.51,15.07,3.01,17.79,9.77.91.02,1.77.74,2.44-.27-1.17-2.48-.27-5.76-.4-7.87-.85.92-1.22.67-2.72.94.29-.54.99-.53.27-1.09,1.23.14,2.36-.74,2.3-1.9.25-.74,1.36-.63,1.09-1.89.74-.05,1.01-.54,1.49-.81,1.83.39,2.91,1.52,4.49,2.17,6.78-.07,12.37-2.48,14.39-7.75.77-.54,1.36-1.28,2.31-1.63-.61-1,.86-1.11.54-1.77-.07-.62-.89.19-1.09-.4-.21-.84.5-.78.54-1.36-.94.09-1.56-.16-2.03-.54-.35-1.64,1.27-3.3-.14-4.62.2-.67.86-.87,1.49-1.09.1-.74-.88-.79-.95-1.63-.15-2,3.6-4.15,6.66-3.8,2.89.33,5.02,2.57,6.38,3.53-.58.95-.64,2.43-.95,3.66-1.15.8-2.57,1.34-3.4,2.45.58,2.1,2.73,3.16,3.66,5.16.73,1.57,1.18,3.39,1.9,5.29,1.31,3.44,2.87,7.07,3.8,10.59.39,1.45.33,2.95.41,4.75ZM495.84,51.16c-.03-.43-.1-.81-.55-.81.12.33.12.78.55.81ZM495.16,51.57c-.44-.76-.93-1.66-.55-2.85-.47-.44-.69-1.12-1.5-1.22-2.43,1.46-6.47,1.32-7.74,3.93.55.82.98,1.74,1.9,2.19,2.42-.82,5.24-2.72,7.88-2.04ZM485.38,84.97c2.59-2.14,4.8-6.48,4.35-10.99-.24-2.31-1.38-4.21-2.31-5.98-.16-.2-.51-.21-.68-.4-.7-1.26-1.9-1.99-3.12-2.72-1.16,2.82-2.42,5.54-3.53,8.41,3.35-.72,4.1-4.05,6.65-5.57-1.12,1.83-2.84,3.05-4.08,4.75,2.01-.39,4.07-1.57,5.71-1.49-2.62,1.09-5.96,1.47-7.74,3.4-.15.42-.01.3,0,.81-.68.25-1.39.51-1.63,1.22,1.85,1.58,5.17.98,7.2,1.76-2.02.49-4.22-.84-6.25-.27-.36-.1-.52-.79-.96-.41.09.5.35.84.69,1.09.37,2.76,1.7,5.71,2.44,8.56,1.22-.37,2.15-1.01,2.85-1.9-1.23-1.7-2.56-3.56-3.8-5.17-.37-.46-1.13-1.08-.95-1.75,2,1.67,5.19,2.14,7.2,3.8-2.08-.69-3.84-1.69-5.84-2.44,1.16,1.87,2.36,3.7,3.8,5.29ZM490.4,31.48c-.54-2.18-1.87-3.57-2.99-5.17-1.39.48-2.87,1.27-4.48,1.23-.5,0-.97-.31-1.49-.27-.31.02-.66.34-.95.4-1.83.45-3.92,0-5.7,0-.52,1.95.86,3.56,1.77,4.89.84-.97,1.95-1.15,3.66-1.22,3.35-.15,7.36-.08,10.19.14ZM484.97,61.48c1.84-1.11,3.39-3.21,2.99-6.11h-.41c-.79,2.02-2.24,4.09-2.58,6.11ZM481.03,45.06c1.89-1.29,4.19-3.34,6.38-4.76-2.33-.7-4.41-3.08-7.33-1.91-.53,1.14-1.11,2.24-1.63,3.4.87,1.09,1.54,2.36,2.58,3.27ZM483.07,61.76c.94-1.92,1.9-3.8,2.85-5.71-3.32.26-4.07,3.08-5.84,4.89,1.01.25,1.93.6,2.99.82ZM485.38,54.29c-.25-.66-.61-1.21-1.22-1.49-.25.55-.76,1.45-.54,2.03.61-.15,1.26-.26,1.77-.53ZM479.4,72.21c.95-2.19,2.36-4.81,2.86-6.79-1.34,2.78-3.32,5.64-4.21,8.42,1.03.43,1.1-1.02,1.35-1.63ZM481.71,87.41c-1.2-2.95-1.38-6.95-3.53-8.96-.6.08-.9.46-1.22.82.4,3.12.87,6.18,1.49,9.09,1.24-.16,2.34-.46,3.26-.95ZM477.64,72.21c1.73-2.38,2.81-5.43,4.21-8.15-1.02-.22-2.36-.78-3.26-.68-.73,1.45-2.3,3.67-2.58,5.71-.19,1.39.42,2.17.68,2.98.16.5-.4,1.25.41,1.22.11-.57-.42-.95.4-.81.4-2.54,1.1-4.79,2.04-6.78-.48,2.32-1.14,4.46-1.9,6.52ZM479.4,75.07c.78-.32,1.21-.99,1.63-1.63-.92.16-1.64.53-1.63,1.63ZM479.54,46.27c-.81-.86-1.2-2.15-2.31-2.71-.03.51-.51.58-.54,1.09-1.48,1.09-4.02,4.16-4.62,6.92-.52,2.37.06,4.57-2.44,4.48-1.02-.04-1.49-.99-2.72-1.08-.29.93-.58,1.87-.82,2.84,1.09.72,1.78,1.85,2.72,2.72,1.95-.99,4.23-1.65,6.38-2.45,1.29-4.08,2.98-7.8,4.35-11.81ZM477.91,88.51c-.64-2.94-.75-6.41-1.62-9.1-1.34,2.38-1.37,6.05-2.17,8.96,1.11.35,2.9.27,3.79.15ZM475.33,73.02c.62-.04.55.62,1.22.54-.26-.55-.28-1.35-.82-1.63-.02.48-.5.5-.4,1.09ZM475.6,34.19c-1.04-.14-1.9-.1-2.18.81.32.55.62,1.11,1.09,1.49.32-.8.69-1.57,1.09-2.31ZM475.06,81.44c-.02-.11-.11-.16-.27-.13-1.19,2.21-3.05,3.74-4.21,5.98,1.05.31,1.85.86,3.12.95.32-2.39.84-4.59,1.36-6.79ZM475.33,78.86c-.27-.68-1.32-.58-1.09-1.77-.57.26-.69-.21-1.08,0,.3,1.93-1.26,1.14-2.17,1.23-.82.06-1.92,1.06-2.72,1.5-1.03.54-1.92.96-2.71,1.48.68.86,1.6,1.49,2.17,2.44,2.72-1.44,4.92-3.41,7.6-4.89ZM474.11,74.66c.24-.61-.79-.99-1.5-1.09-.02.87.92.8,1.5,1.09ZM472.07,61.76c.81-.29,2.08-.43,2.31-1.23-1.27.31-3.42.93-4.62,1.76.56.43,1.49-.25,2.31-.54ZM474.11,32.29c-.41-1.27-.67-2.68-2.04-2.98-.56,1.03-.66,3.1-1.22,3.94.97-.35,2.07-.74,3.26-.95ZM473.29,38.68c-.72-1.14-1.26-2.45-2.31-3.26-.04.18-.3.15-.41.26-1.24,4.29-1.77,9.27-2.85,13.72,3.09-2.35,3.49-7.38,5.57-10.73ZM469.08,67.46c1.73-.53,3.27-1.27,3.67-3.13-1.61.66-3.36,1.17-4.08,2.72.2.08.34.21.41.41ZM468.81,74.51c.04,1.33,2.58,2.76,3.8,1.09-1.31-.31-2.7-.56-3.8-1.09ZM470.03,86.6c2.05-2.16,3.92-4.5,5.43-7.19-2.65,1.47-4.92,3.31-7.47,4.89.66.79,1.35,1.54,2.04,2.31ZM470.57,30.25c.68-.1.86-1.88-.13-1.76.21.63-.38,1.71.13,1.76ZM467.73,73.57c1.35.83,3.74,1.33,5.29,1.5-.54-1.67-3.58-2.68-5.29-1.5ZM470.98,30.66c-1.06.17-.38,2.07-1.36,2.31-.1-.5.23-.58.13-1.08-.24-.08-.56.4-.68,0,1.02-.57,1.14-2.03,1.22-3.53-.24-.49-.76-.69-1.36-.82-.75,1.95-.85,5.28,1.09,5.97.53-.74.86-1.67.95-2.85ZM469.08,63.11c.52.1.52-.65,0-.54.01.37-.22.28,0,.54ZM470.85,77.91c-.86-2.09-4.86-.11-6.66-.41.22,1.24.17,2.74,1.23,3.12,1.98-.74,3.45-1.98,5.43-2.72ZM469.63,76.42c-.88-2.05-2.81-2.21-4.89-2.99-.62.61-.6,2.54-.54,3.4,1.61.05,3.53-.15,5.44-.41ZM467.04,68.54c.47.06.78-.03.68-.54-.44-.04-.66.15-.68.54ZM467.59,62.98c-.95-.14-.84.79-1.08,1.35.47.16,1.08-.6,1.08-1.35ZM467.04,37.04c-.79-.02-1.34.2-1.77.54.73,5.84-1.5,9.89-4.07,12.9,1.09.12,2.47.18,3.67-.13.81-4.35,1.5-8.83,2.17-13.31ZM466.91,61.21c.37-.44-.13-.88-.68-.81-.02.51.27.73.68.81ZM463.78,56.05c0-.36.07-.8-.27-.82-.21.21-.25.94.27.82ZM454.83,51.84c4.64-2.57,8.12-6.33,7.88-13.44-2.54.68-4.82,1.62-7.74,1.91-.13.3-.25.95-.68.54-.07-.2.54-.34.13-.41-.78.83-2.23-.26-3.4.27,3.06,1.69,6.79,3.44,9.24,5.29-3.08-1.32-6.05-3.46-8.96-4.49,1.33,1.52,2.77,2.94,3.8,4.75.24.08.8-.16.82.14.12,1.43,1.65,2.14,1.76,3.12-1.45-1.12-2.15-3-3.8-3.94-.68-1.53-2.03-3.13-3.12-3.81,1.23,3.48,2.38,7.04,4.07,10.04ZM460.8,60.94c.64.03,1.2-.53.95-.95-.32-.22-.95.41-.95.95ZM462.29,36.36c-.82-3.95-3.71-7.52-7.34-9.1-.25-.11-.56.09-.81,0-.45-.15-.77-.53-1.22-.67-2.32-.78-5.31-.62-7.74.27.59,1.69,1.26,3.41,1.9,5.15.62,1.73,1.05,3.58,2.04,5.03.35-2.91.03-6.48.54-9.24.28,2.64-.2,5.49.13,8.69,1.42-.45,1.08-2.63,2.04-3.53.26-1.33.77-2.4,1.36-3.39,0-.68.12-1.24.68-1.36-1,3.16-2.68,6.38-3.26,9.51,2.69-2.44,4.72-5.51,7.47-7.88-2.33,3.19-5.17,5.88-7.61,8.96.85-.22,1.64-.79,2.44-1.22,2.59-1.41,5.08-3.19,7.88-4.21-3.09,2.07-6.67,3.65-9.64,5.84,4.37-.3,7.58-1.74,11.13-2.85ZM449.67,52.93c1.66-.19,3.41-.3,4.48-1.09-1.2-2.65-2.22-5.47-3.26-8.27-.09-.42-.74-.27-.82-.68.25-.45.24-1.64-.27-1.77.02,4.11-.23,7.97-.13,11.82ZM449.39,41.25c-.02-.11-.11-.16-.26-.14-1.14,3.81-3.05,7.53-3.94,11.13,1.16.42,2.65.63,3.8.69.27-3.77.32-7.75.4-11.68ZM448.31,40.97c-.02-.16-.04-.32-.27-.26-1.39,1.09-3.17,1.82-4.75,2.72-1.61.9-3.37,1.75-4.48,3.12.79.65,1.29,1.6,2.04,2.3,2.81-2.29,4.75-5.47,7.47-7.87ZM448.31,37.45c-.69-3.39-2.31-7.01-3.4-10.45-1.56.33-2.72,1.08-3.8,1.9,2.23,3.02,4.44,6.05,7.19,8.56ZM444.51,51.98c1.33-3.46,3-7.32,3.93-10.73-2.26,2.99-5.09,5.41-7.19,8.56,1.26.55,1.65,1.97,3.26,2.17ZM443.42,42.88c1.64-.93,3.42-1.78,4.89-2.99-4.16.59-8.1,1.41-12.09,2.18.17,1.59,1.1,2.44,1.91,3.39,2.01-.44,3.64-1.64,5.3-2.57ZM448.44,39.22c-1.43-1.26-3.31-2.19-5.16-3.27-1.84-1.06-3.93-2.34-5.7-2.98-.41,1.18-1.07,2.1-1.22,3.53,4,.84,8.11,2.31,12.08,2.72ZM443.28,40.3c1.15-.22,2.37-.37,3.26-.95-3.44-.41-6.76-1.75-10.45-2.31-.13,1.36-.33,3.32.13,4.48,2.16-.57,4.75-.8,7.06-1.22ZM447.36,37.86c-2.11-3.01-4.39-5.85-6.79-8.56-.82,1-1.86,1.76-2.44,2.98,2.9,2.04,6.27,3.6,9.23,5.57Z"/>
        <path class="st7" d="M489.04,74.38c.04.46-.64.57-.82.41.13-.28.4-.41.82-.41Z"/>
        <path class="st7" d="M488.22,78.32c.08.3-.26.19-.27.4-.5-.14-.36-.29-.95-.14.26-.79.65.05,1.22-.26Z"/>
        <path class="st7" d="M487.01,74.66c.32-.05.51-.22.95-.15-.02.27-.94.74-.95.15Z"/>
        <path class="st7" d="M485.78,74.93c.14-.36.55-.45,1.08-.42-.06.44-.74.69-1.08.42Z"/>
        <path class="st7" d="M484.56,75.07c.05-.45.82-.61,1.09-.41-.05.44-.62.37-1.09.41Z"/>
        <path class="st7" d="M483.34,75.2c.02-.53.53-.56,1.09-.54-.01.53-.59.49-1.09.54Z"/>
        <path class="st7" d="M480.76,75.34c.34-.88,1.86-.39,2.44-.55-.63.88-1.28.15-2.44.55Z"/>
        <path class="st7" d="M479.81,64.06c.68.18-.17.93-.13,1.36-.42-.38.09-.99.13-1.36Z"/>
        <path class="st7" d="M459.31,41.39c.07.3-.26.19-.27.4-.25-.11-.35-.38-.82-.27.31-.6.52.2,1.09-.13Z"/>
        <path class="st7" d="M456.19,41.11c.31-.46.85.08,1.22,0-.14.54-.88.09-1.22,0Z"/>
        <path class="st7" d="M456.05,41.11c-.4,0-.89.08-1.09-.14.05-.45,1.05-.24,1.09.14Z"/>
      </g>
    </g>
    <g class="st8">
      <g>
        <g class="st2">
          <path class="st6" d="M498.48,121.63c1.3,1.61,4.72,5.46,3.59,6.36-.74.59-9.88.61-13.28.61-2.24,0-4.73-.11-6.97-.11-2.4,0-5.28.06-7-.31-.51-.11-4.75-5.35-6.36-7.35-13.06-16.1-26.32-32.14-39.57-48.52-.92-1.12-2.27-3.35-3.38-2.98-1.93.64-1.19,10.45-1.19,13.92v44.93h-11.93c-2.87,0-9.41-.17-11.14-.59-1.21-.28-.6-11.33-.6-15.5V8.69c0-2.13-.6-8.31,1.59-7.77,1.56.4,3.39,3.48,4.57,4.98,15.49,19.4,31.2,39.1,46.33,58.45,5.61,7.19,10.98,14.52,16.91,21.08,8.98,12.2,18.48,23.87,28.43,36.19"/>
          <path class="st6" d="M41.26,0h-18.06C8.22,0,0,8.06,0,23.21v38.03c0,3.07,1.45,5,4.35,5.97l38.2,12.57v21.43c0,4.36-2.26,6.46-6.44,6.46h-7.74c-4.03,0-6.45-2.1-6.45-6.46v-12.4c0-1.77-.81-2.58-2.58-2.58H2.57c-1.61,0-2.57.81-2.57,2.58v16.92c0,15.15,8.22,23.2,23.2,23.2h18.06c15.15,0,23.21-8.05,23.21-23.2v-37.23c0-3.06-1.46-4.83-4.19-5.97l-38.36-12.57v-22.23c0-4.2,2.42-6.45,6.45-6.45h7.74c4.35,0,6.44,2.26,6.44,6.45v12.57c0,1.61.97,2.57,2.58,2.57h16.77c1.77,0,2.57-.96,2.57-2.57v-17.08C64.46,8.06,56.4,0,41.26,0"/>
          <path class="st6" d="M121.84,0h-18.05c-15.15,0-23.21,8.06-23.21,23.21v82.52c0,15.15,8.06,23.2,23.21,23.2h18.05c15.15,0,23.21-8.05,23.21-23.2V23.21C145.04,8.06,136.98,0,121.84,0M124.25,101.7c0,4.35-2.25,6.44-6.44,6.44h-9.35c-4.19,0-6.45-2.09-6.45-6.44V27.25c0-4.21,2.26-6.45,6.45-6.45h9.35c4.19,0,6.44,2.25,6.44,6.45v74.45Z"/>
          <path class="st6" d="M385.32,62.53V23.21C385.32,8.06,377.27,0,362.12,0h-40.46c-1.61,0-2.57.97-2.57,2.58v62.31h-25.14s-30.3,0-30.3,0V21.27h39.97c1.61,0,2.58-.96,2.58-2.58V2.58c0-1.61-.97-2.58-2.58-2.58h-59.31c-1.77,0-2.58.97-2.58,2.58v62.31h-58.66V21.27h39.97c1.61,0,2.58-.96,2.58-2.58V2.58C225.62.97,224.65,0,223.04,0h-59.31c-1.77,0-2.57.97-2.57,2.58v62.08s-12.18-.2-12.18-.2v21.49s12.18,0,12.18,0v40.39c0,1.62.8,2.58,2.57,2.58h16.76c1.61,0,2.58-.96,2.58-2.58v-40.19h58.66v40.19c0,1.62.8,2.58,2.58,2.58h16.76c1.61,0,2.58-.96,2.58-2.58v-40.19h30.3s25.14,0,25.14,0v40.19c0,1.62.96,2.58,2.57,2.58h16.76c1.61,0,2.58-.96,2.58-2.58v-40.19h11.23s10.68,40.51,10.68,40.51c.32,1.45,1.13,2.26,2.74,2.26h16.76c1.77,0,2.74-.96,2.26-2.9l-11.12-42.22c7.74-3.39,11.76-10.48,11.76-21.27M363.41,58.02c0,4.2-2.25,6.45-6.45,6.45h-15.95V21.27h15.95c4.2,0,6.45,2.26,6.45,6.45v30.29Z"/>
        </g>
        <rect class="st1" x="-7.52" y="-5.65" width="522.87" height="139.85"/>
      </g>
    </g>
    <g>
      <path class="st3" d="M0,154.32h10.09c1.4,0,2.74.13,3.98.39,1.26.26,2.35.7,3.28,1.32.94.63,1.68,1.48,2.22,2.53.55,1.07.83,2.4.83,4.01s-.25,2.92-.77,3.99c-.52,1.06-1.22,1.92-2.11,2.57-.89.63-1.96,1.09-3.18,1.36-1.23.27-2.56.41-3.99.41h-4.37s0,10.58,0,10.58H0v-27.15ZM5.98,165.82h3.99c.54,0,1.05-.05,1.55-.15.5-.1.94-.28,1.34-.52.4-.24.72-.58.96-.99.24-.43.37-.95.37-1.59,0-.7-.17-1.25-.48-1.66-.32-.43-.73-.75-1.23-.99-.5-.22-1.05-.37-1.66-.44-.61-.06-1.2-.1-1.76-.1h-3.07s0,6.44,0,6.44Z"/>
      <path class="st3" d="M30.25,154.32h4.95s11.81,27.15,11.81,27.15h-6.75s-2.34-5.76-2.34-5.76h-10.55s-2.26,5.76-2.26,5.76h-6.59s11.73-27.15,11.73-27.15ZM32.55,162.22l-3.3,8.45h6.64s-3.34-8.45-3.34-8.45Z"/>
      <path class="st3" d="M49.65,154.32h5.98v27.15h-5.98v-27.15Z"/>
      <path class="st3" d="M61.08,154.32h8.12s11.54,18.87,11.54,18.87h.08s0-18.87,0-18.87h5.98v27.15h-7.82s-11.85-19.32-11.85-19.32h-.07s0,19.32,0,19.32h-5.98v-27.15Z"/>
      <path class="st3" d="M103.6,154.32h5.98v27.15h-5.98v-27.15Z"/>
      <path class="st3" d="M128.44,160.96c-.49-.61-1.14-1.07-1.98-1.36-.83-.3-1.62-.45-2.36-.45-.43,0-.88.05-1.34.15-.46.11-.9.27-1.3.48-.41.22-.74.51-1,.86-.26.37-.38.8-.38,1.31,0,.83.3,1.45.92,1.88.61.44,1.39.8,2.32,1.12.93.3,1.94.61,3.01.92,1.07.3,2.07.74,3.01,1.3s1.71,1.32,2.32,2.27c.61.94.92,2.2.92,3.79s-.28,2.82-.84,3.95c-.56,1.12-1.32,2.06-2.28,2.81-.96.73-2.08,1.29-3.34,1.64-1.27.36-2.6.54-4.01.54-1.76,0-3.4-.27-4.91-.8-1.51-.54-2.91-1.4-4.22-2.62l4.26-4.66c.61.81,1.39,1.44,2.32,1.89.93.44,1.9.66,2.9.66.48,0,.98-.05,1.48-.17.5-.12.94-.29,1.34-.52.39-.24.71-.52.96-.88.24-.36.37-.79.37-1.27,0-.82-.31-1.46-.94-1.93-.63-.47-1.42-.88-2.36-1.2-.94-.34-1.97-.66-3.07-1-1.1-.33-2.11-.79-3.06-1.35-.95-.56-1.73-1.3-2.35-2.21-.63-.93-.94-2.15-.94-3.65,0-1.45.29-2.73.86-3.83.58-1.1,1.34-2.03,2.3-2.77.96-.73,2.06-1.3,3.32-1.66,1.25-.37,2.54-.56,3.87-.56,1.53,0,3.01.22,4.45.66,1.43.42,2.72,1.15,3.87,2.18l-4.1,4.49Z"/>
      <path class="st3" d="M146.92,167.9c0-2.18.36-4.15,1.09-5.9.73-1.76,1.75-3.27,3.05-4.51,1.3-1.23,2.84-2.2,4.64-2.86,1.78-.67,3.74-1,5.87-1s4.07.33,5.86,1c1.78.66,3.33,1.63,4.64,2.86,1.3,1.24,2.32,2.75,3.04,4.51.73,1.76,1.1,3.73,1.1,5.9,0,2.17-.37,4.14-1.1,5.9-.72,1.77-1.74,3.27-3.04,4.5-1.31,1.24-2.86,2.2-4.64,2.86-1.79.66-3.75,1-5.86,1-2.13,0-4.08-.34-5.87-1-1.79-.66-3.34-1.62-4.64-2.86-1.31-1.24-2.32-2.74-3.05-4.5-.73-1.76-1.09-3.73-1.09-5.9ZM153.13,167.9c0,1.27.2,2.44.59,3.51.39,1.04.97,1.97,1.71,2.75.74.78,1.63,1.38,2.67,1.82,1.04.44,2.2.65,3.47.65,1.28,0,2.43-.21,3.46-.65,1.04-.44,1.93-1.04,2.66-1.82.75-.78,1.31-1.71,1.71-2.75.4-1.07.59-2.24.59-3.51s-.2-2.42-.59-3.5c-.4-1.07-.96-2-1.71-2.77-.74-.79-1.63-1.39-2.66-1.83-1.03-.44-2.19-.66-3.46-.66s-2.44.22-3.47.66c-1.04.44-1.92,1.04-2.67,1.83-.74.77-1.31,1.7-1.71,2.77-.4,1.08-.59,2.23-.59,3.5Z"/>
      <path class="st3" d="M180.27,154.32h8.13s11.54,18.87,11.54,18.87h.08s0-18.87,0-18.87h5.98v27.15h-7.82s-11.84-19.32-11.84-19.32h-.08s0,19.32,0,19.32h-5.98v-27.15Z"/>
      <path class="st3" d="M211.75,154.32h5.99v21.62s11.08,0,11.08,0v5.52h-17.07v-27.15Z"/>
      <path class="st3" d="M234.52,169.89l-10.19-15.57h7.44s5.75,10.16,5.75,10.16l6.1-10.16h7.09s-10.2,15.57-10.2,15.57v11.58h-5.98v-11.58Z"/>
      <path class="st3" d="M269.3,159.62h-7.75v-5.3h21.47v5.3h-7.75s0,21.85,0,21.85h-5.98v-21.85Z"/>
      <path class="st3" d="M286.28,154.32h18.44v5.52h-12.46s0,5.06,0,5.06h11.77v5.53h-11.77s0,5.51,0,5.51h13.15v5.52h-19.13v-27.15Z"/>
      <path class="st3" d="M310.2,154.32h9.05s6.25,17.71,6.25,17.71h.07s6.29-17.71,6.29-17.71h9.01v27.15h-5.98v-20.83s-.08,0-.08,0l-7.13,20.83h-4.56s-6.86-20.83-6.86-20.83h-.07s0,20.83,0,20.83h-5.98v-27.15Z"/>
      <path class="st3" d="M346.39,154.32h10.09c1.41,0,2.74.13,3.99.39,1.25.26,2.35.7,3.28,1.32.93.63,1.68,1.48,2.22,2.53.55,1.07.83,2.4.83,4.01,0,1.59-.26,2.92-.77,3.99-.51,1.06-1.21,1.92-2.11,2.57-.89.63-1.96,1.09-3.18,1.36-1.23.27-2.57.41-3.99.41h-4.37s0,10.58,0,10.58h-5.99v-27.15ZM352.38,165.82h3.99c.54,0,1.05-.05,1.55-.15.5-.1.94-.28,1.35-.52.39-.24.71-.58.95-.99.25-.43.37-.95.37-1.59,0-.7-.16-1.25-.47-1.66-.32-.43-.73-.75-1.23-.99-.5-.22-1.06-.37-1.67-.44-.62-.06-1.2-.1-1.76-.1h-3.06s0,6.44,0,6.44Z"/>
      <path class="st3" d="M369.1,167.9c0-2.18.36-4.15,1.09-5.9.73-1.76,1.75-3.27,3.05-4.51,1.31-1.23,2.85-2.2,4.64-2.86,1.78-.67,3.74-1,5.86-1,2.12,0,4.08.33,5.87,1,1.79.66,3.33,1.63,4.64,2.86,1.3,1.24,2.32,2.75,3.05,4.51.72,1.76,1.09,3.73,1.09,5.9,0,2.17-.36,4.14-1.09,5.9-.73,1.77-1.75,3.27-3.05,4.5-1.31,1.24-2.85,2.2-4.64,2.86-1.79.66-3.75,1-5.87,1-2.12,0-4.08-.34-5.86-1-1.79-.66-3.34-1.62-4.64-2.86-1.3-1.24-2.32-2.74-3.05-4.5-.73-1.76-1.09-3.73-1.09-5.9ZM375.3,167.9c0,1.27.2,2.44.6,3.51.4,1.04.96,1.97,1.7,2.75.74.78,1.64,1.38,2.67,1.82,1.04.44,2.2.65,3.47.65s2.43-.21,3.47-.65c1.04-.44,1.93-1.04,2.67-1.82.74-.78,1.31-1.71,1.71-2.75.4-1.07.59-2.24.59-3.51,0-1.26-.19-2.42-.59-3.5-.4-1.07-.96-2-1.71-2.77-.74-.79-1.63-1.39-2.67-1.83-1.04-.44-2.2-.66-3.47-.66s-2.44.22-3.47.66c-1.03.44-1.92,1.04-2.67,1.83-.74.77-1.3,1.7-1.7,2.77-.4,1.08-.6,2.23-.6,3.5Z"/>
      <path class="st3" d="M402.45,154.32h10.51c1.38,0,2.69.14,3.93.41,1.24.27,2.33.71,3.25,1.33.94.63,1.68,1.48,2.23,2.53.55,1.06.82,2.39.82,3.97,0,1.92-.49,3.55-1.49,4.89-1,1.34-2.46,2.18-4.37,2.55l6.9,11.46h-7.17s-5.68-10.85-5.68-10.85h-2.95s0,10.85,0,10.85h-5.98v-27.15ZM408.43,165.56h3.53c.54,0,1.11,0,1.7-.05.6-.04,1.15-.16,1.63-.35.48-.2.89-.5,1.21-.9.32-.42.48-.99.48-1.72,0-.71-.14-1.25-.42-1.65-.28-.41-.64-.72-1.07-.94-.43-.22-.94-.36-1.5-.44-.56-.09-1.11-.12-1.65-.12h-3.91s0,6.17,0,6.17Z"/>
      <path class="st3" d="M436.22,154.32h4.95s11.81,27.15,11.81,27.15h-6.75s-2.34-5.76-2.34-5.76h-10.55s-2.26,5.76-2.26,5.76h-6.59s11.73-27.15,11.73-27.15ZM438.53,162.22l-3.3,8.45h6.63s-3.34-8.45-3.34-8.45Z"/>
      <path class="st3" d="M455.7,154.32h10.5c1.38,0,2.69.14,3.93.41,1.24.27,2.33.71,3.26,1.33.93.63,1.67,1.48,2.22,2.53.55,1.06.82,2.39.82,3.97,0,1.92-.49,3.55-1.49,4.89-1,1.34-2.46,2.18-4.37,2.55l6.9,11.46h-7.17s-5.68-10.85-5.68-10.85h-2.95s0,10.85,0,10.85h-5.98v-27.15ZM461.68,165.56h3.53c.54,0,1.1,0,1.7-.05.6-.04,1.15-.16,1.63-.35.48-.2.89-.5,1.21-.9.32-.42.48-.99.48-1.72,0-.71-.13-1.25-.42-1.65-.28-.41-.64-.72-1.07-.94-.44-.22-.94-.36-1.5-.44-.56-.09-1.11-.12-1.65-.12h-3.91s0,6.17,0,6.17Z"/>
      <path class="st3" d="M485.8,169.89l-10.2-15.57h7.44s5.75,10.16,5.75,10.16l6.1-10.16h7.09s-10.2,15.57-10.2,15.57v11.58h-5.98v-11.58Z"/>
    </g>
  </g>
  <text class="st4" transform="translate(495.22 180.73)"><tspan x="0" y="0">TM</tspan></text>
</svg>