<?xml version="1.0" encoding="UTF-8"?>
<svg id="Layer_1" xmlns="http://www.w3.org/2000/svg" version="1.1" viewBox="0 0 1016.07 454.7">
  <!-- Generator: Adobe Illustrator 30.1.0, SVG Export Plug-In . SVG Version: 2.1.1 Build 136)  -->
  <defs>
    <style>
      .st0 {
        fill: none;
      }

      .st1 {
        fill-rule: evenodd;
      }

      .st1, .st2 {
        fill: #fff;
      }

      .st3 {
        fill: #102e3f;
      }

      .st4 {
        fill: #11212e;
      }

      .st5 {
        fill: #faaf43;
      }

      .st6 {
        fill: #10212f;
      }

      .st7 {
        fill: #092230;
      }

      .st8 {
        fill: #e6e7e8;
      }

      .st9 {
        display: none;
      }
    </style>
  </defs>
  <g>
    <g>
      <path class="st2" d="M298.29,449.52c-3.46-3.44-5.19-7.76-5.19-12.94.02-5.07,1.75-9.33,5.2-12.79,3.45-3.46,7.73-5.19,12.83-5.19s9.57,1.61,13.26,4.82l-4.82,5.27c-2.46-1.93-5.27-2.89-8.45-2.89-3.24.02-5.85,1.03-7.83,3.03-1.98,2.01-2.97,4.57-2.97,7.71.02,3.35,1.02,6.02,3.01,7.99,1.99,1.97,4.6,2.96,7.85,2.96s6.04-.95,8.4-2.86l4.82,5.27c-3.68,3.21-8.1,4.82-13.26,4.82-5.1-.02-9.38-1.74-12.84-5.19Z"/>
      <path class="st2" d="M345.37,449.52c-3.45-3.46-5.18-7.75-5.18-12.87s1.73-9.43,5.18-12.88c3.45-3.45,7.74-5.18,12.88-5.18s9.43,1.73,12.88,5.18c3.45,3.45,5.18,7.74,5.18,12.88s-1.73,9.43-5.18,12.87c-3.45,3.45-7.74,5.18-12.88,5.18s-9.43-1.73-12.88-5.19ZM358.28,447.96c3.19,0,5.79-1.08,7.8-3.25,2.01-2.17,3.01-4.85,3.01-8.06s-1-5.9-3.01-8.06c-2.01-2.17-4.62-3.25-7.85-3.25s-5.79,1.09-7.8,3.25c-2.01,2.17-3.01,4.85-3.01,8.06s1,5.9,3.01,8.06c2.01,2.17,4.62,3.25,7.85,3.25Z"/>
      <path class="st2" d="M391.54,454.7v-36.11h2.41l22.63,22.63v-22.63h7.22v36.11h-2.65l-22.38-22.38v22.38h-7.22Z"/>
      <path class="st2" d="M460.68,419.8c1.85.8,3.57,2.01,5.18,3.61l-4.82,4.82c-1.6-1.93-3.85-2.89-6.74-2.89s-4.74.68-5.54,2.05c-.8,1.37-.8,2.53,0,3.49.8.96,2.65,1.69,5.54,2.17,3.05.32,5.82,1.33,8.3,3.01,2.49,1.68,3.73,4.37,3.73,8.06,0,2.89-1.33,5.38-3.98,7.46-2.66,2.08-5.75,3.13-9.28,3.13s-6.16-.48-8.4-1.44c-2.25-.96-4.17-2.25-5.78-3.85l4.82-4.82c1.6,1.93,4.33,3.05,8.18,3.37,3.21,0,5.21-.68,6.01-2.05.79-1.36.79-2.73,0-4.09-.79-1.36-2.8-2.21-6.01-2.53-2.89-.32-5.54-1.2-7.94-2.64-2.41-1.45-3.61-3.93-3.61-7.46,0-3.19,1.37-5.75,4.1-7.69,2.74-1.93,5.55-2.9,8.44-2.9,3.35,0,5.95.4,7.8,1.21Z"/>
      <path class="st2" d="M489.32,418.6v20.94c0,2.73.8,4.73,2.41,6.02,1.6,1.29,3.61,1.93,6.02,1.93s4.41-.64,6.02-1.93c1.61-1.28,2.41-3.29,2.41-6.02v-20.94h7.22v22.87c0,3.69-1.49,6.82-4.45,9.39-2.97,2.57-6.7,3.85-11.19,3.85s-8.22-1.28-11.19-3.85c-2.97-2.57-4.45-5.7-4.45-9.39v-22.87h7.22Z"/>
      <path class="st2" d="M538.34,418.6v29.37h19.25v6.74h-26.48v-36.11h7.22Z"/>
      <path class="st2" d="M602.86,418.6v6.74h-12.04v29.37h-7.22v-29.37h-12.03v-6.74h31.29Z"/>
      <path class="st2" d="M618.09,418.57h7.2v36.13h-7.2v-36.13Z"/>
      <path class="st2" d="M642.39,454.7v-36.11h2.41l22.63,22.63v-22.63h7.22v36.11h-2.65l-22.38-22.38v22.38h-7.22Z"/>
      <path class="st2" d="M695.23,449.52c-3.46-3.44-5.19-7.76-5.19-12.94.01-5.07,1.75-9.33,5.2-12.79,3.45-3.46,7.73-5.19,12.83-5.19s9.57,1.61,13.27,4.82l-4.82,5.27c-2.46-1.93-5.27-2.89-8.45-2.89-3.24.02-5.85,1.03-7.83,3.03-1.98,2.01-2.97,4.57-2.97,7.71.02,3.35,1.02,6.02,3.01,7.99,1.99,1.97,4.6,2.96,7.85,2.96,2.6,0,4.6-.51,5.99-1.54v-6.19l-4.82.02v-6.74h12.04v16.85c-3.67,3.21-8.1,4.82-13.27,4.82-5.1-.02-9.38-1.74-12.84-5.19Z"/>
    </g>
    <g>
      <g>
        <g>
          <path class="st2" d="M9.68,314.36v-20.4h1.36l12.79,12.78v-12.78h4.08v20.4h-1.5l-12.65-12.65v12.65h-4.08Z"/>
          <path class="st2" d="M28.26,314.72h-2l-.11-.1-12.04-12.04v12.14h-4.8v-21.12h1.87l.11.1,12.17,12.17v-12.27h4.8v21.12ZM26.56,314h.99v-19.68h-3.36v13.29l-13.29-13.29h-.85v19.68h3.36v-13.16l13.16,13.16Z"/>
        </g>
        <g>
          <path class="st2" d="M9.68,347.78v-20.4h4.08v8.16h9.51v-8.18h4.08v20.4h-4.08s0-8.42,0-8.42h-9.51v8.43h-4.08Z"/>
          <path class="st2" d="M22.91,348.14v-8.44h-8.79v8.43h-4.8v-21.12h4.8v8.16h8.79v-8.17h4.8v21.12l-4.8.02ZM10.04,347.42h3.36v-8.43h10.23v8.43h3.36v-19.69h-3.36v8.17h-10.23v-8.16h-3.36v19.68Z"/>
        </g>
      </g>
      <g>
        <g>
          <path class="st2" d="M991.16,293.95v11.83c0,1.54.45,2.67,1.36,3.4.9.73,2.04,1.09,3.4,1.09s2.49-.36,3.4-1.09c.9-.73,1.36-1.86,1.36-3.4v-11.83h4.08v12.92c0,2.08-.84,3.85-2.52,5.3-1.68,1.45-3.79,2.18-6.33,2.18s-4.65-.72-6.32-2.18c-1.68-1.45-2.52-3.22-2.52-5.3v-12.92h4.08Z"/>
          <path class="st2" d="M995.92,314.72c-2.62,0-4.82-.76-6.56-2.26-1.75-1.51-2.64-3.39-2.64-5.58v-13.28h4.8v12.19c0,1.44.4,2.46,1.23,3.12.83.67,1.9,1.01,3.17,1.01s2.34-.34,3.18-1.01c.81-.65,1.23-1.7,1.23-3.12v-12.19h4.8v13.28c0,2.18-.89,4.06-2.64,5.58-1.74,1.5-3.95,2.26-6.57,2.26ZM987.44,294.31v12.56c0,2,.78,3.64,2.39,5.03,1.6,1.39,3.65,2.09,6.09,2.09s4.49-.7,6.09-2.09c1.59-1.37,2.39-3.07,2.39-5.03v-12.56h-3.36v11.47c0,1.64-.5,2.88-1.5,3.68-.97.77-2.19,1.17-3.63,1.17s-2.66-.39-3.62-1.17c-.99-.79-1.5-2.03-1.5-3.68v-11.47h-3.36Z"/>
        </g>
        <g>
          <path class="st2" d="M998.44,328.06c1.05.46,2.02,1.13,2.92,2.04l-2.72,2.72c-.91-1.09-2.18-1.63-3.81-1.63s-2.67.38-3.13,1.15c-.45.77-.45,1.43,0,1.97.46.54,1.5.95,3.13,1.22,1.72.18,3.29.75,4.69,1.7,1.4.95,2.11,2.47,2.11,4.56,0,1.63-.75,3.04-2.25,4.21-1.5,1.18-3.25,1.77-5.24,1.77s-3.48-.27-4.75-.81c-1.27-.55-2.36-1.27-3.26-2.18l2.72-2.72c.91,1.09,2.45,1.72,4.63,1.9,1.81,0,2.95-.39,3.39-1.16.45-.77.45-1.54,0-2.31-.45-.77-1.58-1.25-3.39-1.43-1.63-.18-3.13-.68-4.49-1.49-1.36-.82-2.04-2.22-2.04-4.22,0-1.8.78-3.25,2.32-4.35,1.54-1.09,3.13-1.64,4.76-1.64,1.9,0,3.36.23,4.41.68Z"/>
          <path class="st2" d="M994.14,348.14c-1.94,0-3.58-.28-4.89-.84-1.32-.57-2.45-1.32-3.38-2.26l-.25-.26,3.25-3.25.25.3c.84,1.01,2.32,1.6,4.38,1.78,1.64,0,2.68-.33,3.05-.98.38-.65.38-1.29,0-1.95-.39-.66-1.44-1.08-3.12-1.25-1.68-.19-3.24-.71-4.64-1.54-1.47-.88-2.22-2.41-2.22-4.53,0-1.92.83-3.48,2.47-4.64,1.59-1.13,3.27-1.71,4.97-1.71,1.93,0,3.46.24,4.55.71h0c1.09.48,2.11,1.19,3.04,2.12l.25.26-3.25,3.25-.25-.3c-.84-1.01-2-1.5-3.53-1.5s-2.44.33-2.82.98c-.49.84-.26,1.29-.03,1.56.27.33,1,.78,2.91,1.1,1.75.18,3.39.78,4.84,1.76,1.5,1.02,2.27,2.65,2.27,4.86,0,1.74-.8,3.25-2.39,4.5-1.56,1.23-3.4,1.85-5.46,1.85ZM986.64,344.78c.81.75,1.78,1.38,2.89,1.85,1.21.52,2.76.79,4.6.79s3.59-.57,5.02-1.69c1.42-1.12,2.11-2.4,2.11-3.93,0-1.97-.64-3.37-1.95-4.26-1.35-.91-2.88-1.47-4.53-1.64-1.75-.29-2.85-.73-3.37-1.35-.38-.46-.7-1.25-.04-2.39.52-.88,1.68-1.33,3.44-1.33,1.58,0,2.87.49,3.82,1.47l2.19-2.2c-.79-.74-1.65-1.32-2.56-1.71h0c-.99-.43-2.43-.65-4.26-.65-1.55,0-3.08.53-4.55,1.58-1.46,1.03-2.17,2.36-2.17,4.05,0,1.87.61,3.15,1.87,3.91,1.31.78,2.77,1.27,4.34,1.45,1.95.19,3.15.72,3.67,1.6.51.89.51,1.79,0,2.67-.52.9-1.74,1.34-3.71,1.34-2.09-.17-3.64-.76-4.64-1.74l-2.19,2.19Z"/>
        </g>
      </g>
      <g>
        <path class="st2" d="M93.26,312.53c0,.83,2.26,1.55,5,1.55h27.04c2.86,0,4.52,2.14,3.69,4.76l-2.02,7.62c-.71,2.74-3.57,4.88-6.31,4.88h-22.39c-2.74,0-5,2.27-5,5v5c0,2.74.6,7.15,1.43,9.77l1.79,5.36c.83,2.62-.71,4.76-3.57,4.76h-21.09c-2.74,0-4.29-2.14-3.45-4.76l1.67-5.12c.83-2.62,1.55-7.03,1.55-9.77v-40.98c0-2.74-.6-7.15-1.31-9.89l-2.14-7.62c-.71-2.62.95-4.77,3.69-4.77h58.73c.95,0,2.26,2.14,3.1,4.77l2.98,11.2c.71,2.74-.83,4.41-3.57,3.93l-8.81-1.67c-2.62-.59-7.15-.95-9.89-.95h-18.82c-1.19,0-2.26,2.26-2.26,5v11.91Z"/>
        <path class="st2" d="M216.9,346.59h-25.85c-2.74,0-5.48,2.14-6.19,4.88l-1.07,4.88c-.71,2.74-3.45,4.88-6.19,4.88h-16.91c-2.74,0-3.93-1.9-2.5-4.29l3.57-6.07c1.43-2.38,3.45-6.31,4.53-8.93l25.37-58.97c1.07-2.62,4.17-4.65,7.03-4.65h12.15c2.74,0,5.84,2.03,6.91,4.65l24.78,58.97c1.07,2.5,3.1,6.55,4.41,8.93l3.57,6.07c1.43,2.39.24,4.29-2.5,4.29h-18.7c-2.74,0-5.36-2.26-5.84-5l-.71-4.76c-.48-2.74-3.1-4.88-5.84-4.88ZM213.68,325.39l-7.74-20.25c-.95-2.62-2.62-2.62-3.57,0l-7.98,20.25c-1.07,2.5.36,4.65,3.22,4.65h12.87c2.74,0,4.17-2.14,3.22-4.65Z"/>
        <path class="st2" d="M322.55,338.25h-9.89c-2.74,0-5,1.91-5,4.17s.71,6.19,1.55,8.82l1.67,5.24c.83,2.62-.71,4.76-3.57,4.76h-21.09c-2.74,0-4.29-2.14-3.45-4.76l1.67-5.24c.83-2.62,1.55-7.03,1.55-9.77v-40.86c0-2.74-.6-7.15-1.31-9.77l-2.14-7.62c-.71-2.74.95-4.88,3.69-4.88h37.05c22.04,0,34.55,10.6,34.55,29.07,0,10.6-3.69,18.82-10.6,24.06-2.14,1.67-3.34,4.76-1.79,7.15,1.91,2.86,4.76,6.55,8.46,8.1,2.5.95,5,2.86,4.05,5.48-1.79,4.88-6.43,9.05-13.34,9.05-17.39,0-15.37-22.99-22.04-22.99ZM312.66,320.98h10.72c8.7,0,13.82-4.41,13.82-12.86s-5.12-12.51-13.82-12.51h-10.72c-2.74,0-5,2.26-5,5v15.37c0,2.86,2.26,5,5,5Z"/>
        <path class="st2" d="M422.72,282.86l17.87,39.31c1.19,2.5,2.98,2.5,4.17,0l17.87-39.31c1.07-2.5,4.29-4.53,7.03-4.53h18.34c2.86,0,4.41,2.14,3.7,4.77l-2.03,7.62c-.71,2.74-1.31,7.15-1.31,9.89v38.95c0,2.74.6,7.15,1.31,9.76l2.03,7.03c.71,2.74-.84,4.88-3.7,4.88h-18.58c-2.74,0-4.41-2.14-3.69-4.88l2.02-7.15c.71-2.62,1.31-7.03,1.31-9.77v-25.73c0-2.74-.95-2.98-2.03-.36l-15.25,35.02c-1.19,2.5-4.29,4.53-7.03,4.53h-4.17c-2.74,0-5.96-2.02-7.03-4.53l-15.25-35.02c-1.19-2.62-2.03-2.38-2.03.36v42.53c0,2.74-2.26,5-5,5h-14.06c-2.74,0-4.41-2.14-3.57-4.76l2.02-7.15c.71-2.74,1.31-7.03,1.31-9.89v-38.83c0-2.74-.6-7.15-1.31-9.89l-2.14-7.62c-.71-2.62.95-4.77,3.69-4.77h18.47c2.74,0,5.84,2.03,7.03,4.53Z"/>
        <path class="st2" d="M560.53,283.1l-2.14,7.62c-.71,2.74-1.31,7.15-1.31,9.89v37.17c0,2.74,2.26,5,5,5h9.53c2.74,0,7.15-.59,9.77-1.43l7.38-2.26c2.62-.84,4.29.71,3.57,3.33l-3.57,13.94c-.71,2.74-3.45,4.88-6.31,4.88h-46.7c-2.74,0-4.41-2.14-3.81-4.88l2.27-8.7c.71-2.74,1.31-7.15,1.31-9.89v-37.17c0-2.74-.59-7.15-1.43-9.89l-2.02-7.62c-.71-2.62.95-4.77,3.69-4.77h21.08c2.74,0,4.41,2.14,3.7,4.77Z"/>
        <path class="st2" d="M677.14,346.59h-25.85c-2.74,0-5.48,2.14-6.19,4.88l-1.07,4.88c-.72,2.74-3.45,4.88-6.19,4.88h-16.91c-2.74,0-3.93-1.9-2.5-4.29l3.57-6.07c1.43-2.38,3.45-6.31,4.53-8.93l25.37-58.97c1.07-2.62,4.17-4.65,7.03-4.65h12.15c2.74,0,5.84,2.03,6.91,4.65l24.78,58.97c1.07,2.5,3.1,6.55,4.41,8.93l3.57,6.07c1.43,2.39.24,4.29-2.5,4.29h-18.7c-2.74,0-5.36-2.26-5.84-5l-.71-4.76c-.48-2.74-3.1-4.88-5.84-4.88ZM673.92,325.39l-7.74-20.25c-.95-2.62-2.62-2.62-3.58,0l-7.98,20.25c-1.07,2.5.35,4.65,3.21,4.65h12.87c2.74,0,4.17-2.14,3.22-4.65Z"/>
        <path class="st2" d="M768.26,282.27l31.57,41.93c1.67,2.26,3.1,1.79,3.1-.95v-22.63c0-2.74-.6-7.15-1.31-9.89l-2.14-7.62c-.71-2.62.95-4.77,3.69-4.77h19.54c2.74,0,4.41,2.14,3.69,4.77l-2.02,7.62c-.84,2.74-1.43,7.15-1.43,9.89v38.83c0,2.74.71,7.15,1.43,9.89l2.02,7.03c.71,2.74-.95,4.88-3.69,4.88h-13.58c-2.86,0-6.43-1.79-8.1-4.05l-31.57-41.69c-1.67-2.14-2.98-1.67-2.98,1.07v22.87c0,2.74.59,7.15,1.31,9.77l2.02,7.15c.71,2.74-.83,4.88-3.69,4.88h-19.65c-2.74,0-4.41-2.14-3.57-4.88l2.02-7.15c.71-2.62,1.31-7.03,1.31-9.77v-38.83c0-2.86-.59-7.27-1.31-9.89l-2.14-7.62c-.71-2.62.96-4.77,3.7-4.77h13.82c2.74,0,6.31,1.79,7.98,3.93Z"/>
        <path class="st2" d="M905.12,361.24h-34.55c-2.86,0-4.53-2.14-3.81-4.88l2.14-7.74c.71-2.74,1.31-7.15,1.31-9.89v-37.76c0-2.74-.59-7.15-1.31-9.89l-2.14-7.86c-.72-2.74.96-4.88,3.81-4.88h35.38c26.33,0,44.08,16.8,44.08,41.34s-17.99,41.57-44.91,41.57ZM905.48,295.97h-8.58c-2.74,0-5,2.26-5,5v37.76c0,2.74,2.26,5,5,5h9.65c12.51,0,21.45-9.53,21.45-23.83s-9.41-23.94-22.51-23.94Z"/>
      </g>
    </g>
    <g>
      <path class="st2" d="M430.81,174.55c-.51,0-1-.18-1.39-.51-.49-.42-.76-1.02-.75-1.66l1.07-62.87-3.85.82c-1.04.21-2.08-.35-2.45-1.35-.37-.99.04-2.11.97-2.62l31.4-17.43,32.23-37.5c.42-.49,1.13-.76,1.69-.74.65.02,1.25.33,1.64.84l39.58,51.8c.49.65.58,1.52.22,2.25-.36.73-1.1,1.19-1.92,1.19h-5l.02,49.78c0,1.04-.75,1.93-1.78,2.11l-91.3,15.87c-.12.02-.24.03-.37.03ZM433.88,106c.12.28.19.59.18.9l-1.07,62.96,86.98-15.11-.02-50.12c0-.57.23-1.11.63-1.51.4-.4.95-.63,1.51-.63h2.81l-35.35-46.26-30.76,35.79c-.17.19-.36.35-.59.48l-24.34,13.5Z"/>
      <path class="st2" d="M470.48,165.31l.58-58.97,36.76.9-.58,52.2-36.76,5.87ZM475.31,110.73l-.49,49.55,28.19-4.5.49-44.36-28.19-.69ZM505.13,157.61h.02-.02Z"/>
      <polygon class="st2" points="459.77 116.66 442.64 115.85 442.36 169.02 459.57 164.33 459.77 116.66"/>
      <g>
        <polygon class="st0" points="481.34 93.76 481.55 75.34 495.84 75.72 495.62 94.15 481.34 93.76"/>
        <path class="st2" d="M482.23,76.04l12.91.35-.2,17.05-12.91-.35.2-17.05M480.87,74.63l-.02,1.4-.2,17.05-.02,1.36,1.36.04,12.91.35,1.4.04.02-1.4.2-17.05.02-1.36-1.36-.04-12.91-.35-1.4-.04h0Z"/>
      </g>
      <path class="st2" d="M505.13,159.75c-.7,0-1.38-.34-1.79-.97l-30.47-46.59c-.65-.99-.37-2.32.62-2.96.99-.65,2.32-.37,2.96.62l30.47,46.59c.65.99.37,2.32-.62,2.96-.36.24-.77.35-1.17.35Z"/>
      <path class="st2" d="M472.65,164.94c-.38,0-.77-.1-1.12-.32-1.01-.62-1.32-1.94-.7-2.95l31.95-51.78c.62-1.01,1.93-1.32,2.95-.7,1.01.62,1.32,1.94.7,2.95l-31.95,51.78c-.4.66-1.11,1.02-1.82,1.02Z"/>
      <path class="st2" d="M547.71,55.27h-57.82c-1.18,0-2.14-.96-2.14-2.14s.96-2.14,2.14-2.14h57.82c1.18,0,2.14.96,2.14,2.14s-.96,2.14-2.14,2.14Z"/>
      <path class="st2" d="M662.19,106.4h0l-132.58-.12c-1.18,0-2.14-.96-2.14-2.14,0-1.18.96-2.14,2.14-2.14h0l132.58.12c1.18,0,2.14.96,2.14,2.14,0,1.18-.96,2.14-2.14,2.14Z"/>
      <path class="st5" d="M523.82,157.27c-.44,0-.83-.31-.92-.75-.11-.51.22-1,.73-1.11.53-.11,53.25-10.73,119.41-2,.51.07.87.54.81,1.05-.07.52-.56.87-1.05.81-65.82-8.68-118.26,1.87-118.78,1.98-.06.01-.13.02-.19.02Z"/>
      <path class="st2" d="M662.12,106.4c-.63,0-1.24-.27-1.67-.8l-41.28-51.13c-.74-.92-.6-2.27.32-3.01.92-.75,2.27-.6,3.01.32l41.28,51.13c.74.92.6,2.27-.32,3.01-.4.32-.87.48-1.34.48Z"/>
      <g>
        <path class="st0" d="M729.83,186.63s-54.79-65.74-276.92-17.93c-222.14,47.81-128.5,11.95-128.5,11.95"/>
        <path class="st2" d="M311.88,198.92c-8.67,0-11.13-1.96-12.16-5.41-1.18-3.97-.49-8.94,22.77-17.85,2.78-1.06,5.86.32,6.91,3.08,1.06,2.76-.32,5.86-3.08,6.91-1.69.65-3.4,1.35-5.05,2.06,16.61-1.68,52.64-7.48,130.51-24.24,222.75-47.95,279.84,16.95,282.16,19.74,1.89,2.27,1.58,5.65-.69,7.54-2.26,1.89-5.62,1.59-7.52-.66-.69-.79-56.86-62.4-271.71-16.15-53.65,11.55-93.42,19.18-118.22,22.7-11.02,1.56-18.64,2.29-23.94,2.29Z"/>
      </g>
      <path class="st2" d="M557.74,43.44h-17.8c-1.18,0-2.14-.96-2.14-2.14s.96-2.14,2.14-2.14h17.8c1.18,0,2.14.96,2.14,2.14s-.96,2.14-2.14,2.14Z"/>
      <path class="st2" d="M620.84,55.27h-37.16c-1.18,0-2.14-.96-2.14-2.14s.96-2.14,2.14-2.14h37.16c1.18,0,2.14.96,2.14,2.14s-.96,2.14-2.14,2.14Z"/>
      <path class="st2" d="M539.94,54.56c-1.18,0-2.14-.96-2.14-2.14v-8.97h-4.14c-.83,0-1.59-.49-1.94-1.24-.35-.76-.23-1.65.31-2.29l15.93-16.36c.77-.9,2.12-1.01,3.02-.24.9.77,1.01,2.12.24,3.02l-12.93,12.83h1.64c1.18,0,2.14.96,2.14,2.14v11.12c0,1.18-.96,2.14-2.14,2.14Z"/>
      <g>
        <polygon class="st2" points="548.84 23.48 560.28 41.3 591.02 41.3 579.32 23.48 548.84 23.48"/>
        <path class="st2" d="M591.02,41.98h-30.75c-.23,0-.45-.12-.57-.31l-11.44-17.82c-.13-.21-.14-.47-.03-.69.12-.22.35-.35.59-.35h30.49c.23,0,.44.12.56.31l11.7,17.82c.14.21.15.47.03.69-.12.22-.35.36-.6.36ZM560.64,40.63h29.13l-10.81-16.47h-28.88l10.57,16.47Z"/>
      </g>
      <path class="st2" d="M563.73,22.28h0c-.21,0-.39-.18-.38-.39l.04-8.85c0-.21.17-.39.39-.39h0c.21,0,.39.18.38.39l-.04,8.85c0,.21-.17.39-.39.39Z"/>
      <g>
        <path class="st1" d="M562.02,14.27l-3.94-2.29-1.06-1.47-.33-1.59s.48-2.02-.04-2.68c-.12-.15-.28-.22-.47-.22-.67,0-2.24-1.89-2.24-2.69,0-.1.03-.18.08-.23.06-.06.16-.08.29-.08.15,0,.33.03.55.1.34.1.7.15,1.1.15.59,0,1.17-.11,1.63-.2.34-.07.63-.12.85-.12.12,0,.21.02.27.05.15.09-.1.91-.22,1.3-.07.24-.14.46-.17.62-.31,1.52.52,3.28,1.46,3.9l.72.48-.15.07.09.21c.11-.05.21-.09.3-.14.61-.3.98-.57,1.25-.76.26-.19.43-.31.6-.31.28,0,.67.31,1.62,1.19.37.34.7.51.99.51.21,0,.39-.08.54-.25.73-.77.67-3.18.65-3.7l6.39-1.62-4.86,3.44-3.03,6.37-1.54.07.23,1.22-1.55-1.33Z"/>
        <path class="st2" d="M558.44,3.05c.11,0,.16.02.18.02,0,0,0,0,0,0,.07.15-.15.85-.25,1.19-.07.24-.14.46-.18.63-.32,1.57.54,3.38,1.51,4.02l.61.4.16.36c.11-.05.21-.09.3-.14l.05-.02.38-.17h-.02c.39-.23.66-.43.87-.58.26-.19.4-.29.53-.29.25,0,.67.36,1.54,1.16.39.37.74.54,1.07.54.24,0,.45-.1.63-.28.72-.76.71-2.98.69-3.69l5.69-1.45-4.35,3.08-.05.04-.03.06-2.96,6.26-1.34.06h-.27s.05.27.05.27l.14.76-1.3-1.11h-.02s-.02-.02-.02-.02l-3.88-2.25-1.04-1.43-.33-1.53c.08-.37.44-2.13-.08-2.78-.14-.18-.33-.27-.56-.27-.36,0-1.28-.82-1.83-1.77-.28-.48-.34-.81-.27-.93.04-.06.14-.07.23-.07.14,0,.31.03.52.1.35.11.72.16,1.14.16.6,0,1.19-.11,1.65-.21.33-.07.62-.12.83-.12h0M558.44,2.82c-.54,0-1.48.33-2.48.33-.35,0-.71-.04-1.07-.15-.24-.07-.43-.11-.59-.11-1.52,0,.91,3.23,1.87,3.23,1.06,0,.4,2.81.4,2.81l.35,1.63,1.1,1.51,3.93,2.28,1.8,1.54-.26-1.41,1.47-.07,3.02-6.39,5.38-3.8-7.09,1.8s.21,3.92-1.08,3.92c-.25,0-.55-.14-.91-.48-.97-.89-1.37-1.22-1.7-1.22-.41,0-.71.51-1.86,1.07h0s-.05.02-.05.02c-.09.04-.19.09-.29.13l.29-.13s.03-.02.05-.02c0,0-.07-.04-.89-.59-.89-.59-1.72-2.29-1.41-3.78.12-.56.66-1.84.35-2.04-.08-.05-.19-.07-.33-.07h0Z"/>
      </g>
      <path class="st2" d="M488.59,94.15c-1.18,0-2.14.29-2.14-.89v-17.09c0-1.18.96-.83,2.14-.83s2.14-.35,2.14.83v17.09c0,1.18-.96.89-2.14.89Z"/>
      <g>
        <path class="st8" d="M571.59,17.46h-16.47c-.26,0-.47-.21-.47-.47s.21-.47.47-.47h16.47c.26,0,.47.21.47.47s-.21.47-.47.47Z"/>
        <line class="st2" x1="555.12" y1="16.99" x2="571.59" y2="16.99"/>
      </g>
      <path class="st2" d="M364.02,216.08c-1.35-6.88,5.29-15.21,1.06-21.1,4.38,5.77-2.06,14.17-.54,21,0,0,1.48,1.16,1.48,1.16l-2-1.05Z"/>
      <path class="st2" d="M362.87,215.32c-1.64-8.25,3.06-15.89-2.03-22.93,2.69,3.36,2,1.89,3,6.01.98,4.17-1.31,12.65-.46,16.82l4.36,1.56-4.86-1.46Z"/>
      <path class="st2" d="M362.87,215.7c1.43-5.87,4.25-11.4,8.2-15.91-3.81,4.64-6.42,10.21-7.66,16.04l-.55-.12h0Z"/>
      <path class="st3" d="M349.29,217.3c.28-8.28-1.01-17.26,2.83-24.93-3.62,7.78-2.08,16.63-2.13,24.94,0,0-.69,0-.69,0h0Z"/>
      <path class="st5" d="M350.6,215.81c-1.53-8.05-5.4-15.79-11.42-21.43,6.18,5.53,10.22,13.25,11.93,21.33,0,0-.51.1-.51.1h0Z"/>
      <path class="st5" d="M353.87,216.52c1.26-5.15,3.72-9.99,7.19-13.95-3.34,4.07-5.63,8.95-6.71,14.06l-.48-.11h0Z"/>
      <path class="st2" d="M654.1,152.17c-.52,0-.94-.42-.94-.94v-45.35c0-.52.42-.94.94-.94s.94.42.94.94v45.35c0,.52-.42.94-.94.94Z"/>
      <path class="st2" d="M543.31,105.64c-.63,0-1.25-.27-1.67-.8l-40.3-50.35c-.74-.92-.59-2.27.33-3.01.93-.74,2.27-.59,3.01.33l40.3,50.35c.74.92.59,2.27-.33,3.01-.4.32-.87.47-1.34.47Z"/>
      <path class="st2" d="M559.05,104.92c-.63,0-1.24-.27-1.67-.8l-38.84-48.06c-.74-.92-.6-2.27.32-3.01.92-.74,2.27-.6,3.01.32l38.84,48.06c.74.92.6,2.27-.32,3.01-.4.32-.87.48-1.34.48Z"/>
      <path class="st2" d="M575.34,106.37c-.63,0-1.24-.27-1.67-.8l-41.44-51.29c-.74-.92-.6-2.27.32-3.01.92-.74,2.27-.6,3.01.32l41.44,51.29c.74.92.6,2.27-.32,3.01-.4.32-.87.48-1.34.48Z"/>
      <path class="st2" d="M588.19,104.72c-.63,0-1.24-.27-1.67-.8l-40.13-49.66c-.74-.92-.6-2.27.32-3.01.92-.74,2.27-.6,3.01.32l40.13,49.66c.74.92.6,2.27-.32,3.01-.4.32-.87.48-1.34.48Z"/>
      <path class="st2" d="M604.59,106.37c-.63,0-1.24-.27-1.67-.8l-33.48-40.61c-.74-.92-.6-2.27.32-3.01.92-.74,2.27-.6,3.01.32l33.48,40.61c.74.92.6,2.27-.32,3.01-.4.32-.87.48-1.34.48Z"/>
      <path class="st2" d="M618.82,106.37c-.63,0-1.24-.27-1.67-.8l-35.5-42.75c-.74-.92-.6-2.27.32-3.01.92-.74,2.27-.6,3.01.32l35.5,42.75c.74.92.6,2.27-.32,3.01-.4.32-.87.48-1.34.48Z"/>
      <path class="st2" d="M633.34,106.23c-.63,0-1.24-.27-1.67-.8l-40.51-50.14c-.74-.92-.6-2.27.32-3.01.92-.74,2.27-.6,3.01.32l40.51,50.14c.74.92.6,2.27-.32,3.01-.4.32-.87.48-1.34.48Z"/>
      <g>
        <rect class="st0" x="557.74" y="41.3" width="25.35" height="21.92"/>
        <path class="st2" d="M583.08,65.37h-25.35c-1.18,0-2.14-.96-2.14-2.14v-21.92c0-1.18.96-2.14,2.14-2.14h25.35c1.18,0,2.14.96,2.14,2.14v21.92c0,1.18-.96,2.14-2.14,2.14ZM559.88,61.08h21.06v-17.64h-21.06v17.64Z"/>
      </g>
      <g>
        <polygon class="st2" points="543.84 128.5 543.71 118.05 554.02 118.05 554.02 128.59 543.84 128.5"/>
        <path class="st2" d="M553.8,118.27v10.09l-9.74-.09-.13-10h9.86M554.24,117.83h-10.75v.45s.13,10,.13,10v.43s.44,0,.44,0l9.74.09h.44s0-.44,0-.44v-10.53h0Z"/>
      </g>
      <polygon class="st2" points="583.9 128.5 583.77 118.05 594.08 118.05 594.08 128.59 583.9 128.5"/>
      <g>
        <polygon class="st2" points="623.96 128.5 623.83 118.05 634.14 118.05 634.14 128.59 623.96 128.5"/>
        <path class="st2" d="M633.91,118.27v10.09l-9.74-.09-.13-10h9.86M634.36,117.83h-10.75v.45s.13,10,.13,10v.43s.44,0,.44,0l9.74.09h.44s0-.44,0-.44v-10.53h0Z"/>
      </g>
      <path class="st2" d="M648.33,106.23c-.63,0-1.24-.27-1.67-.8l-40.51-50.14c-.74-.92-.6-2.27.32-3.01.92-.74,2.27-.6,3.01.32l40.51,50.14c.74.92.6,2.27-.32,3.01-.4.32-.87.48-1.34.48Z"/>
      <g>
        <g>
          <g>
            <path class="st4" d="M612.3,144.3c-1.79,4.11,8.48,5.42,12.2,5.48,3.81-.51,21.85,1.53,20.77-1.23-.78-1.97.81-13.14-3.59-12.78-4.4.36-10.97,1.12-16.71,2.06-5.79,1.04-12.7,6.57-12.67,6.48Z"/>
            <path class="st2" d="M638.95,152.16c-1.94,0-4.33-.07-7.29-.18-2.85-.11-5.79-.22-6.87-.08l-.16.02h-.16c-.11,0-11.11-.21-13.85-4.47-.78-1.21-.88-2.64-.28-4.01l1.07-2.46.91.67c5.85-4.12,9.88-5.51,12.27-5.94,6.27-1.03,13.02-1.76,16.91-2.08,1.2-.11,2.3.27,3.18,1.06,2.29,2.07,2.37,6.43,2.44,10.28.02,1.04.05,2.46.15,2.85.32.82.22,1.74-.32,2.49-.98,1.38-2.98,1.85-8.02,1.85ZM643.27,149.32s0,0,0,0c0,0,0,0,0,0ZM626.49,147.55c1.43,0,3.25.07,5.34.15,3.19.12,8.75.34,11.12,0-.06-.69-.08-1.54-.1-2.65-.03-1.77-.13-6.48-1.04-7.19-3.76.35-10.38,1.07-16.49,2.07-1.98.36-5.5,1.61-10.92,5.5,1.01.9,5.65,2.11,9.99,2.2.55-.06,1.26-.09,2.1-.09Z"/>
          </g>
          <g>
            <path class="st4" d="M708.94,157.32c.55,9.44-9.18,10.91-12.52,9.6-3.27-1.55-16.77-9-15.71-11.11,1.24-2.47-2.89-13.67,1.32-13.03,4.24.59,10.53,1.67,15.97,2.87,5.56,1.02,11.01,11.57,10.94,11.67Z"/>
            <path class="st2" d="M699.03,169.48c-1.29,0-2.47-.2-3.4-.56-.28-.13-15.5-7.63-16.95-11.85-.26-.76-.22-1.55.12-2.21.15-.54-.17-2.78-.38-4.27-.52-3.69-1.01-7.17.82-8.98.79-.79,1.9-1.12,3.11-.94,3.7.51,10.16,1.58,16.12,2.9,6.82,1.25,12.39,12.77,12.44,12.88l.44,1.09-.24.38c.06,4.9-2.31,7.68-4.36,9.17-2.3,1.66-5.21,2.4-7.71,2.4ZM682.93,155.92c1.74,2.04,10.4,7.16,14.4,9.06,1.07.42,4.46.39,6.89-1.38,1.78-1.29,2.65-3.24,2.59-5.8-1.01-2.05-5.52-9.37-9.2-10.05-5.64-1.25-11.66-2.26-15.36-2.79-.13,1.16.22,3.6.41,5.01.38,2.67.61,4.54.27,5.94ZM682.63,156.77s0,0,0,0c0,0,0,0,0,0Z"/>
          </g>
          <g>
            <path class="st4" d="M658.89,144.74c-10.8,7.26,7.67,9.6,10.49,10.38,3.06.12,15.54,9.21,13.69-2.73-.41-2.34,3.05-10.7-.43-10.98-3.49-.26-8.7-.53-13.28-.62-4.61-.04-10.49,3.99-10.46,3.95Z"/>
            <path class="st2" d="M680.02,160.68c-2.51,0-5.38-1.25-7.84-2.31-1.04-.45-2.46-1.07-2.91-1.11l-.47-.08c-.33-.09-.91-.21-1.64-.36-6.47-1.31-12.86-2.95-13.69-7.11-.69-3.46,3.01-5.94,4.22-6.75l1.41-.95.06.05c2.7-1.57,6.73-3.43,10.21-3.42,5,.1,10.35.4,13.42.63,1.09.09,2.02.59,2.64,1.41,1.48,1.97.83,5.19.2,8.3-.21,1.03-.52,2.59-.47,3.04.22,1.4.86,5.54-1.83,7.62-.96.75-2.1,1.04-3.32,1.04ZM669.73,153c1.11.12,2.41.68,4.16,1.44,1.76.76,5.89,2.56,6.84,1.81.24-.18.59-1.16.22-3.54-.2-1.13.11-2.66.5-4.58.25-1.21.73-3.6.61-4.62-3.05-.22-8.06-.49-12.74-.58-.02,0-.04,0-.05,0-2.21,0-5.61,1.32-9.09,3.53l-.17.11c-2.21,1.51-2.32,2.31-2.32,2.32.12.51,1.38,1.92,10.34,3.74.72.15,1.31.27,1.72.37Z"/>
          </g>
          <g>
            <path class="st4" d="M705.1,161.31c-2.18,6.44,5.47,12.22,8.1,13.39,2.7,1.02,12.91,3.25,12.65.07-.33-3.11,5.22-13.32,2.02-14.39-3.23-1.05-8.08-2.52-12.36-3.66-4.35-1.08-10.45,4.64-10.41,4.59Z"/>
            <path class="st2" d="M722.42,178.56c-4.41,0-9.9-1.83-9.98-1.86-3.52-1.56-12.04-8.17-9.37-16.08l1.07-3.17,1.05.99c2.64-2.07,6.97-4.77,10.84-3.8,4.72,1.26,9.68,2.78,12.51,3.71,4.02,1.35,2.27,6.66.73,11.34-.54,1.65-1.36,4.13-1.28,4.86.1,1.21-.38,2.28-1.32,2.98-1,.75-2.54,1.03-4.25,1.03ZM706.99,162.51c-1.09,4.81,5.21,9.4,7.09,10.24,2.48.94,7.79,1.8,9.63,1.47.07-1.53.74-3.57,1.5-5.87.57-1.74,1.6-4.85,1.55-6.08-2.82-.91-7.43-2.31-11.79-3.48-1.95-.49-5.4,1.53-7.97,3.72Z"/>
          </g>
          <g>
            <path class="st4" d="M664.3,145.23c1.25,8.37-6.24,9.12-9.2,8.57-2.91-.76-15.86-3.72-14.89-4.99,1.05-1.52-2.44-9.85,1.1-9.91,3.55-.07,8.84-.01,13.45.25,4.65.15,9.56,6.01,9.54,6.07Z"/>
            <path class="st2" d="M656.74,156.07c-.78,0-1.48-.07-2.03-.17-.55-.14-1.14-.29-1.86-.46-12.65-3.13-14.13-4.1-14.69-5.7-.22-.62-.17-1.29.13-1.86.02-.5-.18-1.71-.31-2.54-.44-2.73-.9-5.56.58-7.32.66-.79,1.63-1.23,2.73-1.25,3.11-.06,8.56-.03,13.6.26,5.9.18,11.2,7.03,11.24,7.1l.6,1-.23.47c.43,4.11-1.06,6.53-2.43,7.85-2.14,2.06-5.09,2.64-7.33,2.64ZM642.55,148.06c1.67.69,5.46,1.77,11.32,3.22.74.18,1.35.33,1.77.44,1.21.22,3.95.08,5.46-1.37.96-.92,1.34-2.35,1.15-4.26-1.25-1.42-4.78-4.71-7.55-4.8-4.73-.27-9.76-.31-12.87-.26-.07.87.21,2.61.37,3.62.21,1.29.39,2.43.35,3.41Z"/>
          </g>
          <g>
            <path class="st4" d="M720.03,134.58c9.62,2.35,11.01,11.22,9.64,13.44-1.53,2.38-15.24,11.29-17.64,8.97-2.52-2.24-7.24-6.61-5.98-8.84,1.3-2.3-.61-6.97,1.09-9.97,1.68-3.05,12.89-3.64,12.9-3.6Z"/>
            <path class="st8" d="M713.24,159.51c-1.12,0-2.03-.33-2.71-.98-4.4-3.91-8.26-8.05-6.36-11.42.3-.53.22-2,.15-3.19-.13-2.18-.27-4.64.95-6.79,2.45-4.44,14.89-4.68,14.96-4.68l1.4.13.08.24c6.07,1.89,8.6,6.06,9.58,8.47,1.2,2.94,1.28,6.09.19,7.85-1.78,2.77-12.59,9.75-17.5,10.32-.26.03-.5.04-.74.04ZM713.41,155.36s.02.02.04.03c-.01-.01-.02-.02-.04-.03ZM713.28,155.24s.06,0,.1,0c2.84,0,13.2-6.52,14.49-8.39.15-.3.33-2.07-.71-4.32-.93-2.02-2.97-4.65-7.39-5.81-3.28.1-9.93,1.24-10.78,2.5-.6,1.06-.5,2.78-.4,4.44.11,1.87.22,3.8-.61,5.4.06.41.64,2,5.3,6.18Z"/>
          </g>
          <g>
            <path class="st4" d="M703.35,146.33c6.79-4.64,2.54-12.52-.51-13.8-2.91-1.59-17.19-3.64-18.09-1.24-.98,2.38-11.57,8.5-8.17,9.69,3.34,1.26,8.24,3.38,12.42,5.52,4.14,2.14,14.31-.13,14.35-.17Z"/>
            <path class="st2" d="M694.46,149.56c-2.43,0-4.8-.3-6.45-1.16-4.42-2.27-9.33-4.34-12.19-5.42-1.07-.37-1.83-1.2-2.01-2.25-.41-2.34,2.07-4.36,5.5-7.16,1.26-1.02,3.16-2.57,3.49-3.15.18-.49.73-1.32,2.07-1.82,4.06-1.52,15.91.47,18.9,1.99,2.63,1.17,4.95,4.8,5.31,8.34.37,3.67-1.23,6.92-4.52,9.16h0c-.56.36-5.44,1.45-10.09,1.45ZM678.88,139.58c3.04,1.21,7.24,3.04,11.09,5.02,2.69,1.39,10.02.29,12.47-.25,1.77-1.32,2.57-2.99,2.36-4.98-.26-2.53-1.96-4.51-2.8-4.86l-.2-.09c-2.29-1.25-12.93-2.67-15.31-1.85-.73,1.24-2.24,2.5-4.49,4.33-.92.75-2.25,1.83-3.13,2.68ZM677.28,138.96s0,0,.01,0c0,0,0,0-.01,0ZM686.76,132.04s-.04.09-.06.14c.02-.04.04-.09.06-.14Z"/>
          </g>
          <g>
            <path class="st4" d="M679.12,136.23c3.19-4.97-3.5-8.9-6.46-8.94-2.93-.22-14.98,1.78-14.55,3.43.36,1.71-4.85,7.94-1.67,8.08,3.16.18,7.86.58,11.94,1.1,4.04.56,10.7-3.62,10.73-3.67Z"/>
            <path class="st2" d="M669.12,142.08c-.35,0-.69-.02-1.02-.07-4.34-.55-9.06-.93-11.77-1.08-1.57-.07-2.33-.96-2.64-1.49-1.06-1.82.08-4.02,1.28-6.36.35-.69.87-1.7,1.01-2.16-.09-.65.12-1.38.62-1.97,2.16-2.6,13.82-3.98,16.23-3.8,2.66.03,6.78,2.18,8.46,5.31,1.2,2.23,1.07,4.68-.36,6.92l-.08.11c-.58.8-7.05,4.59-11.73,4.59ZM657.94,136.74c2.86.19,6.92.54,10.72,1.03,2.44.33,7.04-1.96,8.87-3.07.39-.78.38-1.47-.01-2.21-.99-1.85-3.76-3.05-4.88-3.06-2.35-.16-10.16,1.15-12.44,2.15-.18,1.05-.75,2.16-1.42,3.46-.24.48-.58,1.13-.84,1.7ZM660.19,130.17c.03.13.05.26.06.39,0-.12-.03-.25-.06-.39Z"/>
          </g>
          <g>
            <path class="st4" d="M645.44,121.32c8.33-1.48,11.93,9.35,11.22,10.72-.68,1.38.89,6.6-9.02,5.54-2.64-.33-14.03.66-13.4-.54.65-1.32-1.71-4.33-1.42-6.01.76-4.65,12.58-9.74,12.61-9.71Z"/>
            <path class="st2" d="M650.07,139.85c-.81,0-1.69-.05-2.65-.15-.85-.11-3.15-.05-5.17,0-7.37.2-8.91.11-9.82-1.37l-.65-1.05.42-.92c-.08-.36-.38-1.08-.57-1.53-.57-1.35-1.16-2.76-.91-4.17.99-6.03,13.77-11.27,13.9-11.32l1.14-.44.26.19c3.82-.35,7.3,1.36,9.89,4.89,1.81,2.45,3.74,6.96,2.66,9.05.05,0,.02.16,0,.37-.4,3.08-1.77,6.47-8.49,6.47ZM632.36,136.03s-.03.07-.05.1l.05-.1ZM645.77,135.36c.88,0,1.62.02,2.14.09,5.98.64,6.19-1.01,6.4-2.61.06-.47.12-.96.3-1.43-.06-.98-1.14-4.33-3.58-6.47-1.51-1.32-3.14-1.82-5.02-1.54-3.18,1.29-10.66,5.5-11.07,7.98,0,.29.4,1.24.64,1.8.31.73.64,1.51.81,2.3,1.54.06,4.06,0,5.75-.05,1.35-.04,2.6-.07,3.64-.07ZM654.74,131.09s-.03.06-.04.09c.01-.03.03-.06.04-.09Z"/>
          </g>
        </g>
        <g>
          <path class="st4" d="M609.43,130.2c3.48.85,5.59,9.54,9.18,9.11,1.72-.21-4.58,3-4.38,4.34,1.39,9.13-16.83,8.29-14.93-3.67.16-1.04,2.44-3.29,3.01-4.56s7.12-5.21,7.12-5.21Z"/>
          <path class="st2" d="M607.91,151.96c-2.22,0-4.51-.63-6.41-1.87-3.44-2.24-5.01-6.05-4.32-10.45.18-1.12,1.02-2.2,1.99-3.45.43-.56,1.03-1.32,1.18-1.65.21-.47.84-1.88,7.97-6.17l.75-.46.86.21c2.46.6,4.04,3.1,5.57,5.52.72,1.13,2.2,3.49,2.85,3.55,1.41-.17,2.25.61,2.55,1.4.66,1.72-.71,2.68-2.3,3.79-.57.4-1.66,1.17-2.18,1.65.19,2.7-.95,5.03-3.19,6.47-1.51.97-3.39,1.45-5.33,1.45ZM604.19,136.44c-.37.76-.99,1.55-1.64,2.38-.4.51-1.06,1.36-1.18,1.66-.5,3.28,1.06,5.1,2.47,6.02,2.15,1.4,5.26,1.58,7.08.4,1.01-.65,1.39-1.6,1.19-2.93-.25-1.64.98-2.86,2.67-4.13-1.11-1.08-2.04-2.55-2.91-3.92-.68-1.07-1.62-2.56-2.37-3.26-2.33,1.45-4.75,3.13-5.32,3.78ZM604.15,136.49h0ZM604.26,136.29h0s0,0,0,0Z"/>
        </g>
        <g>
          <path class="st4" d="M618.78,126.3c4.15-4.05,12.03-1.6,12.39,3.88.02.3,0,.51-.04.62-.39.86.46,4.94-.9,4.34-1.36-.61-16.83,8.29-14.93-3.67.16-1.04,2.44-3.29,3.01-4.56.07-.16.24-.36.48-.6Z"/>
          <path class="st2" d="M619.5,139.88c-1.66,0-3.21-.38-4.43-1.4-1.79-1.5-2.43-3.98-1.89-7.37.18-1.12,1.02-2.2,1.99-3.44.43-.56,1.03-1.32,1.18-1.66.19-.42.49-.81.93-1.25h0c2.63-2.58,6.7-3.34,10.36-1.94,3.28,1.26,5.45,4.01,5.66,7.2.04.58,0,1.03-.15,1.44-.03.27,0,.66,0,1.06.04,1.7.09,3.46-1.3,4.39-.57.38-1.25.5-1.92.36-.42.11-1.25.4-1.93.63-2.43.85-5.64,1.97-8.52,1.97ZM620.19,127.92c-.37.75-.99,1.55-1.64,2.38-.4.51-1.06,1.36-1.18,1.66-.23,1.54-.08,2.79.45,3.23,1.46,1.23,6.61-.56,8.8-1.33.94-.33,1.68-.59,2.29-.74,0-.18,0-.35-.01-.49-.02-.91-.04-1.66.14-2.32-.14-1.57-1.23-2.83-2.91-3.48-1.6-.61-4.09-.72-5.84,1h0s-.06.06-.09.09ZM629.18,129.92s-.03.06-.04.09c.01-.03.03-.06.04-.09ZM620.15,127.97h0Z"/>
        </g>
      </g>
      <g>
        <g>
          <g>
            <path class="st2" d="M349.04,205.05c.14,2.94,0,5.98-1.19,8.67-.36.82-.85,1.59-1.42,2.29h18.65c-.78-1.14-1.39-2.41-1.8-3.69-1.37-4.35-.24-9.05-1.33-13.48-.38-1.52-.82-2.78-1.33-3.86-.18-1.44-.34-2.78-.29-3.81.27-5.22.52-10.38,2.07-15.36,2.95-9.48,7.26-18.52,9.67-28.15,2.41-9.63,2.73-20.31-2.05-29.01,3.21,11.52-1.49,21.51-5.23,32.87-3.74,11.36-8.45,18.74-9.54,31.14-.36,4.02-2.09,3.63-3.5,1.25-2.78-4.68,1.85-17.14,1.11-22.5-1.98-14.21-7.5-26.69-1.37-39.7-5.58,7.41-4.69,17.67-3.37,26.85,1.32,9.18,3.33,15.63-1.65,23.45-7.9-14.75-12.72-26.51-12-43.23-3.89,12.55-.51,26.14,3.93,38.51,4.45,12.36,10.03,24.65,10.63,37.77Z"/>
            <path class="st2" d="M406.49,120.16c1.16-3.96.93-9.03-.69-12.84.54-2.34.72-4.76.53-7.15,4.57-.87,8.5-5.18,8.05-9.83-.41-4.22-3.67-7.51-6.77-10.03,2.81-5.3-.41-5.42-4.16-4-.54-1.1-1.27-2.12-2.13-3.01,0-.36-.04-.72-.11-1.08-.39-2.08-1.77-3.89-3.56-5,.85-1.66,1.07-3.66.03-4.88,3.32-1.55,5.49-5.28,5.18-8.94-.31-3.65-3.06-6.98-6.6-7.95,2.83-4.28-.4-11.08-5.51-11.58.69-6.07-5.23-11.97-11.3-11.26-6.07.71-10.47,7.81-8.4,13.56-1.71-1.87-5.45-.78-5.88,1.72-2.19-1.02-4.99-.54-6.71,1.15,2.93-5.17.32-12.64-5.19-14.87-5.51-2.23-12.58,1.33-14.07,7.08-.04-3.38-5.29-5.12-7.34-2.43.13-1.71-1.21-3.4-2.9-3.67-1.69-.27-3.49.91-3.9,2.57-1.55-1.35-4.17-1.23-5.58.28-.52.55-.84,1.25-.96,1.99-.05-.03-.1-.07-.15-.1-3.75-2.31-9.64-1.69-11.42,2.33-1.23,2.77-.13,5.82,1.5,8.52-2.19.61-4.1,2.22-4.98,4.33-1.04,2.5-.59,5.56,1.13,7.65-2.09-.96-6.15-.1-6.6,2.15-6.22,1.67-10.63,8.41-9.66,14.78.97,6.37,7.17,11.5,13.61,11.25-1.13.39-2.93,2-2.78,3.18.13,1.02.94,1.89,1.92,2.17-1.3-.14-2.68.59-3.25,1.78-.64,1.35-.17,3.13,1.05,3.98-3.75.96-7,3.72-8.55,7.27-1.55,3.55-1.37,7.81.48,11.21-4.51,3.13-6.96,8.97-6.04,14.38.92,5.41,5.18,11.03,10.47,12.49,5.07,1.39,13.19-.14,13.19-.14-.28,4.02,2.22,8.09,5.92,9.68,3.71,1.58,8.37.57,11.09-2.41.18,7.09,6.1,13.59,13.15,14.43,7.04.84,14.33-4.08,16.18-10.93,1.7,2.88,6.09,3.69,8.71,1.61,2.18,1.81,5.97.54,6.93-2.03-.48,2.79,1.69,5.78,4.5,6.54,3.08.83,6.45-.59,8.66-2.89,2.21-2.3,3.46-5.36,4.39-8.41,1.73,3.55,7.61,3.87,9.71.53,2.86,2.54,8.34.34,8.52-3.48,3.57-.05,6.56-3.34,7.03-6.88.47-3.54-1.13-7.11-3.49-9.79-.98-1.12-2.09-2.1-3.27-3.01Z"/>
            <path class="st4" d="M352.85,98.37c-2.89.51-6.02-.89-7.57-3.37-1-1.6-1.29-3.59-.91-5.44-5.34,2.6-11.6,2.88-16.6-.41-1.08,2.75-4.75,4.55-7.44,3.04.07,3-2.52,5.83-5.52,6s-5.91-2.31-6.19-5.31c-1.21,3.16.03,7.08,2.83,8.97,2.81,1.89,6.9,1.58,9.38-.72-.73,3.33,2.12,6.96,5.53,7.05,3.41.08,6.43-3.41,5.86-6.77.33,1.61,2.03,2.81,3.65,2.57,1.62-.23,2.92-1.86,2.78-3.5.21,1.96.97,4.08,2.73,4.98,1.76.91,4.47-.33,4.27-2.3,1.9,2.02,6.03.22,5.85-2.54.46,1.73,2.15,3.05,3.94,3.08,1.65.02,3.15-.93,3.42-2.4-2.17-.67-4.65-.66-6-2.94Z"/>
            <path class="st4" d="M371.34,59.91c.04.52.08,1.05.11,1.57-7.11,2.77-16.14-1.87-18.02-9.27-1.22,1.23-3.49,1.16-4.64-.14-.03.53-.06,1.07-.09,1.6-2.83,2.11-7.14,1.92-9.78-.43-.91,2.76-3.46,4.91-6.34,5.33-2.87.43-5.94-.88-7.62-3.25-1.51,1.93-.76,5.01,1.18,6.51,1.94,1.5,4.68,1.61,7.03.91,2.35-.71,4.41-2.13,6.42-3.53-.43,1.82.42,3.86,2.01,4.85,1.59.99,3.79.84,5.24-.34-1.9,3.64-.24,8.69,3.45,10.5,3.69,1.81,8.7.03,10.42-3.7,1.83,1.86,5.68.23,5.61-2.37,1.7,1.13,4.05,1.2,5.81.17,1.76-1.03,2.85-3.12,2.69-5.15.57,1.89,3,2.94,4.76,2.07,1.93-.96,2.23-3.31,1.08-4.75-2.98,1.44-6.64,1.71-9.31-.57Z"/>
            <path class="st4" d="M316.48,122.96c-2.24-.84-5.04.33-6.02,2.51-.51-2.56-3.96-4-6.13-2.55-.83-1.54-2.66-2.47-4.39-2.22-1.73.25-3.23,1.65-3.59,3.36-.99-1.53-2.58-2.83-4.4-2.89-1.82-.06-3.7,1.57-3.41,3.37.29,1.8,3.26,2.51,4.01.84.68,2.88,2.03,5.92,4.72,7.15,2.69,1.22,6.69-.78,6.25-3.7-.1.74-.21,1.49-.31,2.23,2.02.96,4.76-.8,4.73-3.04.69,1.52,3.42,1.22,3.76-.41.07.9,1.56,1.2,1.97.39-1.39,2.57-2.26,5.52-1.86,8.41.4,2.89,2.27,5.68,5.03,6.63,2.76.96,6.27-.38,7.24-3.13,1.51,1.35,4.11,1.2,5.47-.3s1.23-4.11-.27-5.47c1.63,1.46,4.73.32,5.03-1.85,1.16,2.07,5.05,1.15,5.16-1.22.87.96,1.78,1.95,2.97,2.46,1.19.51,2.76.39,3.57-.62,1.31-1.63-.39-4.23-2.45-4.56-2.16-.35-3.85,1.35-5.8,1.16-2-.2-3.19-3.12-5.58-.89-.67-1.95-3.55-2.67-5.06-1.27"/>
            <path class="st4" d="M364.08,138.47c3.02,1.24,6.92-.64,7.83-3.78.6,3.48,5.35,4.81,8.53,3.28,3.18-1.53,5.08-4.8,6.8-7.89,1.15,2.27,3.51,3.87,6.04,4.11,2.53.24,5.15-.89,6.71-2.9,1.13.99,2.91,1.14,4.19.36,1.28-.78,1.96-2.44,1.59-3.89,2.18.99,3.19,3.96,2.08,6.08-1.12,2.12-4.13,2.96-6.19,1.73.88,1.66.04,4-1.7,4.72-1.74.73-3.98-.32-4.55-2.11-.5,2-2.6,3.46-4.65,3.24-2.05-.23-3.78-2.12-3.83-4.18-1.29,2.48-2.66,5.05-4.95,6.65-2.29,1.6-5.79,1.85-7.66-.23-1.19-1.32-2.17-3.61-3.88-3.14-.84.23-1.31,1.09-1.86,1.77-1.34,1.64-3.63,2.44-5.69,1.98-1.87-.41-3.39-1.69-3.83-3.51,1.47-.38,4.03-.76,5.05-2.3Z"/>
            <path class="st6" d="M392.87,92.14c.89,1.07,2.41,1.57,3.76,1.24s2.47-1.46,2.79-2.81c1.84,3.45,6.34,5.22,10.04,3.95-.91,1.75-3.06,3.27-5.03,3.21-1.97-.06-3.86-1.33-4.65-3.14-.76,1.41-2.48,2.22-4.05,1.91-1.57-.31-2.68-2.78-2.85-4.36Z"/>
          </g>
          <path class="st4" d="M291.07,62.63c.24,1.08,1.05,2.02,2.09,2.4,1.04.38,2.27.21,3.15-.46.19,1.01.92,1.91,1.87,2.3.95.39,2.1.27,2.95-.32.81,1.82,2.23,3.13,4.13,3.74,1.89.61,4.04.37,5.75-.64.58,1.95-.61,4.16-2.43,5.08-1.82.92-4.07.67-5.87-.29-1.8-.96-3.18-2.56-4.26-4.28-.7.71-1.82.96-2.75.61-.93-.34-1.62-1.26-1.69-2.25-1.21.4-2.67-.18-3.29-1.29-.62-1.12-.63-3.76.35-4.58Z"/>
          <path class="st6" d="M320.93,39.96c-2.19,1.45-5.25.88-7.36-.67-2.12-1.56-3.49-3.9-4.77-6.19-1.04,3.15.14,7,3,8.69,2.86,1.69,6.87.6,9.13-1.83Z"/>
        </g>
        <path class="st2" d="M349.55,215.88c-1.45-8.79-5.47-17.31-11.88-23.63,6.98,5.93,11.62,14.37,13.73,23.27,0,0-1.86.36-1.86.36h0Z"/>
        <path class="st2" d="M361.4,214.78c1.83-6.5,5.16-12.5,9.68-17.3-4,5.24-6.61,11.42-7.71,17.75l-1.98-.44h0Z"/>
        <path class="st7" d="M351.3,216.01c.57-8.36-.5-17.76,3.96-25.3-1.94,3.86-2.21,8.23-2.2,12.46.03,4.26.49,8.51.66,12.86l-2.41-.02h0Z"/>
        <path class="st7" d="M352.98,216.4c1.6-5.7,4.53-10.95,8.49-15.16-3.51,4.59-5.8,10-6.76,15.55l-1.73-.39h0Z"/>
        <path class="st7" d="M356.6,216.4c1.6-5.7,4.53-10.95,8.49-15.16-3.51,4.59-5.8,10-6.76,15.55l-1.73-.39h0Z"/>
      </g>
    </g>
  </g>
  <g class="st9">
    <path class="st2" d="M36.03,500.95c1.42.62,2.75,1.54,3.99,2.78l-3.71,3.71c-1.24-1.48-2.97-2.22-5.19-2.22s-3.65.52-4.27,1.58c-.62,1.05-.62,1.94,0,2.69.62.74,2.04,1.29,4.27,1.67,2.35.24,4.48,1.01,6.4,2.32,1.91,1.29,2.87,3.37,2.87,6.22,0,2.22-1.02,4.14-3.07,5.75s-4.43,2.41-7.15,2.41-4.74-.37-6.47-1.12c-1.73-.74-3.21-1.73-4.45-2.96l3.71-3.71c1.24,1.48,3.34,2.35,6.31,2.6,2.47,0,4.02-.52,4.63-1.58s.61-2.11,0-3.15c-.61-1.05-2.16-1.7-4.63-1.95-2.23-.25-4.27-.93-6.12-2.04-1.86-1.11-2.78-3.03-2.78-5.75,0-2.46,1.05-4.44,3.16-5.93s4.27-2.23,6.5-2.23c2.59,0,4.59.3,6.01.93Z"/>
    <path class="st2" d="M58.1,500.02v16.14c0,2.1.62,3.64,1.85,4.63,1.24.99,2.78,1.49,4.64,1.49s3.4-.5,4.64-1.49c1.24-.99,1.86-2.53,1.86-4.63v-16.14h5.56v17.62c0,2.85-1.14,5.26-3.43,7.23-2.29,1.98-5.16,2.97-8.63,2.97s-6.34-.99-8.62-2.97c-2.29-1.97-3.43-4.38-3.43-7.23v-17.62h5.56Z"/>
    <path class="st2" d="M90.25,527.84v-27.82h12.13c6.49,0,9.74,2.67,9.74,8.01s-3.24,8.31-9.72,8.31h-6.58v11.5h-5.56ZM95.82,511.15h7.79c2.24-.04,3.38-1.06,3.45-3.07-.06-1.82-1.19-2.78-3.39-2.85h-7.85v5.92Z"/>
    <path class="st2" d="M123.82,527.84v-27.82h12.13c6.49,0,9.74,2.67,9.74,8.01s-3.24,8.31-9.72,8.31h-6.58v11.5h-5.56ZM129.38,511.15h7.79c2.24-.04,3.38-1.06,3.45-3.07-.06-1.82-1.19-2.78-3.39-2.85h-7.85v5.92Z"/>
    <path class="st2" d="M159.96,523.85c-2.66-2.67-3.99-5.97-3.99-9.92s1.33-7.26,3.99-9.92c2.66-2.66,5.97-3.99,9.92-3.99s7.26,1.33,9.92,3.99c2.66,2.66,3.99,5.97,3.99,9.92s-1.33,7.27-3.99,9.93c-2.66,2.66-5.97,3.99-9.92,3.99s-7.26-1.33-9.92-3.99ZM169.9,522.64c2.46,0,4.46-.83,6.01-2.5,1.54-1.67,2.32-3.74,2.32-6.22s-.77-4.54-2.32-6.21c-1.55-1.67-3.56-2.5-6.05-2.5s-4.46.83-6.01,2.5-2.32,3.74-2.32,6.21.78,4.55,2.32,6.22c1.54,1.67,3.56,2.5,6.05,2.5Z"/>
    <path class="st2" d="M212.27,515.71l6.94,12.13h-6.38l-6.66-11.5h-5.08v11.5h-5.56v-27.82h12.13c6.49,0,9.74,2.67,9.74,8.01,0,4.02-1.71,6.58-5.12,7.68ZM201.09,511.15h7.79c2.24-.04,3.38-1.06,3.45-3.07-.06-1.82-1.19-2.78-3.39-2.85h-7.85v5.92Z"/>
    <path class="st2" d="M252.4,500.02v5.19h-9.27v22.63h-5.56v-22.63h-9.27v-5.19h24.11Z"/>
    <path class="st2" d="M264.14,500h5.55v27.84h-5.55v-27.84Z"/>
    <path class="st2" d="M282.86,527.84v-27.82h1.86l17.43,17.43v-17.43h5.56v27.82h-2.04l-17.25-17.25v17.25h-5.56Z"/>
    <path class="st2" d="M323.58,523.85c-2.67-2.66-4-5.98-4-9.98.01-3.91,1.35-7.19,4-9.86,2.66-2.66,5.95-3.99,9.89-3.99s7.38,1.23,10.22,3.7l-3.71,4.06c-1.89-1.48-4.06-2.22-6.51-2.22-2.5,0-4.51.79-6.04,2.33-1.53,1.55-2.29,3.53-2.29,5.94.01,2.59.78,4.64,2.32,6.16s3.55,2.29,6.05,2.29c2,0,3.54-.4,4.62-1.19v-4.77l-3.71.02v-5.19h9.27v12.98c-2.83,2.47-6.24,3.71-10.22,3.71-3.93-.02-7.23-1.34-9.89-3.99Z"/>
    <path class="st2" d="M380.09,523.85c-2.66-2.66-4-5.98-4-9.98.01-3.91,1.35-7.19,4-9.86,2.66-2.66,5.95-3.99,9.89-3.99s7.37,1.23,10.22,3.7l-3.71,4.06c-1.89-1.48-4.06-2.22-6.51-2.22-2.5,0-4.51.79-6.04,2.33-1.52,1.55-2.29,3.53-2.29,5.94.01,2.59.78,4.64,2.32,6.16,1.53,1.52,3.55,2.29,6.04,2.29s4.66-.74,6.47-2.21l3.71,4.06c-2.83,2.47-6.24,3.71-10.22,3.71-3.93-.02-7.23-1.34-9.9-3.99Z"/>
    <path class="st2" d="M416.37,523.85c-2.66-2.67-3.99-5.97-3.99-9.92s1.33-7.26,3.99-9.92c2.66-2.66,5.97-3.99,9.92-3.99s7.26,1.33,9.92,3.99c2.66,2.66,3.99,5.97,3.99,9.92s-1.33,7.27-3.99,9.93c-2.66,2.66-5.97,3.99-9.92,3.99s-7.26-1.33-9.92-3.99ZM426.32,522.64c2.46,0,4.46-.83,6.01-2.5,1.54-1.67,2.32-3.74,2.32-6.22s-.77-4.54-2.32-6.21c-1.55-1.67-3.56-2.5-6.05-2.5s-4.46.83-6.01,2.5-2.32,3.74-2.32,6.21.78,4.55,2.32,6.22c1.54,1.67,3.56,2.5,6.05,2.5Z"/>
    <path class="st2" d="M451.94,527.84v-27.82h1.86l12.05,13.73,12.08-13.73h1.85v27.82h-5.56l-.02-16.14-8.35,9.27-8.35-9.27v16.14h-5.56Z"/>
    <path class="st2" d="M492.93,527.84v-27.82h1.86l12.05,13.73,12.08-13.73h1.85v27.82h-5.56l-.02-16.14-8.35,9.27-8.35-9.27v16.14h-5.56Z"/>
    <path class="st2" d="M539.05,500.02v16.14c0,2.1.62,3.64,1.85,4.63,1.24.99,2.78,1.49,4.64,1.49s3.4-.5,4.64-1.49c1.24-.99,1.86-2.53,1.86-4.63v-16.14h5.56v17.62c0,2.85-1.14,5.26-3.43,7.23-2.29,1.98-5.16,2.97-8.63,2.97s-6.34-.99-8.62-2.97c-2.29-1.97-3.43-4.38-3.43-7.23v-17.62h5.56Z"/>
    <path class="st2" d="M571.2,527.84v-27.82h1.86l17.43,17.43v-17.43h5.56v27.82h-2.04l-17.25-17.25v17.25h-5.56Z"/>
    <path class="st2" d="M609.42,500h5.55v27.84h-5.55v-27.84Z"/>
    <path class="st2" d="M650.85,500.02v5.19h-9.27v22.63h-5.56v-22.63h-9.27v-5.19h24.11Z"/>
    <path class="st2" d="M662.58,500h5.55v27.84h-5.55v-27.84Z"/>
    <path class="st2" d="M681.23,527.84v-27.8l20.44-.02v5.19h-14.88v5.94h11.15v5.17h-11.15v6.33h14.84v5.19h-20.4Z"/>
    <path class="st2" d="M729.93,500.95c1.42.62,2.75,1.54,3.99,2.78l-3.71,3.71c-1.24-1.48-2.97-2.22-5.19-2.22s-3.65.52-4.27,1.58c-.62,1.05-.62,1.94,0,2.69.62.74,2.04,1.29,4.27,1.67,2.35.24,4.48,1.01,6.4,2.32,1.91,1.29,2.87,3.37,2.87,6.22,0,2.22-1.02,4.14-3.07,5.75-2.05,1.61-4.43,2.41-7.15,2.41s-4.74-.37-6.47-1.12-3.21-1.73-4.45-2.96l3.71-3.71c1.24,1.48,3.34,2.35,6.31,2.6,2.47,0,4.02-.52,4.63-1.58s.61-2.11,0-3.15c-.61-1.05-2.16-1.7-4.63-1.95-2.23-.25-4.27-.93-6.12-2.04-1.86-1.11-2.78-3.03-2.78-5.75,0-2.46,1.05-4.44,3.16-5.93,2.11-1.49,4.27-2.23,6.5-2.23,2.59,0,4.59.3,6.01.93Z"/>
    <path class="st2" d="M790.14,500.02v5.19h-9.27v22.63h-5.56v-22.63h-9.27v-5.19h24.11Z"/>
    <path class="st2" d="M801.87,527.84v-27.82h5.56v11.13h12.97v-11.15h5.56v27.83l-5.56.02v-11.5h-12.97v11.5h-5.56Z"/>
    <path class="st2" d="M856.32,515.71l6.94,12.13h-6.38l-6.66-11.5h-5.08v11.5h-5.56v-27.82h12.13c6.48,0,9.73,2.67,9.73,8.01,0,4.02-1.7,6.58-5.11,7.68ZM845.14,511.15h7.79c2.24-.04,3.38-1.06,3.45-3.07-.06-1.82-1.19-2.78-3.39-2.85h-7.85v5.92Z"/>
    <path class="st2" d="M876.33,523.85c-2.66-2.67-3.99-5.97-3.99-9.92s1.33-7.26,3.99-9.92,5.97-3.99,9.92-3.99,7.27,1.33,9.93,3.99c2.66,2.66,3.99,5.97,3.99,9.92s-1.33,7.27-3.99,9.93c-2.66,2.66-5.97,3.99-9.93,3.99s-7.26-1.33-9.92-3.99ZM886.27,522.64c2.46,0,4.46-.83,6.01-2.5,1.54-1.67,2.32-3.74,2.32-6.22s-.78-4.54-2.32-6.21-3.56-2.5-6.04-2.5-4.46.83-6.01,2.5c-1.55,1.67-2.32,3.74-2.32,6.21s.77,4.55,2.32,6.22c1.54,1.67,3.56,2.5,6.04,2.5Z"/>
    <path class="st2" d="M917.03,500.02v16.14c0,2.1.62,3.64,1.86,4.63,1.24.99,2.78,1.49,4.64,1.49s3.4-.5,4.63-1.49c1.24-.99,1.86-2.53,1.86-4.63v-16.14h5.56v17.62c0,2.85-1.14,5.26-3.43,7.23-2.29,1.98-5.16,2.97-8.62,2.97s-6.34-.99-8.63-2.97c-2.29-1.97-3.43-4.38-3.43-7.23v-17.62h5.56Z"/>
    <path class="st2" d="M951.67,523.85c-2.66-2.66-3.99-5.98-3.99-9.98,0-3.91,1.35-7.19,4.01-9.86,2.65-2.66,5.95-3.99,9.88-3.99s7.38,1.23,10.22,3.7l-3.71,4.06c-1.9-1.48-4.06-2.22-6.51-2.22-2.5,0-4.51.79-6.04,2.33-1.53,1.55-2.29,3.53-2.29,5.94.02,2.59.79,4.64,2.32,6.16,1.53,1.52,3.55,2.29,6.04,2.29,2,0,3.54-.4,4.62-1.19v-4.77l-3.71.02v-5.19h9.28v12.98c-2.84,2.47-6.24,3.71-10.22,3.71-3.93-.02-7.23-1.34-9.9-3.99Z"/>
    <path class="st2" d="M985,527.84v-27.82h5.56v11.13h12.96v-11.15h5.57v27.83l-5.57.02v-11.5h-12.96v11.5h-5.56Z"/>
  </g>
  <g class="st9">
    <path class="st2" d="M161.74,579.28v-27.82h19.57v5.19h-14v5.94h10.33v5.17h-10.33v11.52h-5.57Z"/>
    <path class="st2" d="M191.48,579.28l11.13-27.82h5.56l11.11,27.8-5.92.02-1.67-4.27h-12.61l-1.67,4.27h-5.94ZM205.54,558.87l-4.23,10.58h8.35l-4.12-10.58Z"/>
    <path class="st2" d="M247.79,567.15l6.93,12.13h-6.38l-6.65-11.5h-5.08v11.5h-5.56v-27.82h12.13c6.49,0,9.73,2.67,9.73,8.01,0,4.02-1.7,6.58-5.12,7.68ZM236.6,562.59h7.79c2.24-.04,3.38-1.06,3.45-3.07-.06-1.82-1.19-2.78-3.39-2.85h-7.85v5.92Z"/>
    <path class="st2" d="M265.22,579.28v-27.82h1.85l12.06,13.73,12.07-13.73h1.86v27.82h-5.56l-.02-16.14-8.35,9.27-8.35-9.27v16.14h-5.56Z"/>
    <path class="st2" d="M311.82,551.46v22.63h14.84v5.19h-20.4v-27.82h5.56Z"/>
    <path class="st2" d="M337.37,579.28l11.13-27.82h5.56l11.11,27.8-5.92.02-1.67-4.27h-12.61l-1.67,4.27h-5.94ZM351.43,558.87l-4.23,10.58h8.35l-4.12-10.58Z"/>
    <path class="st2" d="M376.93,579.28v-27.82h1.85l17.44,17.43v-17.43h5.56v27.82h-2.04l-17.25-17.25v17.25h-5.56Z"/>
    <path class="st2" d="M415.15,579.28v-27.84h10.72c8.66,0,12.99,4.65,12.99,13.93s-4.33,13.91-12.99,13.91h-10.72ZM425.86,573.73c4.94-.02,7.41-2.8,7.42-8.37,0-5.56-2.48-8.35-7.42-8.35h-5.16v16.71h5.16Z"/>
    <path class="st2" d="M473,579.28v-27.82h12.13c6.49,0,9.73,2.67,9.73,8.01s-3.24,8.31-9.72,8.31h-6.58v11.5h-5.56ZM478.56,562.59h7.79c2.24-.04,3.38-1.06,3.45-3.07-.06-1.82-1.19-2.78-3.39-2.85h-7.85v5.92Z"/>
    <path class="st2" d="M523.31,567.15l6.93,12.13h-6.38l-6.65-11.5h-5.08v11.5h-5.56v-27.82h12.13c6.49,0,9.73,2.67,9.73,8.01,0,4.02-1.7,6.58-5.12,7.68ZM512.13,562.59h7.79c2.24-.04,3.38-1.06,3.45-3.07-.06-1.82-1.19-2.78-3.39-2.85h-7.85v5.92Z"/>
    <path class="st2" d="M540.66,579.28v-27.8l20.44-.02v5.19h-14.88v5.94h11.15v5.17h-11.15v6.33h14.84v5.19h-20.4Z"/>
    <path class="st2" d="M589.36,552.38c1.42.62,2.75,1.54,3.99,2.78l-3.71,3.71c-1.23-1.48-2.96-2.22-5.19-2.22s-3.64.52-4.27,1.58c-.62,1.05-.62,1.94,0,2.69.62.74,2.04,1.29,4.27,1.67,2.36.24,4.48,1.01,6.4,2.32,1.92,1.29,2.87,3.37,2.87,6.22,0,2.22-1.02,4.14-3.07,5.75-2.05,1.61-4.43,2.41-7.15,2.41-2.58,0-4.74-.37-6.47-1.12s-3.21-1.73-4.45-2.96l3.71-3.71c1.24,1.48,3.34,2.35,6.31,2.6,2.47,0,4.01-.52,4.62-1.58.61-1.05.61-2.11,0-3.15-.62-1.05-2.15-1.7-4.62-1.95-2.23-.25-4.27-.93-6.12-2.04-1.86-1.11-2.78-3.03-2.78-5.75,0-2.46,1.05-4.44,3.17-5.93,2.11-1.49,4.27-2.23,6.5-2.23,2.58,0,4.59.3,6.01.93Z"/>
    <path class="st2" d="M606.22,579.28v-27.8l20.44-.02v5.19h-14.88v5.94h11.15v5.17h-11.15v6.33h14.84v5.19h-20.4Z"/>
    <path class="st2" d="M656.6,567.15l6.93,12.13h-6.38l-6.65-11.5h-5.09v11.5h-5.56v-27.82h12.13c6.49,0,9.73,2.67,9.73,8.01,0,4.02-1.7,6.58-5.12,7.68ZM645.41,562.59h7.79c2.24-.04,3.38-1.06,3.45-3.07-.06-1.82-1.19-2.78-3.39-2.85h-7.85v5.92Z"/>
    <path class="st2" d="M678.26,551.46l7.9,20.38,8.05-20.38h5.94l-11.11,27.82h-5.56l-11.14-27.82h5.94Z"/>
    <path class="st2" d="M710.89,579.28l11.13-27.82h5.56l11.11,27.8-5.92.02-1.67-4.27h-12.61l-1.67,4.27h-5.94ZM724.95,558.87l-4.23,10.58h8.35l-4.12-10.58Z"/>
    <path class="st2" d="M773.15,551.46v5.19h-9.27v22.63h-5.56v-22.63h-9.27v-5.19h24.11Z"/>
    <path class="st2" d="M784.88,551.43h5.55v27.84h-5.55v-27.84Z"/>
    <path class="st2" d="M806.18,575.28c-2.66-2.67-3.99-5.97-3.99-9.92s1.33-7.26,3.99-9.92,5.97-3.99,9.92-3.99,7.27,1.33,9.93,3.99c2.66,2.66,3.99,5.97,3.99,9.92s-1.33,7.27-3.99,9.93c-2.66,2.66-5.97,3.99-9.93,3.99s-7.26-1.33-9.92-3.99ZM816.13,574.08c2.46,0,4.46-.83,6.01-2.5,1.54-1.67,2.32-3.74,2.32-6.22s-.78-4.54-2.32-6.21c-1.54-1.67-3.56-2.5-6.04-2.5s-4.46.83-6.01,2.5c-1.55,1.67-2.32,3.74-2.32,6.21s.77,4.55,2.32,6.22c1.54,1.67,3.56,2.5,6.04,2.5Z"/>
    <path class="st2" d="M841.75,579.28v-27.82h1.85l17.44,17.43v-17.43h5.56v27.82h-2.04l-17.25-17.25v17.25h-5.56Z"/>
  </g>
</svg>