<?xml version="1.0" encoding="UTF-8"?>
<svg id="Layer_1" xmlns="http://www.w3.org/2000/svg" version="1.1" viewBox="0 0 830.74 93.52">
  <!-- Generator: Adobe Illustrator 30.1.0, SVG Export Plug-In . SVG Version: 2.1.1 Build 136)  -->
  <defs>
    <style>
      .st0 {
        fill: #fff;
      }
    </style>
  </defs>
  <path class="st0" d="M0,16.86h31.54c14.33,0,25.45,9.2,25.45,23.95s-11.12,24.06-25.45,24.06h-14.75v27.48H0V16.86ZM16.79,29.9v21.92h12.3c6.31,0,11.23-4.06,11.23-11.01s-4.92-10.91-11.23-10.91c0,0-12.3,0-12.3,0Z"/>
  <path class="st0" d="M111.3,16.86h16.79v75.48h-16.79s0-75.48,0-75.48Z"/>
  <path class="st0" d="M187.53,16.86h11.76l35.82,45.87V16.86h16.79v75.48h-12.3l-35.28-45.23v45.23h-16.79V16.86Z"/>
  <path class="st0" d="M311.34,16.86h11.76l35.82,45.87V16.86h16.79v75.48h-12.3l-35.28-45.23v45.23h-16.79V16.86h0Z"/>
  <path class="st0" d="M468.55,0s-1.16,19.51-.36,23.73c1.14,6.03,6.42-1.89,6.42-1.89l29.62,70.49h-17.75l-5.02-13.69h-29.51l-5.03,13.69h-18.43L468.55,0ZM476.53,64.97l-9.73-26.94-9.84,26.94h19.57Z"/>
  <path class="st0" d="M549.23,54.49c0-22.03,17-38.81,39.56-38.81,11.97,0,21.17,4.06,28.23,10.8l-11.23,11.33c-3.96-4.28-9.62-6.84-17-6.84-13.15,0-22.35,9.41-22.35,23.52s9.2,23.74,22.35,23.74c7.7,0,13.26-2.57,17.43-6.84l11.33,11.33c-7.27,6.74-16.36,10.8-28.65,10.8-22.56,0-39.67-16.89-39.67-39.02h0Z"/>
  <path class="st0" d="M671.65,16.86h16.79v60.73h33.47v14.75h-50.25V16.86h-.01Z"/>
  <path class="st0" d="M776.53,16.86h53.67v14.43h-36.89v15.5h33.68v14.01h-33.68v17h37.42v14.54h-54.21V16.86h.01Z"/>
</svg>