<?xml version="1.0" encoding="UTF-8"?>
<svg id="Layer_1" xmlns="http://www.w3.org/2000/svg" version="1.1" viewBox="0 0 1826.4 960.7">
  <!-- Generator: Adobe Illustrator 30.1.0, SVG Export Plug-In . SVG Version: 2.1.1 Build 136)  -->
  <defs>
    <style>
      .st0, .st1, .st2, .st3, .st4, .st5, .st6, .st7, .st8, .st9, .st10, .st11, .st12, .st13, .st14, .st15, .st16 {
        fill: none;
      }

      .st1, .st2, .st5 {
        stroke: #102e3f;
      }

      .st1, .st2, .st5, .st6, .st7, .st8, .st17, .st9, .st18, .st19, .st20, .st13, .st14, .st15, .st16 {
        stroke-miterlimit: 10;
      }

      .st1, .st6 {
        stroke-width: .8px;
      }

      .st2, .st7 {
        stroke-width: .7px;
      }

      .st3 {
        stroke-width: .9px;
      }

      .st3, .st4, .st6, .st7, .st21, .st22, .st8, .st17, .st9, .st18, .st10, .st11, .st12, .st20, .st13, .st16 {
        stroke: #faaf40;
      }

      .st3, .st4, .st21, .st22, .st8, .st10, .st11, .st12, .st13 {
        stroke-linecap: round;
      }

      .st3, .st4, .st21, .st22, .st10, .st11, .st12 {
        stroke-linejoin: round;
      }

      .st4, .st21 {
        stroke-width: .6px;
      }

      .st21, .st23, .st18, .st24 {
        fill: #faaf40;
      }

      .st22, .st17 {
        stroke-width: 2px;
      }

      .st22, .st17, .st19, .st25, .st20 {
        fill: #10202f;
      }

      .st8 {
        stroke-width: .4px;
      }

      .st9 {
        stroke-width: 2.7px;
      }

      .st26 {
        fill: #fff;
      }

      .st18 {
        stroke-width: .3px;
      }

      .st19 {
        stroke: #231f20;
        stroke-width: .1px;
      }

      .st19, .st27 {
        display: none;
      }

      .st24 {
        fill-rule: evenodd;
      }

      .st10, .st13 {
        stroke-width: 6px;
      }

      .st11, .st20 {
        stroke-width: 4px;
      }

      .st12 {
        stroke-width: 7px;
      }

      .st14 {
        stroke-width: 3.5px;
      }

      .st14, .st15 {
        stroke: #032131;
      }

      .st28 {
        fill: #102e3f;
      }

      .st15 {
        stroke-width: 2.6px;
      }

      .st16 {
        stroke-width: 2.9px;
      }
    </style>
  </defs>
  <rect class="st19" x="-46.8" width="1926.6" height="960.7"/>
  <g>
    <path class="st23" d="M541.7,807.6c-6.2-6.1-9.2-13.8-9.2-23.1s3.1-16.6,9.3-22.8,13.8-9.2,22.9-9.2,17.1,2.9,23.6,8.6l-8.6,9.4c-4.4-3.4-9.4-5.1-15.1-5.1s-10.4,1.8-14,5.4c-3.5,3.6-5.3,8.1-5.3,13.7,0,6,1.8,10.7,5.4,14.2,3.5,3.5,8.2,5.3,14,5.3s10.8-1.7,15-5.1l8.6,9.4c-6.5,5.7-14.4,8.6-23.6,8.6s-16.7-3.1-22.9-9.2l-.1-.1h0Z"/>
    <path class="st23" d="M625.6,807.6c-6.1-6.2-9.2-13.8-9.2-22.9s3.1-16.8,9.2-22.9,13.8-9.2,22.9-9.2,16.8,3.1,22.9,9.2,9.2,13.8,9.2,22.9-3.1,16.8-9.2,22.9c-6.1,6.2-13.8,9.2-22.9,9.2s-16.8-3.1-22.9-9.2ZM648.5,804.8c5.7,0,10.3-1.9,13.9-5.8,3.6-3.9,5.4-8.6,5.4-14.4s-1.8-10.5-5.4-14.4c-3.6-3.9-8.2-5.8-14-5.8s-10.3,1.9-13.9,5.8c-3.6,3.9-5.4,8.6-5.4,14.4s1.8,10.5,5.4,14.4c3.6,3.9,8.2,5.8,14,5.8Z"/>
    <path class="st23" d="M707.8,816.8v-64.3h4.3l40.3,40.3v-40.3h12.9v64.3h-4.7l-39.9-39.9v39.9h-12.9,0Z"/>
    <path class="st23" d="M831,754.7c3.3,1.4,6.4,3.6,9.2,6.4l-8.6,8.6c-2.9-3.4-6.9-5.1-12-5.1s-8.4,1.2-9.9,3.6c-1.4,2.4-1.4,4.5,0,6.2s4.7,3,9.9,3.9c5.4.6,10.4,2.4,14.8,5.4,4.4,3,6.6,7.8,6.6,14.4s-2.4,9.6-7.1,13.3c-4.7,3.7-10.2,5.6-16.5,5.6s-11-.9-15-2.6c-4-1.7-7.4-4-10.3-6.9l8.6-8.6c2.9,3.4,7.7,5.4,14.6,6,5.7,0,9.3-1.2,10.7-3.6,1.4-2.4,1.4-4.9,0-7.3-1.4-2.4-5-3.9-10.7-4.5-5.1-.6-9.9-2.1-14.2-4.7-4.3-2.6-6.4-7-6.4-13.3s2.4-10.3,7.3-13.7c4.9-3.4,9.9-5.2,15-5.2s10.6.7,13.9,2.1h.1Z"/>
    <path class="st23" d="M882,752.5v37.3c0,4.9,1.4,8.4,4.3,10.7,2.9,2.3,6.4,3.4,10.7,3.4s7.9-1.1,10.7-3.4c2.9-2.3,4.3-5.9,4.3-10.7v-37.3h12.9v40.7c0,6.6-2.6,12.2-7.9,16.7s-11.9,6.9-19.9,6.9-14.6-2.3-19.9-6.9c-5.3-4.6-7.9-10.2-7.9-16.7v-40.7h12.9-.2,0Z"/>
    <path class="st23" d="M969.3,752.5v52.3h34.3v12h-47.2v-64.3h12.9Z"/>
    <path class="st23" d="M1084.3,752.5v12h-21.4v52.3h-12.9v-52.3h-21.4v-12h55.7Z"/>
    <path class="st23" d="M1111.4,752.5h12.8v64.4h-12.8v-64.4Z"/>
    <path class="st23" d="M1154.7,816.8v-64.3h4.3l40.3,40.3v-40.3h12.9v64.3h-4.7l-39.9-39.9v39.9h-12.9Z"/>
    <path class="st23" d="M1248.8,807.6c-6.2-6.1-9.2-13.8-9.2-23.1s3.1-16.6,9.3-22.8c6.1-6.2,13.8-9.2,22.9-9.2s17.1,2.9,23.6,8.6l-8.6,9.4c-4.4-3.4-9.4-5.1-15.1-5.1s-10.4,1.8-14,5.4c-3.5,3.6-5.3,8.1-5.3,13.7,0,6,1.8,10.7,5.4,14.2,3.5,3.5,8.2,5.3,14,5.3s8.2-.9,10.7-2.7v-11h-8.6v-12h21.4v30c-6.5,5.7-14.4,8.6-23.6,8.6s-16.7-3.1-22.9-9.2v-.1h0Z"/>
  </g>
  <g>
    <g>
      <path class="st18" d="M27.5,566.8v-36.3h2.4l22.8,22.8v-22.8h7.3v36.3h-2.7l-22.5-22.5v22.5s-7.3,0-7.3,0Z"/>
      <path class="st18" d="M27.5,626.4v-36.3h7.3v14.5h16.9v-14.6h7.3v36.3h-7.3v-15h-16.9v15h-7.3s0,.1,0,.1Z"/>
    </g>
    <g>
      <path class="st18" d="M1776.1,530.5v21.1c0,2.7.8,4.8,2.4,6.1s3.6,1.9,6.1,1.9,4.4-.6,6.1-1.9c1.6-1.3,2.4-3.3,2.4-6.1v-21.1h7.3v23c0,3.7-1.5,6.9-4.5,9.5s-6.7,3.9-11.3,3.9-8.3-1.3-11.3-3.9c-3-2.6-4.5-5.7-4.5-9.5v-23h7.3Z"/>
      <path class="st18" d="M1789,591.2c1.9.8,3.6,2,5.2,3.6l-4.8,4.8c-1.6-1.9-3.9-2.9-6.8-2.9s-4.8.7-5.6,2.1c-.8,1.4-.8,2.5,0,3.5s2.7,1.7,5.6,2.2c3.1.3,5.9,1.3,8.4,3s3.8,4.4,3.8,8.1-1.3,5.4-4,7.5-5.8,3.2-9.3,3.2-6.2-.5-8.5-1.5-4.2-2.3-5.8-3.9l4.8-4.8c1.6,1.9,4.4,3.1,8.2,3.4,3.2,0,5.2-.7,6-2.1.8-1.4.8-2.7,0-4.1s-2.8-2.2-6-2.5c-2.9-.3-5.6-1.2-8-2.7s-3.6-4-3.6-7.5,1.4-5.8,4.1-7.7,5.6-2.9,8.5-2.9,6,.4,7.9,1.2h-.1,0Z"/>
    </g>
    <g>
      <path class="st26" d="M176.4,563.5c0,1.5,4,2.8,8.9,2.8h48.2c5.1,0,8.1,3.8,6.6,8.5l-3.6,13.6c-1.3,4.9-6.4,8.7-11.2,8.7h-39.9c-4.9,0-8.9,4-8.9,8.9v8.9c0,4.9,1.1,12.7,2.5,17.4l3.2,9.6c1.5,4.7-1.3,8.5-6.4,8.5h-37.6c-4.9,0-7.6-3.8-6.2-8.5l3-9.1c1.5-4.7,2.8-12.5,2.8-17.4v-73c0-4.9-1.1-12.7-2.3-17.6l-3.8-13.6c-1.3-4.7,1.7-8.5,6.6-8.5h104.6c1.7,0,4,3.8,5.5,8.5l5.3,19.9c1.3,4.9-1.5,7.9-6.4,7l-15.7-3c-4.7-1.1-12.7-1.7-17.6-1.7h-33.5c-2.1,0-4,4-4,8.9v21.2h-.1Z"/>
      <path class="st26" d="M396.7,624.2h-46.1c-4.9,0-9.8,3.8-11,8.7l-1.9,8.7c-1.3,4.9-6.2,8.7-11,8.7h-30.1c-4.9,0-7-3.4-4.5-7.6l6.4-10.8c2.5-4.2,6.2-11.2,8.1-15.9l45.2-105.1c1.9-4.7,7.4-8.3,12.5-8.3h21.6c4.9,0,10.4,3.6,12.3,8.3l44.1,105.1c1.9,4.5,5.5,11.7,7.9,15.9l6.4,10.8c2.5,4.3.4,7.6-4.5,7.6h-33.3c-4.9,0-9.6-4-10.4-8.9l-1.3-8.5c-.8-4.9-5.5-8.7-10.4-8.7h0ZM390.9,586.5l-13.8-36.1c-1.7-4.7-4.7-4.7-6.4,0l-14.2,36.1c-1.9,4.5.6,8.3,5.7,8.3h22.9c4.9,0,7.4-3.8,5.7-8.3h.1,0Z"/>
      <path class="st26" d="M584.9,609.4h-17.6c-4.9,0-8.9,3.4-8.9,7.4s1.3,11,2.8,15.7l3,9.3c1.5,4.7-1.3,8.5-6.4,8.5h-37.6c-4.9,0-7.6-3.8-6.2-8.5l3-9.3c1.5-4.7,2.8-12.5,2.8-17.4v-72.8c0-4.9-1.1-12.7-2.3-17.4l-3.8-13.6c-1.3-4.9,1.7-8.7,6.6-8.7h66c39.3,0,61.5,18.9,61.5,51.8s-6.6,33.5-18.9,42.9c-3.8,3-5.9,8.5-3.2,12.7,3.4,5.1,8.5,11.7,15.1,14.4,4.5,1.7,8.9,5.1,7.2,9.8-3.2,8.7-11.5,16.1-23.8,16.1-31,0-27.4-41-39.3-41v.1h0ZM567.3,578.6h19.1c15.5,0,24.6-7.9,24.6-22.9s-9.1-22.3-24.6-22.3h-19.1c-4.9,0-8.9,4-8.9,8.9v27.4c0,5.1,4,8.9,8.9,8.9h0Z"/>
      <path class="st26" d="M763.4,510.7l31.8,70c2.1,4.5,5.3,4.5,7.4,0l31.8-70c1.9-4.5,7.6-8.1,12.5-8.1h32.7c5.1,0,7.9,3.8,6.6,8.5l-3.6,13.6c-1.3,4.9-2.3,12.7-2.3,17.6v69.4c0,4.9,1.1,12.7,2.3,17.4l3.6,12.5c1.3,4.9-1.5,8.7-6.6,8.7h-33.1c-4.9,0-7.9-3.8-6.6-8.7l3.6-12.7c1.3-4.7,2.3-12.5,2.3-17.4v-45.8c0-4.9-1.7-5.3-3.6-.6l-27.2,62.4c-2.1,4.5-7.6,8.1-12.5,8.1h-7.4c-4.9,0-10.6-3.6-12.5-8.1l-27.2-62.4c-2.1-4.7-3.6-4.2-3.6.6v75.8c0,4.9-4,8.9-8.9,8.9h-25c-4.9,0-7.9-3.8-6.4-8.5l3.6-12.7c1.3-4.9,2.3-12.5,2.3-17.6v-69.2c0-4.9-1.1-12.7-2.3-17.6l-3.8-13.6c-1.3-4.7,1.7-8.5,6.6-8.5h32.9c4.9,0,10.4,3.6,12.5,8.1l.1-.1h0Z"/>
      <path class="st26" d="M1008.9,511.1l-3.8,13.6c-1.3,4.9-2.3,12.7-2.3,17.6v66.2c0,4.9,4,8.9,8.9,8.9h17c4.9,0,12.7-1.1,17.4-2.5l13.2-4c4.7-1.5,7.6,1.3,6.4,5.9l-6.4,24.8c-1.3,4.9-6.2,8.7-11.2,8.7h-83.2c-4.9,0-7.9-3.8-6.8-8.7l4-15.5c1.3-4.9,2.3-12.7,2.3-17.6v-66.2c0-4.9-1.1-12.7-2.5-17.6l-3.6-13.6c-1.3-4.7,1.7-8.5,6.6-8.5h37.6c4.9,0,7.9,3.8,6.6,8.5h-.2Z"/>
      <path class="st26" d="M1216.6,624.2h-46.1c-4.9,0-9.8,3.8-11,8.7l-1.9,8.7c-1.3,4.9-6.2,8.7-11,8.7h-30.1c-4.9,0-7-3.4-4.5-7.6l6.4-10.8c2.5-4.2,6.2-11.2,8.1-15.9l45.2-105.1c1.9-4.7,7.4-8.3,12.5-8.3h21.6c4.9,0,10.4,3.6,12.3,8.3l44.1,105.1c1.9,4.5,5.5,11.7,7.9,15.9l6.4,10.8c2.5,4.3.4,7.6-4.5,7.6h-33.3c-4.9,0-9.6-4-10.4-8.9l-1.3-8.5c-.9-4.9-5.5-8.7-10.4-8.7h0ZM1210.9,586.5l-13.8-36.1c-1.7-4.7-4.7-4.7-6.4,0l-14.2,36.1c-1.9,4.5.6,8.3,5.7,8.3h22.9c4.9,0,7.4-3.8,5.7-8.3h.1Z"/>
      <path class="st26" d="M1378.9,509.6l56.2,74.7c3,4,5.5,3.2,5.5-1.7v-40.3c0-4.9-1.1-12.7-2.3-17.6l-3.8-13.6c-1.3-4.7,1.7-8.5,6.6-8.5h34.8c4.9,0,7.9,3.8,6.6,8.5l-3.6,13.6c-1.5,4.9-2.5,12.7-2.5,17.6v69.2c0,4.9,1.3,12.7,2.5,17.6l3.6,12.5c1.3,4.9-1.7,8.7-6.6,8.7h-24.2c-5.1,0-11.5-3.2-14.4-7.2l-56.2-74.3c-3-3.8-5.3-3-5.3,1.9v40.7c0,4.9,1.1,12.7,2.3,17.4l3.6,12.7c1.3,4.9-1.5,8.7-6.6,8.7h-35c-4.9,0-7.9-3.8-6.4-8.7l3.6-12.7c1.3-4.7,2.3-12.5,2.3-17.4v-69.2c0-5.1-1.1-12.9-2.3-17.6l-3.8-13.6c-1.3-4.7,1.7-8.5,6.6-8.5h24.6c4.9,0,11.2,3.2,14.2,7v.1h0Z"/>
      <path class="st26" d="M1622.8,650.3h-61.5c-5.1,0-8.1-3.8-6.8-8.7l3.8-13.8c1.3-4.9,2.3-12.7,2.3-17.6v-67.3c0-4.9-1.1-12.7-2.3-17.6l-3.8-14c-1.3-4.9,1.7-8.7,6.8-8.7h63c46.9,0,78.5,29.9,78.5,73.6s-32,74.1-80,74.1ZM1623.4,534h-15.3c-4.9,0-8.9,4-8.9,8.9v67.3c0,4.9,4,8.9,8.9,8.9h17.2c22.3,0,38.2-17,38.2-42.5s-16.8-42.7-40.1-42.7v.1h0Z"/>
    </g>
  </g>
  <g class="st27">
    <path class="st26" d="M79.9,934.2c1.4.6,2.7,1.5,3.9,2.7l-3.6,3.7c-1.2-1.5-2.9-2.2-5.1-2.2s-3.6.5-4.2,1.6c-.6,1-.6,1.9,0,2.6.6.7,2,1.3,4.2,1.6,2.3.2,4.4,1,6.3,2.3s2.8,3.3,2.8,6.1-1,4.1-3,5.7-4.4,2.4-7,2.4-4.7-.4-6.4-1.1c-1.7-.7-3.2-1.7-4.4-2.9l3.6-3.7c1.2,1.5,3.3,2.3,6.2,2.6,2.4,0,4-.5,4.6-1.6s.6-2.1,0-3.1-2.1-1.7-4.6-1.9c-2.2-.2-4.2-.9-6-2s-2.7-3-2.7-5.7,1-4.4,3.1-5.8c2.1-1.5,4.2-2.2,6.4-2.2s4.5.3,5.9.9h0Z"/>
    <path class="st26" d="M101.6,933.3v15.9c0,2.1.6,3.6,1.8,4.6s2.7,1.5,4.6,1.5,3.3-.5,4.6-1.5c1.2-1,1.8-2.5,1.8-4.6v-15.9h5.5v17.3c0,2.8-1.1,5.2-3.4,7.1-2.3,1.9-5.1,2.9-8.5,2.9s-6.2-1-8.5-2.9-3.4-4.3-3.4-7.1v-17.3h5.5Z"/>
    <path class="st26" d="M133.2,960.7v-27.4h11.9c6.4,0,9.6,2.6,9.6,7.9s-3.2,8.2-9.6,8.2h-6.5v11.3h-5.5.1ZM138.7,944.2h7.7c2.2,0,3.3-1,3.4-3,0-1.8-1.2-2.7-3.3-2.8h-7.7v5.8h-.1,0Z"/>
    <path class="st26" d="M166.3,960.7v-27.4h11.9c6.4,0,9.6,2.6,9.6,7.9s-3.2,8.2-9.6,8.2h-6.5v11.3h-5.5.1ZM171.7,944.2h7.7c2.2,0,3.3-1,3.4-3,0-1.8-1.2-2.7-3.3-2.8h-7.7v5.8h-.1,0Z"/>
    <path class="st26" d="M201.8,956.7c-2.6-2.6-3.9-5.9-3.9-9.8s1.3-7.1,3.9-9.8c2.6-2.6,5.9-3.9,9.8-3.9s7.1,1.3,9.8,3.9c2.6,2.6,3.9,5.9,3.9,9.8s-1.3,7.2-3.9,9.8c-2.6,2.6-5.9,3.9-9.8,3.9s-7.1-1.3-9.8-3.9ZM211.6,955.5c2.4,0,4.4-.8,5.9-2.5,1.5-1.6,2.3-3.7,2.3-6.1s-.8-4.5-2.3-6.1-3.5-2.5-6-2.5-4.4.8-5.9,2.5-2.3,3.7-2.3,6.1.8,4.5,2.3,6.1,3.5,2.5,6,2.5Z"/>
    <path class="st26" d="M253.3,948.7l6.8,11.9h-6.3l-6.6-11.3h-5v11.3h-5.5v-27.4h11.9c6.4,0,9.6,2.6,9.6,7.9s-1.7,6.5-5,7.6h.1ZM242.3,944.2h7.7c2.2,0,3.3-1,3.4-3,0-1.8-1.2-2.7-3.3-2.8h-7.7v5.8h-.1,0Z"/>
    <path class="st26" d="M292.8,933.3v5.1h-9.1v22.3h-5.5v-22.3h-9.1v-5.1h23.7Z"/>
    <path class="st26" d="M304.3,933.3h5.5v27.4h-5.5v-27.4Z"/>
    <path class="st26" d="M322.7,960.7v-27.4h1.8l17.2,17.2v-17.2h5.5v27.4h-2l-17-17v17h-5.5Z"/>
    <path class="st26" d="M362.8,956.7c-2.6-2.6-3.9-5.9-3.9-9.8s1.3-7.1,3.9-9.7c2.6-2.6,5.9-3.9,9.7-3.9s7.3,1.2,10.1,3.6l-3.6,4c-1.9-1.5-4-2.2-6.4-2.2s-4.4.8-5.9,2.3-2.3,3.5-2.3,5.8c0,2.5.8,4.6,2.3,6.1s3.5,2.2,6,2.2,3.5-.4,4.5-1.2v-4.7h-3.6v-5.1h9.1v12.8c-2.8,2.4-6.1,3.7-10.1,3.7s-7.1-1.3-9.7-3.9h-.1Z"/>
    <path class="st26" d="M418.4,956.7c-2.6-2.6-3.9-5.9-3.9-9.8s1.3-7.1,3.9-9.7c2.6-2.6,5.9-3.9,9.7-3.9s7.3,1.2,10.1,3.6l-3.6,4c-1.9-1.5-4-2.2-6.4-2.2s-4.4.8-5.9,2.3-2.3,3.5-2.3,5.8c0,2.5.8,4.6,2.3,6.1s3.5,2.2,5.9,2.2,4.6-.7,6.4-2.2l3.6,4c-2.8,2.4-6.1,3.7-10.1,3.7s-7.1-1.3-9.7-3.9h0Z"/>
    <path class="st26" d="M454.1,956.7c-2.6-2.6-3.9-5.9-3.9-9.8s1.3-7.1,3.9-9.8c2.6-2.6,5.9-3.9,9.8-3.9s7.1,1.3,9.8,3.9c2.6,2.6,3.9,5.9,3.9,9.8s-1.3,7.2-3.9,9.8-5.9,3.9-9.8,3.9-7.1-1.3-9.8-3.9ZM463.9,955.5c2.4,0,4.4-.8,5.9-2.5,1.5-1.6,2.3-3.7,2.3-6.1s-.8-4.5-2.3-6.1-3.5-2.5-6-2.5-4.4.8-5.9,2.5-2.3,3.7-2.3,6.1.8,4.5,2.3,6.1,3.5,2.5,6,2.5Z"/>
    <path class="st26" d="M489.1,960.7v-27.4h1.8l11.9,13.5,11.9-13.5h1.8v27.4h-5.5v-15.9l-8.2,9.1-8.2-9.1v15.9h-5.5,0Z"/>
    <path class="st26" d="M529.4,960.7v-27.4h1.8l11.9,13.5,11.9-13.5h1.8v27.4h-5.5v-15.9l-8.2,9.1-8.2-9.1v15.9h-5.5Z"/>
    <path class="st26" d="M574.8,933.3v15.9c0,2.1.6,3.6,1.8,4.6s2.7,1.5,4.6,1.5,3.3-.5,4.6-1.5c1.2-1,1.8-2.5,1.8-4.6v-15.9h5.5v17.3c0,2.8-1.1,5.2-3.4,7.1-2.3,1.9-5.1,2.9-8.5,2.9s-6.2-1-8.5-2.9-3.4-4.3-3.4-7.1v-17.3h5.5Z"/>
    <path class="st26" d="M606.4,960.7v-27.4h1.8l17.2,17.2v-17.2h5.5v27.4h-2l-17-17v17h-5.5Z"/>
    <path class="st26" d="M644,933.3h5.5v27.4h-5.5v-27.4Z"/>
    <path class="st26" d="M684.8,933.3v5.1h-9.1v22.3h-5.5v-22.3h-9.1v-5.1h23.7,0Z"/>
    <path class="st26" d="M696.3,933.3h5.5v27.4h-5.5v-27.4Z"/>
    <path class="st26" d="M714.7,960.7v-27.4h20.1v5.1h-14.6v5.8h11v5.1h-11v6.2h14.6v5.1h-20.1v.1h0Z"/>
    <path class="st26" d="M762.6,934.2c1.4.6,2.7,1.5,3.9,2.7l-3.6,3.7c-1.2-1.5-2.9-2.2-5.1-2.2s-3.6.5-4.2,1.6c-.6,1-.6,1.9,0,2.6.6.7,2,1.3,4.2,1.6,2.3.2,4.4,1,6.3,2.3,1.9,1.3,2.8,3.3,2.8,6.1s-1,4.1-3,5.7c-2,1.6-4.4,2.4-7,2.4s-4.7-.4-6.4-1.1c-1.7-.7-3.2-1.7-4.4-2.9l3.6-3.7c1.2,1.5,3.3,2.3,6.2,2.6,2.4,0,4-.5,4.6-1.6.6-1,.6-2.1,0-3.1s-2.1-1.7-4.6-1.9c-2.2-.2-4.2-.9-6-2s-2.7-3-2.7-5.7,1-4.4,3.1-5.8,4.2-2.2,6.4-2.2,4.5.3,5.9.9h0Z"/>
    <path class="st26" d="M821.9,933.3v5.1h-9.1v22.3h-5.5v-22.3h-9.1v-5.1h23.7,0Z"/>
    <path class="st26" d="M833.4,960.7v-27.4h5.5v11h12.8v-11h5.5v27.4h-5.5v-11.3h-12.8v11.3h-5.5Z"/>
    <path class="st26" d="M887,948.7l6.8,11.9h-6.3l-6.6-11.3h-5v11.3h-5.5v-27.4h11.9c6.4,0,9.6,2.6,9.6,7.9s-1.7,6.5-5,7.6h.1ZM876,944.2h7.7c2.2,0,3.3-1,3.4-3,0-1.8-1.2-2.7-3.3-2.8h-7.7v5.8h-.1Z"/>
    <path class="st26" d="M906.7,956.7c-2.6-2.6-3.9-5.9-3.9-9.8s1.3-7.1,3.9-9.8,5.9-3.9,9.8-3.9,7.2,1.3,9.8,3.9c2.6,2.6,3.9,5.9,3.9,9.8s-1.3,7.2-3.9,9.8-5.9,3.9-9.8,3.9-7.1-1.3-9.8-3.9ZM916.4,955.5c2.4,0,4.4-.8,5.9-2.5,1.5-1.6,2.3-3.7,2.3-6.1s-.8-4.5-2.3-6.1-3.5-2.5-5.9-2.5-4.4.8-5.9,2.5c-1.5,1.6-2.3,3.7-2.3,6.1s.8,4.5,2.3,6.1,3.5,2.5,5.9,2.5Z"/>
    <path class="st26" d="M946.7,933.3v15.9c0,2.1.6,3.6,1.8,4.6s2.7,1.5,4.6,1.5,3.3-.5,4.6-1.5c1.2-1,1.8-2.5,1.8-4.6v-15.9h5.5v17.3c0,2.8-1.1,5.2-3.4,7.1-2.2,1.9-5.1,2.9-8.5,2.9s-6.2-1-8.5-2.9-3.4-4.3-3.4-7.1v-17.3h5.5Z"/>
    <path class="st26" d="M980.8,956.7c-2.6-2.6-3.9-5.9-3.9-9.8s1.3-7.1,3.9-9.7,5.9-3.9,9.7-3.9,7.3,1.2,10.1,3.6l-3.7,4c-1.9-1.5-4-2.2-6.4-2.2s-4.4.8-5.9,2.3-2.3,3.5-2.3,5.8c0,2.5.8,4.6,2.3,6.1s3.5,2.2,5.9,2.2,3.5-.4,4.5-1.2v-4.7h-3.7v-5.1h9.1v12.8c-2.8,2.4-6.1,3.7-10.1,3.7s-7.1-1.3-9.7-3.9h.2Z"/>
    <path class="st26" d="M1013.6,960.7v-27.4h5.5v11h12.8v-11h5.5v27.4h-5.5v-11.3h-12.8v11.3h-5.5Z"/>
    <path class="st26" d="M1070.9,960.7v-27.4h19.3v5.1h-13.8v5.8h10.2v5.1h-10.2v11.3h-5.5v.1h0Z"/>
    <path class="st26" d="M1100.2,960.7l11-27.4h5.5l10.9,27.4h-5.8l-1.6-4.2h-12.4l-1.6,4.2h-6ZM1114,940.6l-4.2,10.4h8.2l-4.1-10.4h.1Z"/>
    <path class="st26" d="M1155.6,948.7l6.8,11.9h-6.3l-6.5-11.3h-5v11.3h-5.5v-27.4h11.9c6.4,0,9.6,2.6,9.6,7.9s-1.7,6.5-5,7.6ZM1144.6,944.2h7.7c2.2,0,3.3-1,3.4-3,0-1.8-1.2-2.7-3.3-2.8h-7.7v5.8h-.1Z"/>
    <path class="st26" d="M1172.7,960.7v-27.4h1.8l11.9,13.5,11.9-13.5h1.8v27.4h-5.5v-15.9l-8.2,9.1-8.2-9.1v15.9h-5.5Z"/>
    <path class="st26" d="M1218.6,933.3v22.3h14.6v5.1h-20.1v-27.4h5.5Z"/>
    <path class="st26" d="M1243.7,960.7l11-27.4h5.5l10.9,27.4h-5.8l-1.6-4.2h-12.4l-1.6,4.2h-6ZM1257.5,940.6l-4.2,10.4h8.2l-4.1-10.4h.1Z"/>
    <path class="st26" d="M1282.6,960.7v-27.4h1.8l17.2,17.2v-17.2h5.5v27.4h-2l-17-17v17h-5.5Z"/>
    <path class="st26" d="M1320.2,960.7v-27.4h10.5c8.5,0,12.8,4.6,12.8,13.7s-4.3,13.7-12.8,13.7h-10.5ZM1330.8,955.2c4.9,0,7.3-2.8,7.3-8.2s-2.4-8.2-7.3-8.2h-5.1v16.4h5.1Z"/>
    <path class="st26" d="M1377.1,960.7v-27.4h11.9c6.4,0,9.6,2.6,9.6,7.9s-3.2,8.2-9.6,8.2h-6.5v11.3h-5.5.1ZM1382.6,944.2h7.7c2.2,0,3.3-1,3.4-3,0-1.8-1.2-2.7-3.3-2.8h-7.7v5.8h-.1Z"/>
    <path class="st26" d="M1426.6,948.7l6.8,11.9h-6.3l-6.5-11.3h-5v11.3h-5.5v-27.4h11.9c6.4,0,9.6,2.6,9.6,7.9s-1.7,6.5-5,7.6ZM1415.6,944.2h7.7c2.2,0,3.3-1,3.4-3,0-1.8-1.2-2.7-3.3-2.8h-7.7v5.8h-.1Z"/>
    <path class="st26" d="M1443.7,960.7v-27.4h20.1v5.1h-14.6v5.8h11v5.1h-11v6.2h14.6v5.1h-20.1v.1h0Z"/>
    <path class="st26" d="M1491.6,934.2c1.4.6,2.7,1.5,3.9,2.7l-3.7,3.7c-1.2-1.5-2.9-2.2-5.1-2.2s-3.6.5-4.2,1.6c-.6,1-.6,1.9,0,2.6.6.7,2,1.3,4.2,1.6,2.3.2,4.4,1,6.3,2.3s2.8,3.3,2.8,6.1-1,4.1-3,5.7c-2,1.6-4.4,2.4-7,2.4s-4.7-.4-6.4-1.1-3.2-1.7-4.4-2.9l3.7-3.7c1.2,1.5,3.3,2.3,6.2,2.6,2.4,0,3.9-.5,4.6-1.6.6-1,.6-2.1,0-3.1s-2.1-1.7-4.6-1.9c-2.2-.2-4.2-.9-6-2s-2.7-3-2.7-5.7,1-4.4,3.1-5.8c2.1-1.5,4.2-2.2,6.4-2.2s4.5.3,5.9.9h0Z"/>
    <path class="st26" d="M1508.2,960.7v-27.4h20.1v5.1h-14.6v5.8h11v5.1h-11v6.2h14.6v5.1h-20.1v.1h0Z"/>
    <path class="st26" d="M1557.8,948.7l6.8,11.9h-6.3l-6.5-11.3h-5v11.3h-5.5v-27.4h11.9c6.4,0,9.6,2.6,9.6,7.9s-1.7,6.5-5,7.6ZM1546.8,944.2h7.7c2.2,0,3.3-1,3.4-3,0-1.8-1.2-2.7-3.3-2.8h-7.7v5.8h-.1Z"/>
    <path class="st26" d="M1579.1,933.3l7.8,20.1,7.9-20.1h5.8l-10.9,27.4h-5.5l-11-27.4h5.9,0Z"/>
    <path class="st26" d="M1611.2,960.7l11-27.4h5.5l10.9,27.4h-5.8l-1.6-4.2h-12.4l-1.6,4.2h-6ZM1625,940.6l-4.2,10.4h8.2l-4.1-10.4h.1Z"/>
    <path class="st26" d="M1672.5,933.3v5.1h-9.1v22.3h-5.5v-22.3h-9.1v-5.1h23.7Z"/>
    <path class="st26" d="M1684,933.3h5.5v27.4h-5.5v-27.4Z"/>
    <path class="st26" d="M1705,956.7c-2.6-2.6-3.9-5.9-3.9-9.8s1.3-7.1,3.9-9.8c2.6-2.6,5.9-3.9,9.8-3.9s7.2,1.3,9.8,3.9c2.6,2.6,3.9,5.9,3.9,9.8s-1.3,7.2-3.9,9.8-5.9,3.9-9.8,3.9-7.1-1.3-9.8-3.9ZM1714.8,955.5c2.4,0,4.4-.8,5.9-2.5,1.5-1.6,2.3-3.7,2.3-6.1s-.8-4.5-2.3-6.1-3.5-2.5-5.9-2.5-4.4.8-5.9,2.5c-1.5,1.6-2.3,3.7-2.3,6.1s.8,4.5,2.3,6.1,3.5,2.5,5.9,2.5Z"/>
    <path class="st26" d="M1740,960.7v-27.4h1.8l17.2,17.2v-17.2h5.5v27.4h-2l-17-17v17h-5.5Z"/>
  </g>
  <g>
    <polygon class="st10" points="953.1 193.1 882.6 100.9 824.7 168.2 768.2 199.6 779.7 197.1 777.8 313.9 940.4 285.7 940.4 193.1 953.1 193.1"/>
    <polygon class="st13" points="910.2 287.6 852.3 296.8 853.3 200.1 911.1 201.5 910.2 287.6"/>
    <polygon class="st23" points="829.4 214.6 798.8 213.2 798.3 307.9 829 299.5 829.4 214.6"/>
    <g>
      <polygon class="st28" points="867.5 174.1 867.9 140.7 893.9 141.4 893.5 174.8 867.5 174.1"/>
      <path class="st23" d="M869.4,142.2l23,.6-.4,30.4-23-.6.3-30.4M866.4,139.2v3l-.4,30.4v3h2.9l23,.6h3v-3l.4-30.4v-3h-2.9l-23-.6h-3Z"/>
    </g>
    <line class="st10" x1="855.9" y1="204.6" x2="910.2" y2="287.6"/>
    <line class="st10" x1="852.3" y1="296.8" x2="909.2" y2="204.6"/>
    <line class="st12" x1="883" y1="101.4" x2="986" y2="101.4"/>
    <line class="st10" x1="953.8" y1="192.3" x2="1190" y2="192.5"/>
    <path class="st3" d="M1155.6,281.7c-118.9-15.7-212.2,3.5-212.2,3.5"/>
    <line class="st10" x1="1116.3" y1="101.4" x2="1189.9" y2="192.5"/>
    <path class="st12" d="M1310.5,339.2s-97.6-117.1-493.4-31.9c-395.8,85.2-228.9,21.3-228.9,21.3"/>
    <line class="st10" x1="1003.9" y1="80.3" x2="972.2" y2="80.3"/>
    <line class="st12" x1="1037.6" y1="101.4" x2="1116.3" y2="101.4"/>
    <polyline class="st10" points="989.9 51.4 961 80.3 972.2 80.3 972.2 100.1"/>
    <polygon class="st21" points="988 48.6 1008.4 80.3 1063.2 80.3 1042.3 48.6 988 48.6"/>
    <line class="st8" x1="1014.6" y1="30" x2="1014.6" y2="45.8"/>
    <g>
      <path class="st24" d="M1011.5,32.2l-7-4.1-1.9-2.6-.6-2.8s.8-3.6,0-4.8c-.2-.3-.5-.4-.8-.4-1.2,0-4-3.3-4-4.8s0-.3.2-.4c.1-.1.3-.2.5-.2s.6,0,1,.2c.6.2,1.2.3,2,.3,1,0,2.1-.2,2.9-.4.6-.1,1.1-.2,1.5-.2s.4,0,.5.1c.3.2-.2,1.6-.4,2.4-.1.4-.2.8-.3,1.1-.6,2.7.9,5.8,2.6,6.9.7.5,1.1.7,1.3.9l-.3.2v.3c.3,0,.5-.2.7-.2l.3-.2h0c.9-.5,1.5-.9,1.9-1.2.5-.4.8-.6,1.1-.6.5,0,1.2.6,2.9,2.1.7.6,1.2.9,1.7.9h0c.4,0,.7-.1.9-.4,1.3-1.4,1.2-5.7,1.2-6.6l11.6-3-8.8,6.2-5.4,11.4h-2.7c0,.1.4,2.4.4,2.4l-2.9-2.4-.1-.1h0Z"/>
      <path class="st23" d="M1005.1,12.1h.4c.2.2-.2,1.6-.4,2.2-.1.4-.3.8-.3,1.1-.6,2.8.9,6,2.7,7.1l1.1.7h0l.3.6c.2,0,.4-.2.5-.2h0l.5-.3h0c.8-.4,1.3-.8,1.7-1.1.5-.3.7-.5,1-.5.5,0,1.2.6,2.8,2.1.7.6,1.3.9,1.9.9s.8-.2,1.1-.5c1.3-1.4,1.2-5.5,1.2-6.6l10.6-2.7-8.1,5.7h0v.1l-5.3,11.2h-2.4c0,.1-.4.1-.4.1v.4l.4,1.6-2.5-2.1h0l-6.9-4-1.9-2.6-.6-2.8c.1-.6.8-3.8-.1-4.9-.2-.3-.6-.4-.9-.4-.7,0-2.4-1.6-3.3-3.2-.5-.9-.6-1.5-.5-1.7,0-.1.2-.2.5-.2.2,0,.6,0,.9.2.6.2,1.3.3,2,.3,1.1,0,2.1-.2,2.9-.4.6-.1,1.1-.2,1.5-.2M1005.1,11.8c-1,0-2.6.6-4.4.6s-1.3,0-1.9-.3c-.4-.1-.8-.2-1-.2-2.7,0,1.6,5.8,3.3,5.8s.7,5,.7,5l.6,2.9,2,2.7,7,4.1,3.2,2.7-.5-2.5h2.6c0-.1,5.4-11.5,5.4-11.5l9.6-6.8-12.6,3.2s.4,7-1.9,7-1-.3-1.6-.9c-1.7-1.6-2.4-2.2-3-2.2-.7,0-1.3.9-3.3,1.9h0c-.2,0-.3.2-.5.2l.5-.2h0s-.1,0-1.6-1.1c-1.6-1.1-3.1-4.1-2.5-6.7.2-1,1.2-3.3.6-3.6-.1,0-.3-.1-.6-.1h-.1Z"/>
    </g>
    <line class="st11" x1="880.7" y1="142.5" x2="880.7" y2="172.9"/>
    <g>
      <line class="st8" x1="999.2" y1="37" x2="1028.6" y2="37"/>
      <line class="st0" x1="999.2" y1="37" x2="1028.6" y2="37"/>
    </g>
    <path class="st1" d="M662.8,393.5c-2.3-11.7-3.6-27.5-10.6-36.2"/>
    <path class="st2" d="M665.8,392.9c-2.8-14.1-4.3-32.9-12.7-43.4"/>
    <path class="st6" d="M657.2,391.2c2.4-10.7,7.5-20.7,14.1-28.5"/>
    <path class="st6" d="M657.5,392.9c-2.3-11.7-7.5-22.9-14.6-31.6-2-2.4-4.1-4.7-6.3-6.7"/>
    <path class="st5" d="M633.1,393.9c0-14.2-1.8-32.7,4.4-44.4"/>
    <path class="st7" d="M635.3,392.6c2.1-9.4,6.6-18.1,12.4-24.9"/>
    <path class="st6" d="M635.3,391.2c-2.3-11.7-7.5-22.7-14.5-31.4-2-2.4-4.1-4.7-6.3-6.7"/>
    <path class="st7" d="M641.1,392.6c2.1-9.4,6.6-18.1,12.4-24.9"/>
    <line class="st10" x1="1175.6" y1="195.4" x2="1175.6" y2="276.2"/>
    <line class="st10" x1="906.4" y1="101.4" x2="978.2" y2="191.2"/>
    <line class="st10" x1="937" y1="104.2" x2="1006.2" y2="189.9"/>
    <line class="st10" x1="961.4" y1="101.1" x2="1035.3" y2="192.5"/>
    <line class="st10" x1="986.6" y1="101" x2="1058.1" y2="189.5"/>
    <line class="st10" x1="1016.1" y1="104.3" x2="1087.4" y2="192.5"/>
    <line class="st10" x1="1038.9" y1="101.1" x2="1112.7" y2="192.5"/>
    <line class="st10" x1="1066.4" y1="102.9" x2="1138.6" y2="192.2"/>
    <rect class="st22" x="1003.9" y="80.3" width="45.2" height="39.1"/>
    <g>
      <polygon class="st23" points="979.2 235.6 979 217.1 997.2 217.1 997.2 235.8 979.2 235.6"/>
      <path class="st23" d="M996.9,217.5v18l-17.3-.2-.2-17.8h17.6M997.5,216.8h-18.9v.6l.2,17.8v.6h.6l17.3.2h.6v-19.2h.2Z"/>
    </g>
    <g>
      <polygon class="st23" points="1050.6 235.6 1050.3 217.1 1068.6 217.1 1068.6 235.8 1050.6 235.6"/>
      <path class="st23" d="M1068.2,217.5v18l-17.3-.2-.2-17.8h17.6M1068.9,216.8h-18.9v.6l.2,17.8v.6h.6l17.3.2h.6v-19.2h.2Z"/>
    </g>
    <g>
      <polygon class="st23" points="1121.9 235.6 1121.7 217.1 1139.9 217.1 1139.9 235.8 1121.9 235.6"/>
      <path class="st23" d="M1139.6,217.5v18l-17.3-.2-.2-17.8h17.6M1140.2,216.8h-18.9v.6l.2,17.8v.6h.6l17.3.2h.6v-19.2h.2Z"/>
    </g>
    <line class="st10" x1="1093.1" y1="102.9" x2="1165.3" y2="192.2"/>
    <line class="st4" x1="1003.9" y1="119.4" x2="1001.3" y2="119.4"/>
    <g>
      <g>
        <path class="st20" d="M1101,263.7c-3.2,7.4,15.1,9.7,21.7,9.8,6.8-.9,39,2.7,37-2.2-1.4-3.5,1.5-23.4-6.4-22.8-7.8.6-19.6,2-29.8,3.6-10.3,1.8-22.7,11.7-22.6,11.5l.1.1h0Z"/>
        <path class="st20" d="M1273.4,286.9c1,16.8-16.4,19.4-22.3,17.1-5.8-2.7-29.9-16-28-19.7,2.2-4.4-5.2-24.3,2.3-23.2,7.6,1,18.8,3,28.5,5.1,9.9,1.8,19.7,20.6,19.5,20.7Z"/>
        <path class="st17" d="M1184.1,264.5c-19.3,12.9,13.7,17.1,18.7,18.5,5.5.2,27.7,16.4,24.4-4.9-.7-4.2,5.4-19.1-.8-19.5-6.2-.5-15.5-.9-23.7-1.1-8.2,0-18.7,7.1-18.7,7h.1Z"/>
        <path class="st20" d="M1266.5,294c-3.9,11.5,9.8,21.7,14.5,23.8,4.8,1.8,23,5.7,22.6,0-.6-5.5,9.3-23.7,3.5-25.6s-14.4-4.5-22.1-6.5c-7.8-1.9-18.6,8.3-18.6,8.2l.1.1Z"/>
        <path class="st20" d="M1193.7,265.4c2.2,14.9-11.1,16.3-16.4,15.3-5.2-1.4-28.3-6.6-26.5-8.9,1.9-2.7-4.3-17.6,2-17.7,6.3-.1,15.8,0,24,.5,8.3.3,17,10.7,17,10.8h-.1Z"/>
        <path class="st20" d="M1293.1,246.4c17.2,4.2,19.7,19.9,17.2,23.9-2.7,4.2-27.1,20.1-31.4,16-4.5-4-12.9-11.7-10.7-15.7,2.3-4.1-1.1-12.4,1.9-17.7,3-5.4,23-6.5,23-6.4v-.1h0Z"/>
        <path class="st20" d="M1263.4,267.4c12.1-8.3,4.5-22.3-.9-24.6-5.2-2.8-30.6-6.5-32.2-2.2-1.7,4.2-20.6,15.1-14.6,17.3,5.9,2.2,14.7,6,22.1,9.8s25.5-.3,25.6-.3Z"/>
        <path class="st20" d="M1220.2,249.4c5.7-8.8-6.2-15.9-11.5-15.9-5.2-.4-26.7,3.1-25.9,6.1.6,3-8.7,14.2-3,14.4,5.6.3,14,1,21.3,2,7.2,1,19.1-6.5,19.1-6.5v-.1Z"/>
        <path class="st20" d="M1160.1,222.7c14.8-2.6,21.3,16.7,20,19.1-1.2,2.5,1.6,11.8-16.1,9.9-4.7-.6-25,1.1-23.9-1,1.2-2.3-3-7.7-2.5-10.7,1.4-8.3,22.4-17.3,22.5-17.3Z"/>
      </g>
      <path class="st20" d="M1096,238.7c6.2,1.5,10,17,16.4,16.2,3.1-.4-8.2,5.3-7.8,7.7,2.5,16.3-30,14.8-26.6-6.5.3-1.8,4.3-5.9,5.4-8.1,1-2.3,12.7-9.3,12.7-9.3h-.1Z"/>
      <path class="st20" d="M1112.6,231.8c7.4-7.2,21.4-2.9,22.1,6.9v1.1c-.7,1.5.8,8.8-1.6,7.7s-30,14.8-26.6-6.5c.3-1.8,4.3-5.9,5.4-8.1.1-.3.4-.7.9-1.1h-.2Z"/>
    </g>
    <g>
      <g>
        <g>
          <path class="st23" d="M632.1,372.1c.2,5.2,0,10.7-2.1,15.5-.6,1.5-1.5,2.8-2.5,4.1h33.2c-1.4-2-2.5-4.3-3.2-6.6-2.4-7.8-.4-16.1-2.4-24-.7-2.7-1.5-4.9-2.4-6.9-.3-2.6-.6-5-.5-6.8.5-9.3.9-18.5,3.7-27.4,5.3-16.9,12.9-33,17.2-50.2,4.3-17.2,4.9-36.2-3.6-51.7,5.7,20.5-2.7,38.3-9.3,58.6-6.7,20.2-15,33.4-17,55.5-.6,7.2-3.7,6.5-6.2,2.2-4.9-8.3,3.3-30.5,2-40.1-3.5-25.3-13.4-47.6-2.4-70.7-9.9,13.2-8.4,31.5-6,47.8,2.4,16.3,5.9,27.8-2.9,41.8-14.1-26.3-22.7-47.2-21.4-77-6.9,22.4-.9,46.6,7,68.6s17.9,43.9,18.9,67.3h-.1Z"/>
          <path class="st23" d="M734.4,220.8c2.1-7,1.6-16.1-1.2-22.9,1-4.2,1.3-8.5.9-12.7,8.1-1.6,15.1-9.2,14.3-17.5-.7-7.5-6.5-13.4-12.1-17.9,5-9.4-.7-9.7-7.4-7.1-1-2-2.3-3.8-3.8-5.4,0-.6,0-1.3-.2-1.9-.7-3.7-3.1-6.9-6.3-8.9,1.5-3,1.9-6.5,0-8.7,5.9-2.8,9.8-9.4,9.2-15.9-.5-6.5-5.5-12.4-11.8-14.2,5-7.6-.7-19.7-9.8-20.6,1.2-10.8-9.3-21.3-20.1-20.1-10.8,1.3-18.6,13.9-15,24.2-3-3.3-9.7-1.4-10.5,3.1-3.9-1.8-8.9-1-12,2,5.2-9.2.6-22.5-9.2-26.5s-22.4,2.4-25.1,12.6c0-6-9.4-9.1-13.1-4.3.2-3-2.1-6.1-5.2-6.5-3-.5-6.2,1.6-7,4.6-2.8-2.4-7.4-2.2-9.9.5-.9,1-1.5,2.2-1.7,3.5,0,0-.2-.1-.3-.2-6.7-4.1-17.2-3-20.3,4.2-2.2,4.9-.2,10.4,2.7,15.2-3.9,1.1-7.3,4-8.9,7.7-1.9,4.5-1,9.9,2,13.6-3.7-1.7-11-.2-11.8,3.8-11.1,3-18.9,15-17.2,26.3s12.8,20.5,24.2,20c-2,.7-5.2,3.6-4.9,5.7.2,1.8,1.7,3.4,3.4,3.9-2.3-.2-4.8,1-5.8,3.2-1.1,2.4-.3,5.6,1.9,7.1-6.7,1.7-12.5,6.6-15.2,13-2.8,6.3-2.4,13.9.8,20-8,5.6-12.4,16-10.8,25.6,1.6,9.6,9.2,19.7,18.6,22.2,9,2.5,23.5-.2,23.5-.2-.5,7.2,3.9,14.4,10.6,17.2s14.9,1,19.8-4.3c.3,12.6,10.9,24.2,23.4,25.7s25.5-7.3,28.8-19.5c3,5.1,10.9,6.6,15.5,2.9,3.9,3.2,10.6,1,12.3-3.6-.8,5,3,10.3,8,11.6,5.5,1.5,11.5-1,15.4-5.2,3.9-4.1,6.2-9.5,7.8-15,3.1,6.3,13.6,6.9,17.3.9,5.1,4.5,14.9.6,15.2-6.2,6.4,0,11.7-5.9,12.5-12.3.8-6.3-2-12.7-6.2-17.5-1.8-2-3.7-3.7-5.8-5.4l.5.2h0Z"/>
          <path class="st25" d="M638.9,182c-5.1.9-10.7-1.6-13.5-6-1.8-2.9-2.3-6.4-1.6-9.7-9.5,4.6-20.7,5.1-29.6-.7-1.9,4.9-8.5,8.1-13.3,5.4.1,5.4-4.5,10.4-9.8,10.7s-10.5-4.1-11-9.5c-2.2,5.6,0,12.6,5,16s12.3,2.8,16.7-1.3c-1.3,5.9,3.8,12.4,9.8,12.6,6.1.1,11.5-6.1,10.4-12.1.6,2.9,3.6,5,6.5,4.6s5.2-3.3,5-6.2c.4,3.5,1.7,7.3,4.9,8.9,3.1,1.6,8-.6,7.6-4.1,3.4,3.6,10.7.4,10.4-4.5.8,3.1,3.8,5.4,7,5.5,2.9,0,5.6-1.7,6.1-4.3-3.9-1.2-8.3-1.2-10.7-5.2l.1-.1h0Z"/>
          <path class="st25" d="M671.8,113.5c0,.9.1,1.9.2,2.8-12.7,4.9-28.8-3.3-32.1-16.5-2.2,2.2-6.2,2.1-8.3-.3,0,.9-.1,1.9-.2,2.8-5,3.8-12.7,3.4-17.4-.8-1.6,4.9-6.2,8.7-11.3,9.5s-10.6-1.6-13.6-5.8c-2.7,3.4-1.4,8.9,2.1,11.6s8.3,2.9,12.5,1.6,7.8-3.8,11.4-6.3c-.8,3.2.7,6.9,3.6,8.6,2.8,1.8,6.8,1.5,9.3-.6-3.4,6.5-.4,15.5,6.1,18.7,6.6,3.2,15.5,0,18.6-6.6,3.3,3.3,10.1.4,10-4.2,3,2,7.2,2.1,10.4.3s5.1-5.6,4.8-9.2c1,3.4,5.3,5.2,8.5,3.7,3.4-1.7,4-5.9,1.9-8.5-5.3,2.6-11.8,3.1-16.6-1l.1.2h0Z"/>
          <path class="st25" d="M602.1,235.9c-1.2-3.5-6.3-4.8-9-2.3-4.4-2.5-10.6-1.4-13.8,2.6,1.2-4.1-1.2-8.9-5.2-10.4s-9,.6-10.7,4.5c-.9-4.6-7-7.1-10.9-4.5-1.5-2.7-4.7-4.4-7.8-4s-5.8,2.9-6.4,6c-1.8-2.7-4.6-5-7.8-5.1-3.3-.1-6.6,2.8-6.1,6s5.8,4.5,7.1,1.5c1.2,5.1,3.6,10.5,8.4,12.7,4.8,2.2,11.9-1.4,11.1-6.6-.2,1.3-.4,2.7-.6,4,3.6,1.7,8.5-1.4,8.4-5.4,1.2,2.7,6.1,2.2,6.7-.7.1,1.6,2.8,2.1,3.5.7-2.5,4.6-4,9.8-3.3,15s4,10.1,9,11.8c4.9,1.7,11.2-.7,12.9-5.6,2.7,2.4,7.3,2.1,9.7-.5s2.2-7.3-.5-9.8c2.9,2.6,8.4.6,9-3.3,2.1,3.7,9,2.1,9.2-2.2,1.6,1.7,3.2,3.5,5.3,4.4s4.9.7,6.4-1.1c2.3-2.9-.7-7.5-4.4-8.1-3.8-.6-6.9,2.4-10.3,2.1-3.6-.3-5.7-5.6-9.9-1.6v-.1h0Z"/>
          <path class="st25" d="M658.9,253.5c5.4,2.2,12.3-1.1,13.9-6.7,1.1,6.2,9.5,8.6,15.2,5.8,5.7-2.7,9.1-8.6,12.1-14.1,2.1,4,6.3,6.9,10.8,7.3,4.5.4,9.2-1.6,11.9-5.2,2,1.8,5.2,2,7.5.6s3.5-4.3,2.8-6.9c3.9,1.8,5.7,7.1,3.7,10.8-2,3.8-7.4,5.3-11,3.1,1.6,3,0,7.1-3,8.4-3.1,1.3-7.1-.6-8.1-3.8-.9,3.6-4.6,6.2-8.3,5.8s-6.7-3.8-6.8-7.4c-2.3,4.4-4.7,9-8.8,11.9s-10.3,3.3-13.6-.4c-2.1-2.3-3.9-6.4-6.9-5.6-1.5.4-2.3,1.9-3.3,3.2-2.4,2.9-6.5,4.3-10.1,3.5-3.3-.7-6-3-6.8-6.2,2.6-.7,7.2-1.3,9-4.1h-.2Z"/>
          <path class="st23" d="M710.2,170.9c1.6,1.9,4.3,2.8,6.7,2.2s4.4-2.6,5-5c3.3,6.2,11.3,9.3,17.9,7-1.6,3.1-5.5,5.8-9,5.7s-6.9-2.4-8.3-5.6c-1.3,2.5-4.4,4-7.2,3.4-2.8-.5-4.8-4.9-5.1-7.8v.1h0Z"/>
        </g>
        <path class="st25" d="M528.8,118.3c.4,1.9,1.9,3.6,3.7,4.3,1.8.7,4,.4,5.6-.8.3,1.8,1.6,3.4,3.3,4.1s3.7.5,5.2-.6c1.4,3.2,4,5.6,7.4,6.7,3.4,1.1,7.2.7,10.3-1.1,1,3.5-1.1,7.4-4.3,9s-7.3,1.2-10.5-.5-5.7-4.6-7.6-7.6c-1.2,1.3-3.2,1.7-4.9,1.1-1.7-.6-2.9-2.2-3-4-2.2.7-4.8-.3-5.9-2.3-1.1-2-1.1-6.7.6-8.2l.1-.1h0Z"/>
        <path class="st23" d="M582,78c-3.9,2.6-9.3,1.6-13.1-1.2-3.8-2.8-6.2-6.9-8.5-11-1.9,5.6.3,12.5,5.3,15.5,5.1,3,12.2,1.1,16.3-3.3Z"/>
        <path class="st23" d="M640.8,347.6c6.8,8.9,13.2,19.1,13,30.3-.1-11.1-7.3-20.8-14.4-29.3-3.7-4.5-12.2-15.3-15.1-26.5,5,9,10.1,17.2,16.5,25.6v-.1Z"/>
      </g>
      <path class="st9" d="M634.7,391c-2.5-12.8-8.2-24.9-15.9-34.4-2.2-2.7-4.5-5.1-6.9-7.3"/>
      <path class="st16" d="M655.9,389.8c2.6-11.7,8.2-22.7,15.5-31.2"/>
      <path class="st14" d="M638.3,392.7c.1-14.4-2-33.2,4.9-45.1"/>
      <path class="st15" d="M640.6,391.3c2.3-10.3,7.2-19.9,13.6-27.4"/>
      <path class="st15" d="M645.6,395.2c2.3-10.3,7.2-19.9,13.6-27.4"/>
    </g>
  </g>
</svg>