<?xml version="1.0" encoding="UTF-8"?>
<svg id="Layer_1" xmlns="http://www.w3.org/2000/svg" version="1.1" viewBox="0 0 2250.52 2999.58">
  <!-- Generator: Adobe Illustrator 30.1.0, SVG Export Plug-In . SVG Version: 2.1.1 Build 136)  -->
  <defs>
    <style>
      .st0 {
        fill: #fff;
      }

      .st1 {
        display: none;
        fill: #1a3456;
      }

      .st2 {
        opacity: .02;
      }
    </style>
  </defs>
  <rect class="st1" width="2250.52" height="2999.58"/>
  <g id="logo-logo" class="st2">
    <path class="st0" d="M1660.25,886.01c-33.75,29.39-81.15,43.81-128.12,47.75-46.97,3.94-96.62,2.67-143.38-2.95,37.48-89.66,22.22-195.49-39.52-273.82-46.13-58.51-113.99-99.85-177.34-143.73-63.36-43.88-125.87-94.3-153.79-161.38-25.38-61.04-18.77-130.23,7.66-190.92,26.44-60.69,71.37-113.71,121.58-160.96-22.29,70.81-17.44,148.23,13.71,216.37,31.15,68.14,88.25,126.57,159.69,163.28,98.09,50.42,220.8,60.9,306.45,126.85,62.79,48.31,96.06,118.91,97.46,191.62,1.2,65.19-9.56,140.07-64.34,187.89h-.07ZM27.88,1535.2c-11.95-32.21-23.77-68.63-6.89-99.08,10.9-19.69,31.71-32.91,51.61-45.43,65.4-41,146.33-78.9,201.53-130.02,47.68-44.37,100.49-80.51,125.94-140.36,15.96-37.83,19.69-79.04,36.92-116.45,23.63-51.68,70.6-91.63,116.24-129.81,76.3-63.71,154.42-128.61,249.98-166.37,132.83-52.46,284.65-46.76,428.59-27.78-44.37,30.66-81.22,70.46-106.04,115.6-26.02,47.25-39.94,100.77-76.58,142.04-35.3,39.73-88.25,63.92-141.83,81.15-53.58,17.09-109.56,28.62-161.45,49.43-51.97,20.81-100.98,52.88-125.1,98.94-24.33,46.62-21.24,97.88-6.26,147.67,4.5-47.54,51.75-84.87,103.09-98.38,51.33-13.5,106.25-8.3,159.34-2.95,55.62-43.95,113.85-100.84,196.12-85.72,49.01,8.93,90.92,40.5,115.46,79.46,24.68,38.89,33.54,84.66,32.49,129.39-1.9,76.51-33.82,154-96.48,206.17-47.75,40.08-110.26,63.29-173.55,78.26-80.3,19.13-163.63,26.02-245.34,39.8-81.71,13.78-163.98,35.09-230.86,79.32-72.22-43.95-158.29-69.76-245.62-73.2-40.36-1.76-83.19.77-118.63-16.45-46.06-22.43-66.24-70.95-82.69-115.39v.14ZM179.63,1504.26c-17.16,20.32-23.63,47.25-18.99,72.5,13.71-2.95,27.78-5.34,41.56-8.58,20.18-4.64,40.22-11.32,56.4-23.06,15.96-11.74,27.78-29.39,27.49-47.96-.21-5.63-1.55-11.46-5.41-15.75-5.06-5.7-13.57-8.02-21.66-8.79-30.1-2.95-61.04,10.13-79.46,31.64h.07ZM438.61,863.72c58.86-74.96,140.85-135.01,234.23-172.21-86.98-44.23-186.63-65.12-279.38-99.36-54.78-20.18-109.13-46.55-144.15-89.3-36.07-44.09-47.18-101.4-41.56-155.76,5.63-54.36,26.65-106.46,49.93-156.88-48.52,13.22-83.96,50.14-112.58,87.62-47.04,61.81-84.1,132.62-86.14,207.3-2.53,90.43,47.75,177.77,120.03,241.19,72.08,63.57,164.55,105.69,259.55,137.47l.07-.07ZM1419.62,1273.4c106.46,14.42,217.57-25.81,296.39-91.48,78.97-65.75,128.54-154.21,159.48-245.13-47.61,30.45-107.45,42.33-165.81,46.55-58.58,4.29-117.29,1.48-175.73,6.05-58.43,4.57-118.14,17.37-165.11,48.45-43.81,29.11-74.4,76.72-69.4,123.41,46.13-35.51,106.04-57.24,167.08-60.05,61.6-2.81,126.71,12.24,182.76-10.69-31.85,90.57-123.55,163.56-229.59,182.9h-.07ZM381.37,1801.99c-63.78-51.54-156.53-73.62-240.28-55.97,25.74,39.24,71.65,67.58,121.93,75.17,40.43,6.33,82.91-.91,118.35-19.2h0ZM654.7,1798.12c143.31,46.83,235.15,199.99,192.67,332.33-24.54,76.08-84.66,139.09-115.32,213.49-46.69,113-19.9,241.69,41.42,348.92,61.32,107.1,154.21,196.96,245.76,285.21-22.29-119.89,33.68-242.46,117.57-338.09,83.89-95.56,194.01-169.68,299.63-246.19,153.58-111.53,301.25-231.7,418.4-374.02,117.15-142.47,203.01-308.84,221.71-484.85,18.7-175.8-35.02-361.3-166.8-493.07,122.71,348.01,8.37,753.75-284.23,1008.37-113.14,98.52-248.23,174.25-372.83,260.74-124.75,86.63-242.81,188.66-303.21,318.97-42.19-132.06,34.46-273.19,139.44-373.46,105.06-100.41,237.89-174.39,346.04-271.99,199.71-180.23,304.41-441.11,278.25-693.62-50,19.2-99.99,38.39-149.78,57.52-10.34,59.56-24.96,118.21-38.53,177.06-28.97,125.87-103.37,240.42-213.49,323.18-.77.63-1.62,1.2-2.39,1.83-80.51,60.12-170.73,108.85-260.46,157.3-11.04-94.09-85.58-179.95-184.73-213.21-66.87-22.43-143.03-20.18-209.13,3.59h0ZM1217.46,2999.58c194.99-265.73,566.63-384.71,797.91-626.19,212.15-221.5,284.86-543,185.5-820.62l-17.3-61.11c-3.16,142.25-21.87,287.74-68,423.95-60.12,177.48-173.62,340.97-328.53,464.95-115.96,92.75-252.44,163.56-366.92,257.86-114.48,94.23-209.06,222.28-202.66,361.16Z"/>
  </g>
</svg>