<?xml version="1.0" encoding="UTF-8"?>
<svg id="Layer_1" xmlns="http://www.w3.org/2000/svg" version="1.1" viewBox="0 0 720 720">
  <!-- Generator: Adobe Illustrator 30.1.0, SVG Export Plug-In . SVG Version: 2.1.1 Build 136)  -->
  <defs>
    <style>
      .st0 {
        font-size: 108.5px;
        letter-spacing: .02em;
      }

      .st0, .st1, .st2, .st3, .st4 {
        fill: #e6e7e7;
      }

      .st0, .st2 {
        font-family: Outfit-Black, Outfit;
        font-weight: 800;
      }

      .st5 {
        opacity: .05;
      }

      .st5, .st6, .st7 {
        display: none;
      }

      .st2 {
        font-size: 88.79px;
        letter-spacing: .05em;
      }

      .st8 {
        fill: #fff;
      }

      .st3 {
        font-size: 35.59px;
        letter-spacing: .17em;
      }

      .st3, .st4 {
        font-family: Outfit-Bold, Outfit;
        font-weight: 700;
      }

      .st4 {
        font-size: 31.08px;
        letter-spacing: .17em;
      }

      .st6 {
        fill: #192941;
      }
    </style>
  </defs>
  <polygon class="st6" points="-5.2 119.01 -5.2 720 720 724.69 720 -.52 -5.61 -.52 -5.2 119.01"/>
  <g id="logo-logo" class="st5">
    <path class="st8" d="M76.42,234.89c-21.63-18.88-25.88-48.45-25.41-74.19.56-28.71,13.69-56.59,38.49-75.67,33.82-26.05,82.27-30.18,121.01-50.09,28.21-14.49,50.76-37.57,63.06-64.48,12.3-26.91,14.22-57.48,5.41-85.44,19.83,18.66,37.57,39.6,48.01,63.56,10.44,23.96,13.05,51.29,3.03,75.39-11.02,26.49-35.71,46.4-60.73,63.73-25.02,17.33-51.81,33.65-70.03,56.76-24.38,30.93-30.41,72.72-15.61,108.13-18.47,2.22-38.07,2.72-56.62,1.17-18.55-1.55-37.26-7.25-50.59-18.85h-.03ZM721.03,491.18c-6.5,17.55-14.47,36.71-32.65,45.57-13.99,6.8-30.91,5.8-46.84,6.5-34.49,1.36-68.47,11.55-96.99,28.91-26.41-17.47-58.89-25.88-91.16-31.32-32.27-5.44-65.17-8.16-96.88-15.72-24.99-5.91-49.68-15.08-68.53-30.91-24.74-20.6-37.35-51.2-38.1-81.41-.42-17.66,3.08-35.74,12.83-51.09,9.69-15.38,26.24-27.85,45.59-31.38,32.49-5.97,55.48,16.49,77.44,33.85,20.96-2.11,42.65-4.17,62.92,1.17,20.27,5.33,38.93,20.08,40.71,38.85,5.91-19.66,7.14-39.9-2.47-58.31-9.52-18.19-28.88-30.85-49.4-39.07-20.49-8.22-42.6-12.77-63.75-19.52-21.16-6.8-42.07-16.35-56.01-32.04-14.47-16.3-19.96-37.43-30.24-56.09-9.8-17.83-24.35-33.54-41.87-45.65,56.84-7.5,116.79-9.75,169.24,10.97,37.74,14.91,68.59,40.54,98.71,65.7,18.02,15.08,36.57,30.85,45.9,51.26,6.8,14.77,8.27,31.04,14.58,45.98,10.05,23.63,30.91,37.9,49.73,55.42,21.8,20.19,53.76,35.15,79.58,51.34,7.86,4.94,16.08,10.16,20.38,17.94,6.66,12.02,2,26.41-2.72,39.12v-.06ZM661.14,479.02c-7.28-8.5-19.49-13.66-31.38-12.5-3.19.31-6.55,1.22-8.55,3.47-1.53,1.69-2.05,4-2.14,6.22-.11,7.33,4.55,14.3,10.86,18.94,6.39,4.64,14.3,7.28,22.27,9.11,5.44,1.28,11,2.22,16.41,3.39,1.83-9.97-.72-20.6-7.5-28.63h.03ZM558.87,226.11c37.51-12.55,74.03-29.18,102.49-54.29,28.54-25.05,48.4-59.53,47.4-95.24-.81-29.49-15.44-57.45-34.01-81.86-11.3-14.8-25.3-29.38-44.46-34.6,9.19,19.91,17.49,40.48,19.71,61.95,2.22,21.46-2.17,44.09-16.41,61.5-13.83,16.88-35.29,27.3-56.92,35.26-36.63,13.52-75.97,21.77-110.32,39.24,36.88,14.69,69.25,38.4,92.49,68l.03.03ZM171.43,387.86c-41.87-7.64-78.08-36.46-90.66-72.22,22.13,9.05,47.84,3.11,72.17,4.22,24.1,1.11,47.76,9.69,65.98,23.71,1.97-18.44-10.11-37.24-27.41-48.73-18.55-12.27-42.12-17.33-65.2-19.13-23.07-1.8-46.26-.69-69.39-2.39-23.05-1.67-46.68-6.36-65.48-18.38,12.22,35.9,31.79,70.83,62.98,96.8,31.13,25.93,75,41.82,117.04,36.13h-.03ZM581.45,596.58c13.99,7.22,30.77,10.08,46.73,7.58,19.85-3,37.99-14.19,48.15-29.68-33.07-6.97-69.7,1.75-94.88,22.1h0ZM473.52,595.06c-26.1-9.39-56.17-10.27-82.58-1.42-39.15,13.13-68.59,47.04-72.94,84.19-35.43-19.13-71.06-38.37-102.85-62.12-.31-.25-.64-.47-.94-.72-43.48-32.68-72.86-77.92-84.3-127.62-5.36-23.24-11.13-46.4-15.22-69.92-19.66-7.55-39.4-15.13-59.14-22.71-10.33,99.71,31.02,202.73,109.88,273.9,42.71,38.54,95.16,67.75,136.64,107.4,41.46,39.6,71.72,95.33,55.06,147.47-23.85-51.45-70.47-91.74-119.73-125.95-49.2-34.15-102.54-64.06-147.22-102.96C-25.38,594.06-70.53,433.84-22.08,296.42c-52.04,52.04-73.25,125.29-65.86,194.7,7.39,69.5,41.29,135.2,87.55,191.46,46.26,56.2,104.57,103.66,165.22,147.69,41.71,30.21,85.19,59.48,118.32,97.21,33.13,37.76,55.23,86.16,46.43,133.51,36.15-34.85,72.83-70.33,97.05-112.62,24.21-42.35,34.79-93.16,16.35-137.78-12.11-29.38-35.85-54.26-45.54-84.3-16.77-52.26,19.49-112.74,76.08-131.23h0ZM171.27,926.88c-45.21-37.24-99.1-65.2-144.89-101.82-61.17-48.95-105.99-113.51-129.73-183.6-18.22-53.79-25.6-111.24-26.85-167.41l-6.83,24.13c-39.24,109.63-10.52,236.58,73.25,324.04,91.33,95.35,238.08,142.34,315.08,247.27,2.53-54.84-34.82-105.4-80.03-142.61Z"/>
  </g>
  <g class="st7">
    <g id="logo-logo1" data-name="logo-logo">
      <path class="st8" d="M311.66,215.88c-4.94-4.31-5.91-11.07-5.8-16.95.13-6.56,3.13-12.92,8.79-17.28,7.72-5.95,18.79-6.89,27.64-11.44,6.44-3.31,11.59-8.58,14.4-14.73,2.81-6.15,3.25-13.13,1.24-19.51,4.53,4.26,8.58,9.04,10.97,14.52,2.38,5.47,2.98,11.71.69,17.22-2.52,6.05-8.16,10.6-13.87,14.55s-11.83,7.69-15.99,12.96c-5.57,7.06-6.94,16.61-3.56,24.7-4.22.51-8.69.62-12.93.27-4.24-.36-8.51-1.66-11.55-4.31h0ZM458.88,274.41c-1.48,4.01-3.3,8.38-7.46,10.41-3.2,1.55-7.06,1.33-10.7,1.48-7.88.31-15.64,2.64-22.15,6.6-6.03-3.99-13.45-5.91-20.82-7.15-7.37-1.24-14.88-1.86-22.13-3.59-5.71-1.35-11.35-3.44-15.65-7.06-5.65-4.71-8.53-11.69-8.7-18.59-.1-4.03.7-8.16,2.93-11.67,2.21-3.51,5.99-6.36,10.41-7.17,7.42-1.36,12.67,3.77,17.69,7.73,4.79-.48,9.74-.95,14.37.27,4.63,1.22,8.89,4.59,9.3,8.87,1.35-4.49,1.63-9.11-.56-13.32-2.18-4.15-6.6-7.05-11.28-8.92-4.68-1.88-9.73-2.92-14.56-4.46-4.83-1.55-9.61-3.74-12.79-7.32-3.3-3.72-4.56-8.55-6.91-12.81-2.24-4.07-5.56-7.66-9.56-10.43,12.98-1.71,26.67-2.23,38.65,2.51,8.62,3.41,15.66,9.26,22.55,15,4.12,3.44,8.35,7.05,10.48,11.71,1.55,3.37,1.89,7.09,3.33,10.5,2.3,5.4,7.06,8.66,11.36,12.66,4.98,4.61,12.28,8.03,18.18,11.73,1.79,1.13,3.67,2.32,4.65,4.1,1.52,2.75.46,6.03-.62,8.94h0ZM445.2,271.63c-1.66-1.94-4.45-3.12-7.17-2.85-.73.07-1.5.28-1.95.79-.35.39-.47.91-.49,1.42-.03,1.67,1.04,3.27,2.48,4.33,1.46,1.06,3.27,1.66,5.09,2.08,1.24.29,2.51.51,3.75.77.42-2.28-.16-4.71-1.71-6.54h0ZM421.85,213.87c8.57-2.87,16.91-6.67,23.41-12.4,6.52-5.72,11.05-13.6,10.83-21.75-.18-6.74-3.53-13.12-7.77-18.7-2.58-3.38-5.78-6.71-10.15-7.9,2.1,4.55,4,9.25,4.5,14.15.51,4.9-.49,10.07-3.75,14.05-3.16,3.86-8.06,6.23-13,8.05-8.36,3.09-17.35,4.97-25.2,8.96,8.42,3.35,15.82,8.77,21.12,15.53h0ZM333.36,250.81c-9.56-1.74-17.83-8.33-20.71-16.5,5.05,2.07,10.93.71,16.48.96,5.5.25,10.91,2.21,15.07,5.42.45-4.21-2.31-8.5-6.26-11.13-4.24-2.8-9.62-3.96-14.89-4.37-5.27-.41-10.57-.16-15.85-.55-5.26-.38-10.66-1.45-14.95-4.2,2.79,8.2,7.26,16.18,14.38,22.11,7.11,5.92,17.13,9.55,26.73,8.25h0ZM427,298.49c3.2,1.65,7.03,2.3,10.67,1.73,4.53-.68,8.68-3.24,11-6.78-7.55-1.59-15.92.4-21.67,5.05h0ZM402.35,298.14c-5.96-2.14-12.83-2.35-18.86-.32-8.94,3-15.66,10.74-16.66,19.23-8.09-4.37-16.23-8.76-23.49-14.19-.07-.06-.15-.11-.22-.16-9.93-7.46-16.64-17.8-19.25-29.15-1.22-5.31-2.54-10.6-3.48-15.97-4.49-1.73-9-3.46-13.51-5.19-2.36,22.77,7.08,46.3,25.09,62.56,9.75,8.8,21.73,15.47,31.21,24.53,9.47,9.04,16.38,21.77,12.58,33.68-5.45-11.75-16.1-20.95-27.35-28.77-11.24-7.8-23.42-14.63-33.62-23.52-26.39-22.96-36.7-59.56-25.63-90.94-11.88,11.88-16.73,28.61-15.04,44.47,1.69,15.87,9.43,30.88,20,43.73,10.57,12.84,23.88,23.67,37.73,33.73,9.53,6.9,19.46,13.58,27.02,22.2,7.57,8.63,12.61,19.68,10.6,30.49,8.26-7.96,16.63-16.06,22.17-25.72,5.53-9.67,7.95-21.28,3.74-31.47-2.77-6.71-8.19-12.39-10.4-19.25-3.83-11.94,4.45-25.75,17.38-29.97h0ZM333.32,373.92c-10.32-8.5-22.63-14.89-33.09-23.26-13.97-11.18-24.21-25.93-29.63-41.93-4.16-12.28-5.85-25.41-6.13-38.24l-1.56,5.51c-8.96,25.04-2.4,54.03,16.73,74.01,20.86,21.78,54.38,32.51,71.96,56.47.58-12.53-7.95-24.07-18.28-32.57Z"/>
    </g>
    <text class="st2" transform="translate(146.07 521.68)"><tspan x="0" y="0">FINDASH</tspan></text>
    <text class="st4" transform="translate(58.05 591.07)"><tspan x="0" y="0">MANAGE YOUR MONETARY LIFE</tspan></text>
  </g>
  <g>
    <g id="logo-logo2" data-name="logo-logo">
      <path class="st1" d="M303.87,183.88c-5.66-4.94-6.77-12.68-6.65-19.41.15-7.51,3.58-14.8,10.07-19.79,8.85-6.81,21.52-7.9,31.66-13.1,7.38-3.79,13.28-9.83,16.5-16.87,3.22-7.04,3.72-15.04,1.42-22.35,5.19,4.88,9.83,10.36,12.56,16.63,2.73,6.27,3.41,13.42.79,19.72-2.88,6.93-9.34,12.14-15.89,16.67-6.54,4.53-13.55,8.8-18.32,14.85-6.38,8.09-7.95,19.02-4.08,28.29-4.83.58-9.96.71-14.81.31-4.85-.41-9.75-1.9-13.24-4.93h0ZM472.5,250.92c-1.7,4.59-3.78,9.6-8.54,11.92-3.66,1.78-8.08,1.52-12.25,1.7-9.02.36-17.91,3.02-25.37,7.56-6.91-4.57-15.41-6.77-23.85-8.19-8.44-1.42-17.05-2.14-25.34-4.11-6.54-1.55-13-3.94-17.93-8.08-6.47-5.39-9.77-13.4-9.97-21.3-.11-4.62.81-9.35,3.36-13.37,2.54-4.02,6.86-7.29,11.93-8.21,8.5-1.56,14.51,4.31,20.26,8.85,5.48-.55,11.16-1.09,16.46.31,5.3,1.39,10.18,5.25,10.65,10.16,1.55-5.14,1.87-10.44-.65-15.25-2.49-4.76-7.55-8.07-12.92-10.22-5.36-2.15-11.14-3.34-16.68-5.11-5.54-1.78-11.01-4.28-14.65-8.38-3.78-4.26-5.22-9.79-7.91-14.67-2.56-4.66-6.37-8.78-10.95-11.94,14.87-1.96,30.55-2.55,44.27,2.87,9.87,3.9,17.94,10.61,25.82,17.19,4.71,3.94,9.57,8.07,12.01,13.41,1.78,3.86,2.16,8.12,3.81,12.03,2.63,6.18,8.08,9.92,13.01,14.5,5.7,5.28,14.06,9.2,20.82,13.43,2.06,1.29,4.21,2.66,5.33,4.69,1.74,3.15.52,6.91-.71,10.24h0ZM456.84,247.74c-1.9-2.22-5.1-3.57-8.21-3.27-.84.08-1.71.32-2.24.91-.4.44-.54,1.05-.56,1.63-.03,1.92,1.19,3.74,2.84,4.95,1.67,1.21,3.74,1.9,5.83,2.38,1.42.33,2.88.58,4.29.89.48-2.61-.19-5.39-1.96-7.49h0ZM430.08,181.58c9.81-3.28,19.37-7.63,26.81-14.2,7.47-6.55,12.66-15.57,12.4-24.92-.21-7.71-4.04-15.03-8.9-21.41-2.96-3.87-6.62-7.69-11.63-9.05,2.4,5.21,4.58,10.59,5.16,16.21.58,5.62-.57,11.54-4.29,16.09-3.62,4.42-9.23,7.14-14.89,9.23-9.58,3.54-19.87,5.7-28.86,10.26,9.65,3.84,18.12,10.05,24.2,17.79h0ZM328.73,223.89c-10.95-2-20.43-9.54-23.72-18.89,5.79,2.37,12.52.81,18.88,1.1,6.31.29,12.49,2.54,17.26,6.2.52-4.82-2.64-9.74-7.17-12.75-4.85-3.21-11.02-4.53-17.06-5-6.04-.47-12.1-.18-18.15-.62-6.03-.44-12.21-1.66-17.13-4.81,3.2,9.39,8.32,18.53,16.48,25.32,8.14,6.78,19.62,10.94,30.62,9.45h0ZM435.99,278.5c3.66,1.89,8.05,2.64,12.23,1.98,5.19-.78,9.94-3.71,12.6-7.77-8.65-1.82-18.23.46-24.82,5.78h0ZM407.75,278.1c-6.83-2.46-14.7-2.69-21.6-.37-10.24,3.44-17.94,12.31-19.08,22.02-9.27-5-18.59-10.04-26.91-16.25-.08-.07-.17-.12-.25-.19-11.38-8.55-19.06-20.38-22.05-33.39-1.4-6.08-2.91-12.14-3.98-18.29-5.14-1.98-10.31-3.96-15.47-5.94-2.7,26.09,8.11,53.04,28.74,71.65,11.17,10.08,24.89,17.72,35.75,28.1,10.85,10.36,18.76,24.94,14.4,38.58-6.24-13.46-18.44-24-31.32-32.95-12.87-8.93-26.83-16.76-38.51-26.94-30.23-26.3-42.04-68.22-29.36-104.17-13.61,13.61-19.16,32.78-17.23,50.94,1.93,18.18,10.8,35.37,22.9,50.09,12.1,14.7,27.36,27.12,43.22,38.64,10.91,7.9,22.29,15.56,30.95,25.43,8.67,9.88,14.45,22.54,12.15,34.93,9.46-9.12,19.05-18.4,25.39-29.46,6.33-11.08,9.1-24.37,4.28-36.04-3.17-7.69-9.38-14.19-11.91-22.05-4.39-13.67,5.1-29.49,19.9-34.33h0ZM328.68,364.91c-11.83-9.74-25.93-17.06-37.9-26.64-16-12.81-27.73-29.7-33.94-48.03-4.77-14.07-6.7-29.1-7.02-43.8l-1.79,6.31c-10.26,28.68-2.75,61.89,19.16,84.77,23.89,24.94,62.28,37.24,82.43,64.69.66-14.35-9.11-27.57-20.94-37.31Z"/>
    </g>
    <text class="st0" transform="translate(107.62 531.97)"><tspan x="0" y="0">FINDASH</tspan></text>
    <text class="st3" transform="translate(13.97 613.63)"><tspan x="0" y="0">MANAGE YOUR MONETARY LIFE</tspan></text>
  </g>
</svg>