<?xml version="1.0" encoding="UTF-8"?>
<svg id="Layer_1" xmlns="http://www.w3.org/2000/svg" version="1.1" viewBox="0 0 1400 792">
  <!-- Generator: Adobe Illustrator 30.1.0, SVG Export Plug-In . SVG Version: 2.1.1 Build 136)  -->
  <defs>
    <style>
      .st0 {
        fill: #fff;
      }
    </style>
  </defs>
  <g id="logo-logo">
    <path class="st0" d="M618.08,136.49c-8.44-7.37-10.1-18.9-9.91-28.94.22-11.2,5.34-22.08,15.01-29.52,13.19-10.16,32.1-11.77,47.21-19.54,11.01-5.65,19.8-14.66,24.6-25.15s5.55-22.42,2.11-33.33c7.73,7.28,14.66,15.45,18.73,24.8,4.07,9.35,5.09,20.01,1.18,29.41-4.3,10.33-13.93,18.1-23.69,24.86-9.76,6.76-20.21,13.13-27.32,22.14-9.51,12.07-11.86,28.37-6.09,42.18-7.2.87-14.85,1.06-22.09.45-7.24-.61-14.54-2.83-19.74-7.36h-.01ZM869.55,236.47c-2.53,6.85-5.64,14.32-12.74,17.78-5.46,2.65-12.06,2.26-18.27,2.53-13.45.53-26.71,4.51-37.84,11.28-10.3-6.81-22.98-10.1-35.56-12.22s-25.42-3.18-37.79-6.13c-9.75-2.31-19.38-5.88-26.73-12.06-9.65-8.04-14.57-19.97-14.86-31.76-.16-6.89,1.2-13.94,5-19.93,3.78-6,10.24-10.86,17.79-12.24,12.67-2.33,21.64,6.43,30.21,13.2,8.18-.82,16.64-1.62,24.55.45,7.91,2.08,15.19,7.83,15.88,15.15,2.31-7.67,2.78-15.57-.96-22.75-3.72-7.1-11.27-12.03-19.27-15.24-7.99-3.21-16.62-4.98-24.87-7.62-8.25-2.65-16.41-6.38-21.85-12.5-5.64-6.36-7.79-14.6-11.8-21.88-3.82-6.95-9.5-13.09-16.34-17.81,22.17-2.92,45.56-3.8,66.02,4.28,14.72,5.82,26.76,15.82,38.51,25.63,7.03,5.88,14.27,12.03,17.91,20,2.65,5.76,3.23,12.11,5.69,17.94,3.92,9.22,12.06,14.79,19.4,21.62,8.5,7.88,20.97,13.71,31.05,20.03,3.07,1.93,6.27,3.96,7.95,7,2.6,4.69.78,10.3-1.06,15.26v-.02ZM846.19,231.73c-2.84-3.31-7.6-5.33-12.24-4.87-1.25.12-2.56.48-3.34,1.35-.6.66-.8,1.56-.83,2.43-.04,2.86,1.78,5.58,4.24,7.39,2.49,1.81,5.58,2.84,8.69,3.55,2.12.5,4.29.87,6.4,1.32.71-3.89-.28-8.04-2.92-11.17h.01ZM806.29,133.07c14.63-4.9,28.88-11.38,39.98-21.18,11.14-9.77,18.88-23.22,18.49-37.16-.31-11.5-6.02-22.41-13.27-31.93-4.41-5.77-9.87-11.46-17.34-13.5,3.59,7.77,6.82,15.79,7.69,24.17s-.84,17.2-6.4,23.99c-5.39,6.59-13.77,10.65-22.21,13.76-14.29,5.28-29.64,8.49-43.04,15.31,14.39,5.73,27.02,14.98,36.08,26.53h.01ZM655.15,196.16c-16.34-2.98-30.46-14.22-35.37-28.18,8.63,3.53,18.66,1.21,28.15,1.65,9.4.43,18.63,3.78,25.74,9.25.77-7.19-3.94-14.53-10.69-19.01-7.24-4.79-16.43-6.76-25.43-7.46-9-.7-18.05-.27-27.07-.93-8.99-.65-18.21-2.48-25.54-7.17,4.77,14.01,12.4,27.63,24.57,37.76,12.14,10.12,29.26,16.31,45.66,14.09h-.01ZM815.1,277.59c5.46,2.82,12,3.93,18.23,2.96,7.75-1.17,14.82-5.54,18.78-11.58-12.9-2.72-27.19.68-37.01,8.62h0ZM772.99,277c-10.18-3.66-21.91-4.01-32.22-.55-15.27,5.12-26.76,18.35-28.46,32.84-13.82-7.46-27.72-14.97-40.12-24.23-.12-.1-.25-.18-.37-.28-16.96-12.75-28.42-30.4-32.89-49.79-2.09-9.07-4.34-18.1-5.94-27.28-7.67-2.95-15.37-5.9-23.07-8.86-4.03,38.9,12.1,79.09,42.86,106.85,16.66,15.04,37.12,26.43,53.31,41.9,16.17,15.45,27.98,37.19,21.48,57.53-9.31-20.07-27.49-35.79-46.71-49.14-19.19-13.32-40-24.99-57.43-40.17-45.07-39.22-62.69-101.73-43.78-155.34-20.3,20.3-28.58,48.88-25.69,75.96,2.88,27.11,16.11,52.74,34.15,74.69,18.05,21.92,40.79,40.44,64.45,57.62,16.27,11.79,33.23,23.2,46.16,37.92,12.92,14.73,21.55,33.61,18.11,52.08,14.1-13.59,28.41-27.44,37.86-43.94,9.45-16.52,13.57-36.34,6.38-53.75-4.72-11.46-13.98-21.17-17.77-32.89-6.54-20.39,7.6-43.98,29.68-51.19h0ZM655.08,406.44c-17.64-14.53-38.66-25.43-56.52-39.72-23.86-19.1-41.35-44.28-50.61-71.62-7.11-20.98-9.99-43.39-10.47-65.31l-2.66,9.41c-15.31,42.77-4.11,92.29,28.58,126.41,35.63,37.2,92.88,55.53,122.92,96.46.99-21.39-13.58-41.12-31.22-55.64Z"/>
  </g>
  <g id="text-logo">
    <g id="text-logo-path-0">
      <path class="st0" d="M432.62,568.47v-27.29h-74.08v118.14h28.85v-44.74h43.51v-27.29h-43.51v-18.84h45.25-.01ZM449.37,541.2v118.14h28.87v-118.14h-28.87ZM566.83,541.2v60.1l-38.34-60.1h-28.85v118.14h28.85v-67.53l43.18,67.53h24.02v-118.14h-28.87.01ZM667.36,541.2h-50.45v118.14h50.45c33.69,0,60.62-24.87,60.62-58.56s-26.93-59.58-60.62-59.58ZM645.79,632.22v-63.74h21.58c17.8,0,31.97,14.34,31.97,31.97s-14.53,31.78-31.97,31.78h-21.58ZM810.04,659.34h30.74l-43.35-118.14h-30.74l-43.18,118.14h30.74l7.59-20.56h40.6l7.59,20.56ZM771.69,611.49l10.55-28.51,10.17,28.51h-20.72ZM885.88,661.75c21.94,0,43.18-12.26,43.18-35.92s-18.32-33.01-38.18-39.04c-5.35-1.72-9.33-3.29-11.9-4.5-3.64-1.72-6.22-3.62-6.22-7.95,0-4.99,6.39-6.91,10.37-6.91,9.33,0,13.98,4.16,17.96,12.27l24.51-14.34c-8.45-17.46-23.14-26.43-42.47-26.43-21.08,0-39.04,13.65-39.04,35.4s15.88,31.09,35.06,36.8c6.03,1.72,10.37,3.29,13.3,4.5,3.98,1.56,7.95,3.62,7.95,8.47,0,6.39-8.63,9.49-13.82,9.49-11.23,0-19-4.31-23.33-15.02l-24.18,14.17c7.79,19.86,26.1,29.01,46.83,29.01h-.01ZM1016.28,541.2v44.03h-47.33v-44.03h-28.85v118.14h28.85v-46.81h47.33v46.81h28.67v-118.14h-28.67Z"/>
    </g>
  </g>
  <g id="tagline-ab834acb-5f5a-45c8-aa87-1d96c87759ba-logo">
    <g id="tagline-ab834acb-5f5a-45c8-aa87-1d96c87759ba-logo-path-0">
      <path class="st0" d="M197.97,791.48h2.6l8.84-19.97v19.97h8.32v-36.42h-8.84l-9.62,20.22-9.63-20.22h-8.84v36.42h8.32v-19.97l8.84,19.97h.01ZM256.94,791.48h9.35l-11.95-36.42h-9.37l-11.97,36.42h9.37l1.71-5.99h11.14l1.72,5.99ZM246.32,777.68l3.33-11.7,3.33,11.7h-6.66.01ZM303.55,791.48h7.39v-36.42h-8.32v20.49l-12.59-20.49h-8.84v36.42h8.32v-22.89l14.05,22.89h-.01ZM349.62,791.48h9.37l-11.97-36.42h-9.37l-11.97,36.42h9.37l1.72-5.99h11.14l1.71,5.99ZM339.01,777.68l3.33-11.7,3.33,11.7h-6.66.01ZM388.92,792c3.95,0,7.53-1.15,10.34-3.12l.58,2.6h6.76v-19.52h-17.38v7.8h7.64c-1.77,2.46-4.52,3.91-7.95,3.91-5.99,0-10.41-4.16-10.41-10.41s4.16-10.41,10.41-10.41c3.37,0,6.19,1.29,8.05,3.68l6.35-5.35c-3.41-4.16-8.47-6.66-14.4-6.66-10.89,0-18.73,7.39-18.73,18.73s7.39,18.73,18.73,18.73v.02ZM422.97,791.48h24.15v-7.8h-15.82v-6.51h13.69v-7.8h-13.69v-6.49h15.3v-7.8h-23.63v36.42-.02ZM497.13,779.1v12.38h8.32v-12.38l13.01-24.04h-9.37l-7.8,15.75-7.8-15.75h-9.37l13.01,24.04ZM546.8,792c10.89,0,18.73-7.39,18.73-18.73s-7.43-18.73-18.73-18.73-18.73,7.39-18.73,18.73,7.41,18.73,18.73,18.73h0ZM546.8,783.68c-5.97,0-10.41-4.16-10.41-10.41s4.16-10.41,10.41-10.41,10.41,4.16,10.41,10.41-4.16,10.41-10.41,10.41ZM595.98,792c9.26,0,14.26-5.37,14.26-14.36v-22.57h-8.32v22.62c0,4.12-2.04,5.99-5.99,5.99s-5.97-2.04-5.97-5.99v-22.62h-8.32v22.57c0,9.4,5.31,14.36,14.36,14.36h-.02ZM628.44,791.48h8.32v-11.72h4.79l6.66,11.72h9.37l-8.54-14.21c3.85-1.71,6.3-4.83,6.3-9.89,0-7.07-4.95-12.32-12.34-12.32h-14.57v36.42ZM636.77,771.96v-9.1h5.72c3.12,0,4.54,1.29,4.54,4.52s-1.31,4.58-4.54,4.58h-5.72ZM714.18,791.48h2.6l8.84-19.97v19.97h8.32v-36.42h-8.84l-9.63,20.22-9.62-20.22h-8.84v36.42h8.32v-19.97l8.84,19.97h.01ZM768.6,792c10.89,0,18.73-7.39,18.73-18.73s-7.43-18.73-18.73-18.73-18.73,7.39-18.73,18.73,7.39,18.73,18.73,18.73ZM768.6,783.68c-5.97,0-10.41-4.16-10.41-10.41s4.16-10.41,10.41-10.41,10.41,4.16,10.41,10.41-4.16,10.41-10.41,10.41ZM826.04,791.48h7.39v-36.42h-8.32v20.49l-12.59-20.49h-8.84v36.42h8.32v-22.89l14.05,22.89h-.01ZM852.47,791.48h24.15v-7.8h-15.82v-6.51h13.69v-7.8h-13.69v-6.49h15.3v-7.8h-23.63v36.42-.02ZM901.65,791.48h8.32v-28.62h9.26v-7.8h-26.91v7.8h9.33v28.62h0ZM951.74,791.48h9.37l-11.97-36.42h-9.37l-11.97,36.42h9.37l1.72-5.99h11.14l1.71,5.99h0ZM941.12,777.68l3.33-11.7,3.33,11.7h-6.66.01ZM975.94,791.48h8.32v-11.72h4.79l6.66,11.72h9.37l-8.54-14.21c3.85-1.71,6.28-4.83,6.28-9.89,0-7.07-4.93-12.32-12.32-12.32h-14.57v36.42ZM984.27,771.96v-9.1h5.72c3.12,0,4.52,1.29,4.52,4.52s-1.29,4.58-4.52,4.58h-5.72ZM1027.55,779.1v12.38h8.32v-12.38l13.01-24.04h-9.37l-7.8,15.75-7.8-15.75h-9.37l13.01,24.04h0ZM1087.53,791.48h24.15v-7.8h-15.82v-28.62h-8.32v36.42h-.01ZM1127.9,791.48h8.32v-36.42h-8.32v36.42ZM1155.33,791.48h8.32v-14.32h14.19v-7.8h-14.19v-6.49h15.3v-7.8h-23.63v36.42h.01ZM1196.58,791.48h24.15v-7.8h-15.82v-6.51h13.69v-7.8h-13.69v-6.49h15.3v-7.8h-23.63v36.42-.02Z"/>
    </g>
  </g>
</svg>